%TF.GenerationSoftware,KiCad,Pcbnew,(6.0.6)*%
%TF.CreationDate,2023-06-01T04:25:58-08:00*%
%TF.ProjectId,FanSpeed_Controller,46616e53-7065-4656-945f-436f6e74726f,rev?*%
%TF.SameCoordinates,Original*%
%TF.FileFunction,Legend,Top*%
%TF.FilePolarity,Positive*%
%FSLAX46Y46*%
G04 Gerber Fmt 4.6, Leading zero omitted, Abs format (unit mm)*
G04 Created by KiCad (PCBNEW (6.0.6)) date 2023-06-01 04:25:58*
%MOMM*%
%LPD*%
G01*
G04 APERTURE LIST*
%ADD10C,0.150000*%
G04 APERTURE END LIST*
D10*
%TO.C,REF\u002A\u002A*%
X93746666Y-39492380D02*
X93413333Y-39016190D01*
X93175238Y-39492380D02*
X93175238Y-38492380D01*
X93556190Y-38492380D01*
X93651428Y-38540000D01*
X93699047Y-38587619D01*
X93746666Y-38682857D01*
X93746666Y-38825714D01*
X93699047Y-38920952D01*
X93651428Y-38968571D01*
X93556190Y-39016190D01*
X93175238Y-39016190D01*
X94175238Y-38968571D02*
X94508571Y-38968571D01*
X94651428Y-39492380D02*
X94175238Y-39492380D01*
X94175238Y-38492380D01*
X94651428Y-38492380D01*
X95413333Y-38968571D02*
X95080000Y-38968571D01*
X95080000Y-39492380D02*
X95080000Y-38492380D01*
X95556190Y-38492380D01*
X96080000Y-38492380D02*
X96080000Y-38730476D01*
X95841904Y-38635238D02*
X96080000Y-38730476D01*
X96318095Y-38635238D01*
X95937142Y-38920952D02*
X96080000Y-38730476D01*
X96222857Y-38920952D01*
X96841904Y-38492380D02*
X96841904Y-38730476D01*
X96603809Y-38635238D02*
X96841904Y-38730476D01*
X97080000Y-38635238D01*
X96699047Y-38920952D02*
X96841904Y-38730476D01*
X96984761Y-38920952D01*
%TD*%
M02*
