%TF.GenerationSoftware,KiCad,Pcbnew,(6.0.6)*%
%TF.CreationDate,2022-11-23T05:32:29-08:00*%
%TF.ProjectId,FanSpeed_Controller,46616e53-7065-4656-945f-436f6e74726f,rev?*%
%TF.SameCoordinates,Original*%
%TF.FileFunction,Legend,Top*%
%TF.FilePolarity,Positive*%
%FSLAX46Y46*%
G04 Gerber Fmt 4.6, Leading zero omitted, Abs format (unit mm)*
G04 Created by KiCad (PCBNEW (6.0.6)) date 2022-11-23 05:32:29*
%MOMM*%
%LPD*%
G01*
G04 APERTURE LIST*
%ADD10C,0.300000*%
%ADD11C,0.200000*%
%ADD12C,0.150000*%
%ADD13C,0.120000*%
G04 APERTURE END LIST*
D10*
X236918571Y-87000000D02*
X236918571Y-86000000D01*
X238418571Y-86642857D01*
X237061428Y-85500000D02*
X236990000Y-85428571D01*
X236918571Y-85285714D01*
X236918571Y-84928571D01*
X236990000Y-84785714D01*
X237061428Y-84714285D01*
X237204285Y-84642857D01*
X237347142Y-84642857D01*
X237561428Y-84714285D01*
X238418571Y-85571428D01*
X238418571Y-84642857D01*
X238275714Y-84000000D02*
X238347142Y-83928571D01*
X238418571Y-84000000D01*
X238347142Y-84071428D01*
X238275714Y-84000000D01*
X238418571Y-84000000D01*
X236918571Y-83000000D02*
X236918571Y-82857142D01*
X236990000Y-82714285D01*
X237061428Y-82642857D01*
X237204285Y-82571428D01*
X237490000Y-82500000D01*
X237847142Y-82500000D01*
X238132857Y-82571428D01*
X238275714Y-82642857D01*
X238347142Y-82714285D01*
X238418571Y-82857142D01*
X238418571Y-83000000D01*
X238347142Y-83142857D01*
X238275714Y-83214285D01*
X238132857Y-83285714D01*
X237847142Y-83357142D01*
X237490000Y-83357142D01*
X237204285Y-83285714D01*
X237061428Y-83214285D01*
X236990000Y-83142857D01*
X236918571Y-83000000D01*
X236918571Y-81571428D02*
X236918571Y-81428571D01*
X236990000Y-81285714D01*
X237061428Y-81214285D01*
X237204285Y-81142857D01*
X237490000Y-81071428D01*
X237847142Y-81071428D01*
X238132857Y-81142857D01*
X238275714Y-81214285D01*
X238347142Y-81285714D01*
X238418571Y-81428571D01*
X238418571Y-81571428D01*
X238347142Y-81714285D01*
X238275714Y-81785714D01*
X238132857Y-81857142D01*
X237847142Y-81928571D01*
X237490000Y-81928571D01*
X237204285Y-81857142D01*
X237061428Y-81785714D01*
X236990000Y-81714285D01*
X236918571Y-81571428D01*
X236918571Y-80142857D02*
X236918571Y-80000000D01*
X236990000Y-79857142D01*
X237061428Y-79785714D01*
X237204285Y-79714285D01*
X237490000Y-79642857D01*
X237847142Y-79642857D01*
X238132857Y-79714285D01*
X238275714Y-79785714D01*
X238347142Y-79857142D01*
X238418571Y-80000000D01*
X238418571Y-80142857D01*
X238347142Y-80285714D01*
X238275714Y-80357142D01*
X238132857Y-80428571D01*
X237847142Y-80500000D01*
X237490000Y-80500000D01*
X237204285Y-80428571D01*
X237061428Y-80357142D01*
X236990000Y-80285714D01*
X236918571Y-80142857D01*
X236918571Y-78714285D02*
X236918571Y-78571428D01*
X236990000Y-78428571D01*
X237061428Y-78357142D01*
X237204285Y-78285714D01*
X237490000Y-78214285D01*
X237847142Y-78214285D01*
X238132857Y-78285714D01*
X238275714Y-78357142D01*
X238347142Y-78428571D01*
X238418571Y-78571428D01*
X238418571Y-78714285D01*
X238347142Y-78857142D01*
X238275714Y-78928571D01*
X238132857Y-79000000D01*
X237847142Y-79071428D01*
X237490000Y-79071428D01*
X237204285Y-79000000D01*
X237061428Y-78928571D01*
X236990000Y-78857142D01*
X236918571Y-78714285D01*
X238418571Y-76428571D02*
X237418571Y-76428571D01*
X237561428Y-76428571D02*
X237490000Y-76357142D01*
X237418571Y-76214285D01*
X237418571Y-76000000D01*
X237490000Y-75857142D01*
X237632857Y-75785714D01*
X238418571Y-75785714D01*
X237632857Y-75785714D02*
X237490000Y-75714285D01*
X237418571Y-75571428D01*
X237418571Y-75357142D01*
X237490000Y-75214285D01*
X237632857Y-75142857D01*
X238418571Y-75142857D01*
X238418571Y-74428571D02*
X237418571Y-74428571D01*
X237561428Y-74428571D02*
X237490000Y-74357142D01*
X237418571Y-74214285D01*
X237418571Y-74000000D01*
X237490000Y-73857142D01*
X237632857Y-73785714D01*
X238418571Y-73785714D01*
X237632857Y-73785714D02*
X237490000Y-73714285D01*
X237418571Y-73571428D01*
X237418571Y-73357142D01*
X237490000Y-73214285D01*
X237632857Y-73142857D01*
X238418571Y-73142857D01*
D11*
X226500000Y-116000000D02*
X240126420Y-116000000D01*
X226500000Y-44000000D02*
X240126420Y-44000000D01*
X239540000Y-116000000D02*
X239540000Y-44000000D01*
X239540000Y-116000000D02*
X239540000Y-44000000D01*
X239540000Y-116000000D02*
X240126421Y-114873496D01*
X239540000Y-116000000D02*
X238953579Y-114873496D01*
X239540000Y-44000000D02*
X238953579Y-45126504D01*
X239540000Y-44000000D02*
X240126421Y-45126504D01*
D10*
X158214285Y-130445571D02*
X157357142Y-130445571D01*
X157785714Y-130445571D02*
X157785714Y-128945571D01*
X157642857Y-129159857D01*
X157500000Y-129302714D01*
X157357142Y-129374142D01*
X158714285Y-128945571D02*
X159642857Y-128945571D01*
X159142857Y-129517000D01*
X159357142Y-129517000D01*
X159500000Y-129588428D01*
X159571428Y-129659857D01*
X159642857Y-129802714D01*
X159642857Y-130159857D01*
X159571428Y-130302714D01*
X159500000Y-130374142D01*
X159357142Y-130445571D01*
X158928571Y-130445571D01*
X158785714Y-130374142D01*
X158714285Y-130302714D01*
X160571428Y-128945571D02*
X160714285Y-128945571D01*
X160857142Y-129017000D01*
X160928571Y-129088428D01*
X161000000Y-129231285D01*
X161071428Y-129517000D01*
X161071428Y-129874142D01*
X161000000Y-130159857D01*
X160928571Y-130302714D01*
X160857142Y-130374142D01*
X160714285Y-130445571D01*
X160571428Y-130445571D01*
X160428571Y-130374142D01*
X160357142Y-130302714D01*
X160285714Y-130159857D01*
X160214285Y-129874142D01*
X160214285Y-129517000D01*
X160285714Y-129231285D01*
X160357142Y-129088428D01*
X160428571Y-129017000D01*
X160571428Y-128945571D01*
X161714285Y-130302714D02*
X161785714Y-130374142D01*
X161714285Y-130445571D01*
X161642857Y-130374142D01*
X161714285Y-130302714D01*
X161714285Y-130445571D01*
X162714285Y-128945571D02*
X162857142Y-128945571D01*
X163000000Y-129017000D01*
X163071428Y-129088428D01*
X163142857Y-129231285D01*
X163214285Y-129517000D01*
X163214285Y-129874142D01*
X163142857Y-130159857D01*
X163071428Y-130302714D01*
X163000000Y-130374142D01*
X162857142Y-130445571D01*
X162714285Y-130445571D01*
X162571428Y-130374142D01*
X162500000Y-130302714D01*
X162428571Y-130159857D01*
X162357142Y-129874142D01*
X162357142Y-129517000D01*
X162428571Y-129231285D01*
X162500000Y-129088428D01*
X162571428Y-129017000D01*
X162714285Y-128945571D01*
X164142857Y-128945571D02*
X164285714Y-128945571D01*
X164428571Y-129017000D01*
X164500000Y-129088428D01*
X164571428Y-129231285D01*
X164642857Y-129517000D01*
X164642857Y-129874142D01*
X164571428Y-130159857D01*
X164500000Y-130302714D01*
X164428571Y-130374142D01*
X164285714Y-130445571D01*
X164142857Y-130445571D01*
X164000000Y-130374142D01*
X163928571Y-130302714D01*
X163857142Y-130159857D01*
X163785714Y-129874142D01*
X163785714Y-129517000D01*
X163857142Y-129231285D01*
X163928571Y-129088428D01*
X164000000Y-129017000D01*
X164142857Y-128945571D01*
X165571428Y-128945571D02*
X165714285Y-128945571D01*
X165857142Y-129017000D01*
X165928571Y-129088428D01*
X166000000Y-129231285D01*
X166071428Y-129517000D01*
X166071428Y-129874142D01*
X166000000Y-130159857D01*
X165928571Y-130302714D01*
X165857142Y-130374142D01*
X165714285Y-130445571D01*
X165571428Y-130445571D01*
X165428571Y-130374142D01*
X165357142Y-130302714D01*
X165285714Y-130159857D01*
X165214285Y-129874142D01*
X165214285Y-129517000D01*
X165285714Y-129231285D01*
X165357142Y-129088428D01*
X165428571Y-129017000D01*
X165571428Y-128945571D01*
X167000000Y-128945571D02*
X167142857Y-128945571D01*
X167285714Y-129017000D01*
X167357142Y-129088428D01*
X167428571Y-129231285D01*
X167500000Y-129517000D01*
X167500000Y-129874142D01*
X167428571Y-130159857D01*
X167357142Y-130302714D01*
X167285714Y-130374142D01*
X167142857Y-130445571D01*
X167000000Y-130445571D01*
X166857142Y-130374142D01*
X166785714Y-130302714D01*
X166714285Y-130159857D01*
X166642857Y-129874142D01*
X166642857Y-129517000D01*
X166714285Y-129231285D01*
X166785714Y-129088428D01*
X166857142Y-129017000D01*
X167000000Y-128945571D01*
X169285714Y-130445571D02*
X169285714Y-129445571D01*
X169285714Y-129588428D02*
X169357142Y-129517000D01*
X169500000Y-129445571D01*
X169714285Y-129445571D01*
X169857142Y-129517000D01*
X169928571Y-129659857D01*
X169928571Y-130445571D01*
X169928571Y-129659857D02*
X170000000Y-129517000D01*
X170142857Y-129445571D01*
X170357142Y-129445571D01*
X170500000Y-129517000D01*
X170571428Y-129659857D01*
X170571428Y-130445571D01*
X171285714Y-130445571D02*
X171285714Y-129445571D01*
X171285714Y-129588428D02*
X171357142Y-129517000D01*
X171500000Y-129445571D01*
X171714285Y-129445571D01*
X171857142Y-129517000D01*
X171928571Y-129659857D01*
X171928571Y-130445571D01*
X171928571Y-129659857D02*
X172000000Y-129517000D01*
X172142857Y-129445571D01*
X172357142Y-129445571D01*
X172500000Y-129517000D01*
X172571428Y-129659857D01*
X172571428Y-130445571D01*
D11*
X100000000Y-120500000D02*
X100000000Y-132153420D01*
X230000000Y-120500000D02*
X230000000Y-132153420D01*
X100000000Y-131567000D02*
X230000000Y-131567000D01*
X100000000Y-131567000D02*
X230000000Y-131567000D01*
X100000000Y-131567000D02*
X101126504Y-132153421D01*
X100000000Y-131567000D02*
X101126504Y-130980579D01*
X230000000Y-131567000D02*
X228873496Y-130980579D01*
X230000000Y-131567000D02*
X228873496Y-132153421D01*
D10*
X158214285Y-126127571D02*
X157357142Y-126127571D01*
X157785714Y-126127571D02*
X157785714Y-124627571D01*
X157642857Y-124841857D01*
X157500000Y-124984714D01*
X157357142Y-125056142D01*
X158785714Y-124770428D02*
X158857142Y-124699000D01*
X159000000Y-124627571D01*
X159357142Y-124627571D01*
X159500000Y-124699000D01*
X159571428Y-124770428D01*
X159642857Y-124913285D01*
X159642857Y-125056142D01*
X159571428Y-125270428D01*
X158714285Y-126127571D01*
X159642857Y-126127571D01*
X160214285Y-124770428D02*
X160285714Y-124699000D01*
X160428571Y-124627571D01*
X160785714Y-124627571D01*
X160928571Y-124699000D01*
X161000000Y-124770428D01*
X161071428Y-124913285D01*
X161071428Y-125056142D01*
X161000000Y-125270428D01*
X160142857Y-126127571D01*
X161071428Y-126127571D01*
X161714285Y-125984714D02*
X161785714Y-126056142D01*
X161714285Y-126127571D01*
X161642857Y-126056142D01*
X161714285Y-125984714D01*
X161714285Y-126127571D01*
X162714285Y-124627571D02*
X162857142Y-124627571D01*
X163000000Y-124699000D01*
X163071428Y-124770428D01*
X163142857Y-124913285D01*
X163214285Y-125199000D01*
X163214285Y-125556142D01*
X163142857Y-125841857D01*
X163071428Y-125984714D01*
X163000000Y-126056142D01*
X162857142Y-126127571D01*
X162714285Y-126127571D01*
X162571428Y-126056142D01*
X162500000Y-125984714D01*
X162428571Y-125841857D01*
X162357142Y-125556142D01*
X162357142Y-125199000D01*
X162428571Y-124913285D01*
X162500000Y-124770428D01*
X162571428Y-124699000D01*
X162714285Y-124627571D01*
X164142857Y-124627571D02*
X164285714Y-124627571D01*
X164428571Y-124699000D01*
X164500000Y-124770428D01*
X164571428Y-124913285D01*
X164642857Y-125199000D01*
X164642857Y-125556142D01*
X164571428Y-125841857D01*
X164500000Y-125984714D01*
X164428571Y-126056142D01*
X164285714Y-126127571D01*
X164142857Y-126127571D01*
X164000000Y-126056142D01*
X163928571Y-125984714D01*
X163857142Y-125841857D01*
X163785714Y-125556142D01*
X163785714Y-125199000D01*
X163857142Y-124913285D01*
X163928571Y-124770428D01*
X164000000Y-124699000D01*
X164142857Y-124627571D01*
X165571428Y-124627571D02*
X165714285Y-124627571D01*
X165857142Y-124699000D01*
X165928571Y-124770428D01*
X166000000Y-124913285D01*
X166071428Y-125199000D01*
X166071428Y-125556142D01*
X166000000Y-125841857D01*
X165928571Y-125984714D01*
X165857142Y-126056142D01*
X165714285Y-126127571D01*
X165571428Y-126127571D01*
X165428571Y-126056142D01*
X165357142Y-125984714D01*
X165285714Y-125841857D01*
X165214285Y-125556142D01*
X165214285Y-125199000D01*
X165285714Y-124913285D01*
X165357142Y-124770428D01*
X165428571Y-124699000D01*
X165571428Y-124627571D01*
X167000000Y-124627571D02*
X167142857Y-124627571D01*
X167285714Y-124699000D01*
X167357142Y-124770428D01*
X167428571Y-124913285D01*
X167500000Y-125199000D01*
X167500000Y-125556142D01*
X167428571Y-125841857D01*
X167357142Y-125984714D01*
X167285714Y-126056142D01*
X167142857Y-126127571D01*
X167000000Y-126127571D01*
X166857142Y-126056142D01*
X166785714Y-125984714D01*
X166714285Y-125841857D01*
X166642857Y-125556142D01*
X166642857Y-125199000D01*
X166714285Y-124913285D01*
X166785714Y-124770428D01*
X166857142Y-124699000D01*
X167000000Y-124627571D01*
X169285714Y-126127571D02*
X169285714Y-125127571D01*
X169285714Y-125270428D02*
X169357142Y-125199000D01*
X169500000Y-125127571D01*
X169714285Y-125127571D01*
X169857142Y-125199000D01*
X169928571Y-125341857D01*
X169928571Y-126127571D01*
X169928571Y-125341857D02*
X170000000Y-125199000D01*
X170142857Y-125127571D01*
X170357142Y-125127571D01*
X170500000Y-125199000D01*
X170571428Y-125341857D01*
X170571428Y-126127571D01*
X171285714Y-126127571D02*
X171285714Y-125127571D01*
X171285714Y-125270428D02*
X171357142Y-125199000D01*
X171500000Y-125127571D01*
X171714285Y-125127571D01*
X171857142Y-125199000D01*
X171928571Y-125341857D01*
X171928571Y-126127571D01*
X171928571Y-125341857D02*
X172000000Y-125199000D01*
X172142857Y-125127571D01*
X172357142Y-125127571D01*
X172500000Y-125199000D01*
X172571428Y-125341857D01*
X172571428Y-126127571D01*
D11*
X104000000Y-116500000D02*
X104000000Y-127835420D01*
X226000000Y-116500000D02*
X226000000Y-127835420D01*
X104000000Y-127249000D02*
X226000000Y-127249000D01*
X104000000Y-127249000D02*
X226000000Y-127249000D01*
X104000000Y-127249000D02*
X105126504Y-127835421D01*
X104000000Y-127249000D02*
X105126504Y-126662579D01*
X226000000Y-127249000D02*
X224873496Y-126662579D01*
X226000000Y-127249000D02*
X224873496Y-127835421D01*
D10*
X243276428Y-86642857D02*
X243205000Y-86785714D01*
X243133571Y-86857142D01*
X242990714Y-86928571D01*
X242919285Y-86928571D01*
X242776428Y-86857142D01*
X242705000Y-86785714D01*
X242633571Y-86642857D01*
X242633571Y-86357142D01*
X242705000Y-86214285D01*
X242776428Y-86142857D01*
X242919285Y-86071428D01*
X242990714Y-86071428D01*
X243133571Y-86142857D01*
X243205000Y-86214285D01*
X243276428Y-86357142D01*
X243276428Y-86642857D01*
X243347857Y-86785714D01*
X243419285Y-86857142D01*
X243562142Y-86928571D01*
X243847857Y-86928571D01*
X243990714Y-86857142D01*
X244062142Y-86785714D01*
X244133571Y-86642857D01*
X244133571Y-86357142D01*
X244062142Y-86214285D01*
X243990714Y-86142857D01*
X243847857Y-86071428D01*
X243562142Y-86071428D01*
X243419285Y-86142857D01*
X243347857Y-86214285D01*
X243276428Y-86357142D01*
X242633571Y-85142857D02*
X242633571Y-85000000D01*
X242705000Y-84857142D01*
X242776428Y-84785714D01*
X242919285Y-84714285D01*
X243205000Y-84642857D01*
X243562142Y-84642857D01*
X243847857Y-84714285D01*
X243990714Y-84785714D01*
X244062142Y-84857142D01*
X244133571Y-85000000D01*
X244133571Y-85142857D01*
X244062142Y-85285714D01*
X243990714Y-85357142D01*
X243847857Y-85428571D01*
X243562142Y-85500000D01*
X243205000Y-85500000D01*
X242919285Y-85428571D01*
X242776428Y-85357142D01*
X242705000Y-85285714D01*
X242633571Y-85142857D01*
X243990714Y-84000000D02*
X244062142Y-83928571D01*
X244133571Y-84000000D01*
X244062142Y-84071428D01*
X243990714Y-84000000D01*
X244133571Y-84000000D01*
X242633571Y-83000000D02*
X242633571Y-82857142D01*
X242705000Y-82714285D01*
X242776428Y-82642857D01*
X242919285Y-82571428D01*
X243205000Y-82500000D01*
X243562142Y-82500000D01*
X243847857Y-82571428D01*
X243990714Y-82642857D01*
X244062142Y-82714285D01*
X244133571Y-82857142D01*
X244133571Y-83000000D01*
X244062142Y-83142857D01*
X243990714Y-83214285D01*
X243847857Y-83285714D01*
X243562142Y-83357142D01*
X243205000Y-83357142D01*
X242919285Y-83285714D01*
X242776428Y-83214285D01*
X242705000Y-83142857D01*
X242633571Y-83000000D01*
X242633571Y-81571428D02*
X242633571Y-81428571D01*
X242705000Y-81285714D01*
X242776428Y-81214285D01*
X242919285Y-81142857D01*
X243205000Y-81071428D01*
X243562142Y-81071428D01*
X243847857Y-81142857D01*
X243990714Y-81214285D01*
X244062142Y-81285714D01*
X244133571Y-81428571D01*
X244133571Y-81571428D01*
X244062142Y-81714285D01*
X243990714Y-81785714D01*
X243847857Y-81857142D01*
X243562142Y-81928571D01*
X243205000Y-81928571D01*
X242919285Y-81857142D01*
X242776428Y-81785714D01*
X242705000Y-81714285D01*
X242633571Y-81571428D01*
X242633571Y-80142857D02*
X242633571Y-80000000D01*
X242705000Y-79857142D01*
X242776428Y-79785714D01*
X242919285Y-79714285D01*
X243205000Y-79642857D01*
X243562142Y-79642857D01*
X243847857Y-79714285D01*
X243990714Y-79785714D01*
X244062142Y-79857142D01*
X244133571Y-80000000D01*
X244133571Y-80142857D01*
X244062142Y-80285714D01*
X243990714Y-80357142D01*
X243847857Y-80428571D01*
X243562142Y-80500000D01*
X243205000Y-80500000D01*
X242919285Y-80428571D01*
X242776428Y-80357142D01*
X242705000Y-80285714D01*
X242633571Y-80142857D01*
X242633571Y-78714285D02*
X242633571Y-78571428D01*
X242705000Y-78428571D01*
X242776428Y-78357142D01*
X242919285Y-78285714D01*
X243205000Y-78214285D01*
X243562142Y-78214285D01*
X243847857Y-78285714D01*
X243990714Y-78357142D01*
X244062142Y-78428571D01*
X244133571Y-78571428D01*
X244133571Y-78714285D01*
X244062142Y-78857142D01*
X243990714Y-78928571D01*
X243847857Y-79000000D01*
X243562142Y-79071428D01*
X243205000Y-79071428D01*
X242919285Y-79000000D01*
X242776428Y-78928571D01*
X242705000Y-78857142D01*
X242633571Y-78714285D01*
X244133571Y-76428571D02*
X243133571Y-76428571D01*
X243276428Y-76428571D02*
X243205000Y-76357142D01*
X243133571Y-76214285D01*
X243133571Y-76000000D01*
X243205000Y-75857142D01*
X243347857Y-75785714D01*
X244133571Y-75785714D01*
X243347857Y-75785714D02*
X243205000Y-75714285D01*
X243133571Y-75571428D01*
X243133571Y-75357142D01*
X243205000Y-75214285D01*
X243347857Y-75142857D01*
X244133571Y-75142857D01*
X244133571Y-74428571D02*
X243133571Y-74428571D01*
X243276428Y-74428571D02*
X243205000Y-74357142D01*
X243133571Y-74214285D01*
X243133571Y-74000000D01*
X243205000Y-73857142D01*
X243347857Y-73785714D01*
X244133571Y-73785714D01*
X243347857Y-73785714D02*
X243205000Y-73714285D01*
X243133571Y-73571428D01*
X243133571Y-73357142D01*
X243205000Y-73214285D01*
X243347857Y-73142857D01*
X244133571Y-73142857D01*
D11*
X230500000Y-40000000D02*
X245841420Y-40000000D01*
X230500000Y-120000000D02*
X245841420Y-120000000D01*
X245255000Y-40000000D02*
X245255000Y-120000000D01*
X245255000Y-40000000D02*
X245255000Y-120000000D01*
X245255000Y-40000000D02*
X244668579Y-41126504D01*
X245255000Y-40000000D02*
X245841421Y-41126504D01*
X245255000Y-120000000D02*
X245841421Y-118873496D01*
X245255000Y-120000000D02*
X244668579Y-118873496D01*
D12*
%TO.C,D2*%
X210005904Y-49215380D02*
X210005904Y-48215380D01*
X210244000Y-48215380D01*
X210386857Y-48263000D01*
X210482095Y-48358238D01*
X210529714Y-48453476D01*
X210577333Y-48643952D01*
X210577333Y-48786809D01*
X210529714Y-48977285D01*
X210482095Y-49072523D01*
X210386857Y-49167761D01*
X210244000Y-49215380D01*
X210005904Y-49215380D01*
X210958285Y-48310619D02*
X211005904Y-48263000D01*
X211101142Y-48215380D01*
X211339238Y-48215380D01*
X211434476Y-48263000D01*
X211482095Y-48310619D01*
X211529714Y-48405857D01*
X211529714Y-48501095D01*
X211482095Y-48643952D01*
X210910666Y-49215380D01*
X211529714Y-49215380D01*
%TO.C,D3*%
X209497904Y-75758380D02*
X209497904Y-74758380D01*
X209736000Y-74758380D01*
X209878857Y-74806000D01*
X209974095Y-74901238D01*
X210021714Y-74996476D01*
X210069333Y-75186952D01*
X210069333Y-75329809D01*
X210021714Y-75520285D01*
X209974095Y-75615523D01*
X209878857Y-75710761D01*
X209736000Y-75758380D01*
X209497904Y-75758380D01*
X210402666Y-74758380D02*
X211021714Y-74758380D01*
X210688380Y-75139333D01*
X210831238Y-75139333D01*
X210926476Y-75186952D01*
X210974095Y-75234571D01*
X211021714Y-75329809D01*
X211021714Y-75567904D01*
X210974095Y-75663142D01*
X210926476Y-75710761D01*
X210831238Y-75758380D01*
X210545523Y-75758380D01*
X210450285Y-75710761D01*
X210402666Y-75663142D01*
%TO.C,C5*%
X152030333Y-85823142D02*
X151982714Y-85870761D01*
X151839857Y-85918380D01*
X151744619Y-85918380D01*
X151601761Y-85870761D01*
X151506523Y-85775523D01*
X151458904Y-85680285D01*
X151411285Y-85489809D01*
X151411285Y-85346952D01*
X151458904Y-85156476D01*
X151506523Y-85061238D01*
X151601761Y-84966000D01*
X151744619Y-84918380D01*
X151839857Y-84918380D01*
X151982714Y-84966000D01*
X152030333Y-85013619D01*
X152935095Y-84918380D02*
X152458904Y-84918380D01*
X152411285Y-85394571D01*
X152458904Y-85346952D01*
X152554142Y-85299333D01*
X152792238Y-85299333D01*
X152887476Y-85346952D01*
X152935095Y-85394571D01*
X152982714Y-85489809D01*
X152982714Y-85727904D01*
X152935095Y-85823142D01*
X152887476Y-85870761D01*
X152792238Y-85918380D01*
X152554142Y-85918380D01*
X152458904Y-85870761D01*
X152411285Y-85823142D01*
%TO.C,X1*%
X139322476Y-106254380D02*
X139989142Y-107254380D01*
X139989142Y-106254380D02*
X139322476Y-107254380D01*
X140893904Y-107254380D02*
X140322476Y-107254380D01*
X140608190Y-107254380D02*
X140608190Y-106254380D01*
X140512952Y-106397238D01*
X140417714Y-106492476D01*
X140322476Y-106540095D01*
%TO.C,C2*%
X119518333Y-117700142D02*
X119470714Y-117747761D01*
X119327857Y-117795380D01*
X119232619Y-117795380D01*
X119089761Y-117747761D01*
X118994523Y-117652523D01*
X118946904Y-117557285D01*
X118899285Y-117366809D01*
X118899285Y-117223952D01*
X118946904Y-117033476D01*
X118994523Y-116938238D01*
X119089761Y-116843000D01*
X119232619Y-116795380D01*
X119327857Y-116795380D01*
X119470714Y-116843000D01*
X119518333Y-116890619D01*
X119899285Y-116890619D02*
X119946904Y-116843000D01*
X120042142Y-116795380D01*
X120280238Y-116795380D01*
X120375476Y-116843000D01*
X120423095Y-116890619D01*
X120470714Y-116985857D01*
X120470714Y-117081095D01*
X120423095Y-117223952D01*
X119851666Y-117795380D01*
X120470714Y-117795380D01*
%TO.C,HeatSink1*%
X179114500Y-80965380D02*
X179114500Y-79965380D01*
X179114500Y-80441571D02*
X179685928Y-80441571D01*
X179685928Y-80965380D02*
X179685928Y-79965380D01*
X180543071Y-80917761D02*
X180447833Y-80965380D01*
X180257357Y-80965380D01*
X180162119Y-80917761D01*
X180114500Y-80822523D01*
X180114500Y-80441571D01*
X180162119Y-80346333D01*
X180257357Y-80298714D01*
X180447833Y-80298714D01*
X180543071Y-80346333D01*
X180590690Y-80441571D01*
X180590690Y-80536809D01*
X180114500Y-80632047D01*
X181447833Y-80965380D02*
X181447833Y-80441571D01*
X181400214Y-80346333D01*
X181304976Y-80298714D01*
X181114500Y-80298714D01*
X181019261Y-80346333D01*
X181447833Y-80917761D02*
X181352595Y-80965380D01*
X181114500Y-80965380D01*
X181019261Y-80917761D01*
X180971642Y-80822523D01*
X180971642Y-80727285D01*
X181019261Y-80632047D01*
X181114500Y-80584428D01*
X181352595Y-80584428D01*
X181447833Y-80536809D01*
X181781166Y-80298714D02*
X182162119Y-80298714D01*
X181924023Y-79965380D02*
X181924023Y-80822523D01*
X181971642Y-80917761D01*
X182066880Y-80965380D01*
X182162119Y-80965380D01*
X182447833Y-80917761D02*
X182590690Y-80965380D01*
X182828785Y-80965380D01*
X182924023Y-80917761D01*
X182971642Y-80870142D01*
X183019261Y-80774904D01*
X183019261Y-80679666D01*
X182971642Y-80584428D01*
X182924023Y-80536809D01*
X182828785Y-80489190D01*
X182638309Y-80441571D01*
X182543071Y-80393952D01*
X182495452Y-80346333D01*
X182447833Y-80251095D01*
X182447833Y-80155857D01*
X182495452Y-80060619D01*
X182543071Y-80013000D01*
X182638309Y-79965380D01*
X182876404Y-79965380D01*
X183019261Y-80013000D01*
X183447833Y-80965380D02*
X183447833Y-80298714D01*
X183447833Y-79965380D02*
X183400214Y-80013000D01*
X183447833Y-80060619D01*
X183495452Y-80013000D01*
X183447833Y-79965380D01*
X183447833Y-80060619D01*
X183924023Y-80298714D02*
X183924023Y-80965380D01*
X183924023Y-80393952D02*
X183971642Y-80346333D01*
X184066880Y-80298714D01*
X184209738Y-80298714D01*
X184304976Y-80346333D01*
X184352595Y-80441571D01*
X184352595Y-80965380D01*
X184828785Y-80965380D02*
X184828785Y-79965380D01*
X184924023Y-80584428D02*
X185209738Y-80965380D01*
X185209738Y-80298714D02*
X184828785Y-80679666D01*
X186162119Y-80965380D02*
X185590690Y-80965380D01*
X185876404Y-80965380D02*
X185876404Y-79965380D01*
X185781166Y-80108238D01*
X185685928Y-80203476D01*
X185590690Y-80251095D01*
%TO.C,L1*%
X141743333Y-95888380D02*
X141267142Y-95888380D01*
X141267142Y-94888380D01*
X142600476Y-95888380D02*
X142029047Y-95888380D01*
X142314761Y-95888380D02*
X142314761Y-94888380D01*
X142219523Y-95031238D01*
X142124285Y-95126476D01*
X142029047Y-95174095D01*
%TO.C,R1*%
X119645333Y-110302380D02*
X119312000Y-109826190D01*
X119073904Y-110302380D02*
X119073904Y-109302380D01*
X119454857Y-109302380D01*
X119550095Y-109350000D01*
X119597714Y-109397619D01*
X119645333Y-109492857D01*
X119645333Y-109635714D01*
X119597714Y-109730952D01*
X119550095Y-109778571D01*
X119454857Y-109826190D01*
X119073904Y-109826190D01*
X120597714Y-110302380D02*
X120026285Y-110302380D01*
X120312000Y-110302380D02*
X120312000Y-109302380D01*
X120216761Y-109445238D01*
X120121523Y-109540476D01*
X120026285Y-109588095D01*
%TO.C,A1*%
X154396666Y-106363285D02*
X154396666Y-105887095D01*
X154682380Y-106458523D02*
X153682380Y-106125190D01*
X154682380Y-105791857D01*
X154682380Y-104934714D02*
X154682380Y-105506142D01*
X154682380Y-105220428D02*
X153682380Y-105220428D01*
X153825238Y-105315666D01*
X153920476Y-105410904D01*
X153968095Y-105506142D01*
%TO.C,J2*%
X101190666Y-97110380D02*
X101190666Y-97824666D01*
X101143047Y-97967523D01*
X101047809Y-98062761D01*
X100904952Y-98110380D01*
X100809714Y-98110380D01*
X101619238Y-97205619D02*
X101666857Y-97158000D01*
X101762095Y-97110380D01*
X102000190Y-97110380D01*
X102095428Y-97158000D01*
X102143047Y-97205619D01*
X102190666Y-97300857D01*
X102190666Y-97396095D01*
X102143047Y-97538952D01*
X101571619Y-98110380D01*
X102190666Y-98110380D01*
%TO.C,U3*%
X146483095Y-85553380D02*
X146483095Y-86362904D01*
X146530714Y-86458142D01*
X146578333Y-86505761D01*
X146673571Y-86553380D01*
X146864047Y-86553380D01*
X146959285Y-86505761D01*
X147006904Y-86458142D01*
X147054523Y-86362904D01*
X147054523Y-85553380D01*
X147435476Y-85553380D02*
X148054523Y-85553380D01*
X147721190Y-85934333D01*
X147864047Y-85934333D01*
X147959285Y-85981952D01*
X148006904Y-86029571D01*
X148054523Y-86124809D01*
X148054523Y-86362904D01*
X148006904Y-86458142D01*
X147959285Y-86505761D01*
X147864047Y-86553380D01*
X147578333Y-86553380D01*
X147483095Y-86505761D01*
X147435476Y-86458142D01*
%TO.C,K1*%
X154125904Y-44262380D02*
X154125904Y-43262380D01*
X154697333Y-44262380D02*
X154268761Y-43690952D01*
X154697333Y-43262380D02*
X154125904Y-43833809D01*
X155649714Y-44262380D02*
X155078285Y-44262380D01*
X155364000Y-44262380D02*
X155364000Y-43262380D01*
X155268761Y-43405238D01*
X155173523Y-43500476D01*
X155078285Y-43548095D01*
%TO.C,R4*%
X157237333Y-100777380D02*
X156904000Y-100301190D01*
X156665904Y-100777380D02*
X156665904Y-99777380D01*
X157046857Y-99777380D01*
X157142095Y-99825000D01*
X157189714Y-99872619D01*
X157237333Y-99967857D01*
X157237333Y-100110714D01*
X157189714Y-100205952D01*
X157142095Y-100253571D01*
X157046857Y-100301190D01*
X156665904Y-100301190D01*
X158094476Y-100110714D02*
X158094476Y-100777380D01*
X157856380Y-99729761D02*
X157618285Y-100444047D01*
X158237333Y-100444047D01*
%TO.C,C6*%
X157364333Y-95094142D02*
X157316714Y-95141761D01*
X157173857Y-95189380D01*
X157078619Y-95189380D01*
X156935761Y-95141761D01*
X156840523Y-95046523D01*
X156792904Y-94951285D01*
X156745285Y-94760809D01*
X156745285Y-94617952D01*
X156792904Y-94427476D01*
X156840523Y-94332238D01*
X156935761Y-94237000D01*
X157078619Y-94189380D01*
X157173857Y-94189380D01*
X157316714Y-94237000D01*
X157364333Y-94284619D01*
X158221476Y-94189380D02*
X158031000Y-94189380D01*
X157935761Y-94237000D01*
X157888142Y-94284619D01*
X157792904Y-94427476D01*
X157745285Y-94617952D01*
X157745285Y-94998904D01*
X157792904Y-95094142D01*
X157840523Y-95141761D01*
X157935761Y-95189380D01*
X158126238Y-95189380D01*
X158221476Y-95141761D01*
X158269095Y-95094142D01*
X158316714Y-94998904D01*
X158316714Y-94760809D01*
X158269095Y-94665571D01*
X158221476Y-94617952D01*
X158126238Y-94570333D01*
X157935761Y-94570333D01*
X157840523Y-94617952D01*
X157792904Y-94665571D01*
X157745285Y-94760809D01*
%TO.C,R2*%
X162571333Y-108905380D02*
X162238000Y-108429190D01*
X161999904Y-108905380D02*
X161999904Y-107905380D01*
X162380857Y-107905380D01*
X162476095Y-107953000D01*
X162523714Y-108000619D01*
X162571333Y-108095857D01*
X162571333Y-108238714D01*
X162523714Y-108333952D01*
X162476095Y-108381571D01*
X162380857Y-108429190D01*
X161999904Y-108429190D01*
X162952285Y-108000619D02*
X162999904Y-107953000D01*
X163095142Y-107905380D01*
X163333238Y-107905380D01*
X163428476Y-107953000D01*
X163476095Y-108000619D01*
X163523714Y-108095857D01*
X163523714Y-108191095D01*
X163476095Y-108333952D01*
X162904666Y-108905380D01*
X163523714Y-108905380D01*
%TO.C,FH1*%
X132162857Y-54279571D02*
X131829523Y-54279571D01*
X131829523Y-54803380D02*
X131829523Y-53803380D01*
X132305714Y-53803380D01*
X132686666Y-54803380D02*
X132686666Y-53803380D01*
X132686666Y-54279571D02*
X133258095Y-54279571D01*
X133258095Y-54803380D02*
X133258095Y-53803380D01*
X134258095Y-54803380D02*
X133686666Y-54803380D01*
X133972380Y-54803380D02*
X133972380Y-53803380D01*
X133877142Y-53946238D01*
X133781904Y-54041476D01*
X133686666Y-54089095D01*
%TO.C,K2*%
X153490904Y-69662380D02*
X153490904Y-68662380D01*
X154062333Y-69662380D02*
X153633761Y-69090952D01*
X154062333Y-68662380D02*
X153490904Y-69233809D01*
X154443285Y-68757619D02*
X154490904Y-68710000D01*
X154586142Y-68662380D01*
X154824238Y-68662380D01*
X154919476Y-68710000D01*
X154967095Y-68757619D01*
X155014714Y-68852857D01*
X155014714Y-68948095D01*
X154967095Y-69090952D01*
X154395666Y-69662380D01*
X155014714Y-69662380D01*
%TO.C,U2*%
X134925095Y-82332380D02*
X134925095Y-83141904D01*
X134972714Y-83237142D01*
X135020333Y-83284761D01*
X135115571Y-83332380D01*
X135306047Y-83332380D01*
X135401285Y-83284761D01*
X135448904Y-83237142D01*
X135496523Y-83141904D01*
X135496523Y-82332380D01*
X135925095Y-82427619D02*
X135972714Y-82380000D01*
X136067952Y-82332380D01*
X136306047Y-82332380D01*
X136401285Y-82380000D01*
X136448904Y-82427619D01*
X136496523Y-82522857D01*
X136496523Y-82618095D01*
X136448904Y-82760952D01*
X135877476Y-83332380D01*
X136496523Y-83332380D01*
%TO.C,J4*%
X225967166Y-73869380D02*
X225967166Y-74583666D01*
X225919547Y-74726523D01*
X225824309Y-74821761D01*
X225681452Y-74869380D01*
X225586214Y-74869380D01*
X226871928Y-74202714D02*
X226871928Y-74869380D01*
X226633833Y-73821761D02*
X226395738Y-74536047D01*
X227014785Y-74536047D01*
%TO.C,C9*%
X144299142Y-117927666D02*
X144346761Y-117975285D01*
X144394380Y-118118142D01*
X144394380Y-118213380D01*
X144346761Y-118356238D01*
X144251523Y-118451476D01*
X144156285Y-118499095D01*
X143965809Y-118546714D01*
X143822952Y-118546714D01*
X143632476Y-118499095D01*
X143537238Y-118451476D01*
X143442000Y-118356238D01*
X143394380Y-118213380D01*
X143394380Y-118118142D01*
X143442000Y-117975285D01*
X143489619Y-117927666D01*
X144394380Y-117451476D02*
X144394380Y-117261000D01*
X144346761Y-117165761D01*
X144299142Y-117118142D01*
X144156285Y-117022904D01*
X143965809Y-116975285D01*
X143584857Y-116975285D01*
X143489619Y-117022904D01*
X143442000Y-117070523D01*
X143394380Y-117165761D01*
X143394380Y-117356238D01*
X143442000Y-117451476D01*
X143489619Y-117499095D01*
X143584857Y-117546714D01*
X143822952Y-117546714D01*
X143918190Y-117499095D01*
X143965809Y-117451476D01*
X144013428Y-117356238D01*
X144013428Y-117165761D01*
X143965809Y-117070523D01*
X143918190Y-117022904D01*
X143822952Y-116975285D01*
%TO.C,U4*%
X149403095Y-105492380D02*
X149403095Y-106301904D01*
X149450714Y-106397142D01*
X149498333Y-106444761D01*
X149593571Y-106492380D01*
X149784047Y-106492380D01*
X149879285Y-106444761D01*
X149926904Y-106397142D01*
X149974523Y-106301904D01*
X149974523Y-105492380D01*
X150879285Y-105825714D02*
X150879285Y-106492380D01*
X150641190Y-105444761D02*
X150403095Y-106159047D01*
X151022142Y-106159047D01*
%TO.C,R3*%
X155205333Y-95189380D02*
X154872000Y-94713190D01*
X154633904Y-95189380D02*
X154633904Y-94189380D01*
X155014857Y-94189380D01*
X155110095Y-94237000D01*
X155157714Y-94284619D01*
X155205333Y-94379857D01*
X155205333Y-94522714D01*
X155157714Y-94617952D01*
X155110095Y-94665571D01*
X155014857Y-94713190D01*
X154633904Y-94713190D01*
X155538666Y-94189380D02*
X156157714Y-94189380D01*
X155824380Y-94570333D01*
X155967238Y-94570333D01*
X156062476Y-94617952D01*
X156110095Y-94665571D01*
X156157714Y-94760809D01*
X156157714Y-94998904D01*
X156110095Y-95094142D01*
X156062476Y-95141761D01*
X155967238Y-95189380D01*
X155681523Y-95189380D01*
X155586285Y-95141761D01*
X155538666Y-95094142D01*
%TO.C,U1*%
X126924095Y-105746380D02*
X126924095Y-106555904D01*
X126971714Y-106651142D01*
X127019333Y-106698761D01*
X127114571Y-106746380D01*
X127305047Y-106746380D01*
X127400285Y-106698761D01*
X127447904Y-106651142D01*
X127495523Y-106555904D01*
X127495523Y-105746380D01*
X128495523Y-106746380D02*
X127924095Y-106746380D01*
X128209809Y-106746380D02*
X128209809Y-105746380D01*
X128114571Y-105889238D01*
X128019333Y-105984476D01*
X127924095Y-106032095D01*
%TO.C,FH2*%
X112858857Y-85775571D02*
X112525523Y-85775571D01*
X112525523Y-86299380D02*
X112525523Y-85299380D01*
X113001714Y-85299380D01*
X113382666Y-86299380D02*
X113382666Y-85299380D01*
X113382666Y-85775571D02*
X113954095Y-85775571D01*
X113954095Y-86299380D02*
X113954095Y-85299380D01*
X114382666Y-85394619D02*
X114430285Y-85347000D01*
X114525523Y-85299380D01*
X114763619Y-85299380D01*
X114858857Y-85347000D01*
X114906476Y-85394619D01*
X114954095Y-85489857D01*
X114954095Y-85585095D01*
X114906476Y-85727952D01*
X114335047Y-86299380D01*
X114954095Y-86299380D01*
%TO.C,C1*%
X132472333Y-82521142D02*
X132424714Y-82568761D01*
X132281857Y-82616380D01*
X132186619Y-82616380D01*
X132043761Y-82568761D01*
X131948523Y-82473523D01*
X131900904Y-82378285D01*
X131853285Y-82187809D01*
X131853285Y-82044952D01*
X131900904Y-81854476D01*
X131948523Y-81759238D01*
X132043761Y-81664000D01*
X132186619Y-81616380D01*
X132281857Y-81616380D01*
X132424714Y-81664000D01*
X132472333Y-81711619D01*
X133424714Y-82616380D02*
X132853285Y-82616380D01*
X133139000Y-82616380D02*
X133139000Y-81616380D01*
X133043761Y-81759238D01*
X132948523Y-81854476D01*
X132853285Y-81902095D01*
%TO.C,D1*%
X119962904Y-96205380D02*
X119962904Y-95205380D01*
X120201000Y-95205380D01*
X120343857Y-95253000D01*
X120439095Y-95348238D01*
X120486714Y-95443476D01*
X120534333Y-95633952D01*
X120534333Y-95776809D01*
X120486714Y-95967285D01*
X120439095Y-96062523D01*
X120343857Y-96157761D01*
X120201000Y-96205380D01*
X119962904Y-96205380D01*
X121486714Y-96205380D02*
X120915285Y-96205380D01*
X121201000Y-96205380D02*
X121201000Y-95205380D01*
X121105761Y-95348238D01*
X121010523Y-95443476D01*
X120915285Y-95491095D01*
%TO.C,C4*%
X156983333Y-104713142D02*
X156935714Y-104760761D01*
X156792857Y-104808380D01*
X156697619Y-104808380D01*
X156554761Y-104760761D01*
X156459523Y-104665523D01*
X156411904Y-104570285D01*
X156364285Y-104379809D01*
X156364285Y-104236952D01*
X156411904Y-104046476D01*
X156459523Y-103951238D01*
X156554761Y-103856000D01*
X156697619Y-103808380D01*
X156792857Y-103808380D01*
X156935714Y-103856000D01*
X156983333Y-103903619D01*
X157840476Y-104141714D02*
X157840476Y-104808380D01*
X157602380Y-103760761D02*
X157364285Y-104475047D01*
X157983333Y-104475047D01*
%TO.C,C7*%
X164525142Y-90966666D02*
X164572761Y-91014285D01*
X164620380Y-91157142D01*
X164620380Y-91252380D01*
X164572761Y-91395238D01*
X164477523Y-91490476D01*
X164382285Y-91538095D01*
X164191809Y-91585714D01*
X164048952Y-91585714D01*
X163858476Y-91538095D01*
X163763238Y-91490476D01*
X163668000Y-91395238D01*
X163620380Y-91252380D01*
X163620380Y-91157142D01*
X163668000Y-91014285D01*
X163715619Y-90966666D01*
X163620380Y-90633333D02*
X163620380Y-89966666D01*
X164620380Y-90395238D01*
%TO.C,HeatSink2*%
X178606500Y-54295380D02*
X178606500Y-53295380D01*
X178606500Y-53771571D02*
X179177928Y-53771571D01*
X179177928Y-54295380D02*
X179177928Y-53295380D01*
X180035071Y-54247761D02*
X179939833Y-54295380D01*
X179749357Y-54295380D01*
X179654119Y-54247761D01*
X179606500Y-54152523D01*
X179606500Y-53771571D01*
X179654119Y-53676333D01*
X179749357Y-53628714D01*
X179939833Y-53628714D01*
X180035071Y-53676333D01*
X180082690Y-53771571D01*
X180082690Y-53866809D01*
X179606500Y-53962047D01*
X180939833Y-54295380D02*
X180939833Y-53771571D01*
X180892214Y-53676333D01*
X180796976Y-53628714D01*
X180606500Y-53628714D01*
X180511261Y-53676333D01*
X180939833Y-54247761D02*
X180844595Y-54295380D01*
X180606500Y-54295380D01*
X180511261Y-54247761D01*
X180463642Y-54152523D01*
X180463642Y-54057285D01*
X180511261Y-53962047D01*
X180606500Y-53914428D01*
X180844595Y-53914428D01*
X180939833Y-53866809D01*
X181273166Y-53628714D02*
X181654119Y-53628714D01*
X181416023Y-53295380D02*
X181416023Y-54152523D01*
X181463642Y-54247761D01*
X181558880Y-54295380D01*
X181654119Y-54295380D01*
X181939833Y-54247761D02*
X182082690Y-54295380D01*
X182320785Y-54295380D01*
X182416023Y-54247761D01*
X182463642Y-54200142D01*
X182511261Y-54104904D01*
X182511261Y-54009666D01*
X182463642Y-53914428D01*
X182416023Y-53866809D01*
X182320785Y-53819190D01*
X182130309Y-53771571D01*
X182035071Y-53723952D01*
X181987452Y-53676333D01*
X181939833Y-53581095D01*
X181939833Y-53485857D01*
X181987452Y-53390619D01*
X182035071Y-53343000D01*
X182130309Y-53295380D01*
X182368404Y-53295380D01*
X182511261Y-53343000D01*
X182939833Y-54295380D02*
X182939833Y-53628714D01*
X182939833Y-53295380D02*
X182892214Y-53343000D01*
X182939833Y-53390619D01*
X182987452Y-53343000D01*
X182939833Y-53295380D01*
X182939833Y-53390619D01*
X183416023Y-53628714D02*
X183416023Y-54295380D01*
X183416023Y-53723952D02*
X183463642Y-53676333D01*
X183558880Y-53628714D01*
X183701738Y-53628714D01*
X183796976Y-53676333D01*
X183844595Y-53771571D01*
X183844595Y-54295380D01*
X184320785Y-54295380D02*
X184320785Y-53295380D01*
X184416023Y-53914428D02*
X184701738Y-54295380D01*
X184701738Y-53628714D02*
X184320785Y-54009666D01*
X185082690Y-53390619D02*
X185130309Y-53343000D01*
X185225547Y-53295380D01*
X185463642Y-53295380D01*
X185558880Y-53343000D01*
X185606500Y-53390619D01*
X185654119Y-53485857D01*
X185654119Y-53581095D01*
X185606500Y-53723952D01*
X185035071Y-54295380D01*
X185654119Y-54295380D01*
%TO.C,C3*%
X147585333Y-95094142D02*
X147537714Y-95141761D01*
X147394857Y-95189380D01*
X147299619Y-95189380D01*
X147156761Y-95141761D01*
X147061523Y-95046523D01*
X147013904Y-94951285D01*
X146966285Y-94760809D01*
X146966285Y-94617952D01*
X147013904Y-94427476D01*
X147061523Y-94332238D01*
X147156761Y-94237000D01*
X147299619Y-94189380D01*
X147394857Y-94189380D01*
X147537714Y-94237000D01*
X147585333Y-94284619D01*
X147918666Y-94189380D02*
X148537714Y-94189380D01*
X148204380Y-94570333D01*
X148347238Y-94570333D01*
X148442476Y-94617952D01*
X148490095Y-94665571D01*
X148537714Y-94760809D01*
X148537714Y-94998904D01*
X148490095Y-95094142D01*
X148442476Y-95141761D01*
X148347238Y-95189380D01*
X148061523Y-95189380D01*
X147966285Y-95141761D01*
X147918666Y-95094142D01*
%TO.C,J3*%
X225650666Y-62566380D02*
X225650666Y-63280666D01*
X225603047Y-63423523D01*
X225507809Y-63518761D01*
X225364952Y-63566380D01*
X225269714Y-63566380D01*
X226031619Y-62566380D02*
X226650666Y-62566380D01*
X226317333Y-62947333D01*
X226460190Y-62947333D01*
X226555428Y-62994952D01*
X226603047Y-63042571D01*
X226650666Y-63137809D01*
X226650666Y-63375904D01*
X226603047Y-63471142D01*
X226555428Y-63518761D01*
X226460190Y-63566380D01*
X226174476Y-63566380D01*
X226079238Y-63518761D01*
X226031619Y-63471142D01*
%TO.C,J1*%
X116167880Y-70051333D02*
X116882166Y-70051333D01*
X117025023Y-70098952D01*
X117120261Y-70194190D01*
X117167880Y-70337047D01*
X117167880Y-70432285D01*
X117167880Y-69051333D02*
X117167880Y-69622761D01*
X117167880Y-69337047D02*
X116167880Y-69337047D01*
X116310738Y-69432285D01*
X116405976Y-69527523D01*
X116453595Y-69622761D01*
%TO.C,Q2*%
X186202261Y-89569619D02*
X186107023Y-89522000D01*
X186011785Y-89426761D01*
X185868928Y-89283904D01*
X185773690Y-89236285D01*
X185678452Y-89236285D01*
X185726071Y-89474380D02*
X185630833Y-89426761D01*
X185535595Y-89331523D01*
X185487976Y-89141047D01*
X185487976Y-88807714D01*
X185535595Y-88617238D01*
X185630833Y-88522000D01*
X185726071Y-88474380D01*
X185916547Y-88474380D01*
X186011785Y-88522000D01*
X186107023Y-88617238D01*
X186154642Y-88807714D01*
X186154642Y-89141047D01*
X186107023Y-89331523D01*
X186011785Y-89426761D01*
X185916547Y-89474380D01*
X185726071Y-89474380D01*
X186535595Y-88569619D02*
X186583214Y-88522000D01*
X186678452Y-88474380D01*
X186916547Y-88474380D01*
X187011785Y-88522000D01*
X187059404Y-88569619D01*
X187107023Y-88664857D01*
X187107023Y-88760095D01*
X187059404Y-88902952D01*
X186487976Y-89474380D01*
X187107023Y-89474380D01*
%TO.C,Q1*%
X186202261Y-62899619D02*
X186107023Y-62852000D01*
X186011785Y-62756761D01*
X185868928Y-62613904D01*
X185773690Y-62566285D01*
X185678452Y-62566285D01*
X185726071Y-62804380D02*
X185630833Y-62756761D01*
X185535595Y-62661523D01*
X185487976Y-62471047D01*
X185487976Y-62137714D01*
X185535595Y-61947238D01*
X185630833Y-61852000D01*
X185726071Y-61804380D01*
X185916547Y-61804380D01*
X186011785Y-61852000D01*
X186107023Y-61947238D01*
X186154642Y-62137714D01*
X186154642Y-62471047D01*
X186107023Y-62661523D01*
X186011785Y-62756761D01*
X185916547Y-62804380D01*
X185726071Y-62804380D01*
X187107023Y-62804380D02*
X186535595Y-62804380D01*
X186821309Y-62804380D02*
X186821309Y-61804380D01*
X186726071Y-61947238D01*
X186630833Y-62042476D01*
X186535595Y-62090095D01*
%TO.C,C8*%
X144299142Y-109291666D02*
X144346761Y-109339285D01*
X144394380Y-109482142D01*
X144394380Y-109577380D01*
X144346761Y-109720238D01*
X144251523Y-109815476D01*
X144156285Y-109863095D01*
X143965809Y-109910714D01*
X143822952Y-109910714D01*
X143632476Y-109863095D01*
X143537238Y-109815476D01*
X143442000Y-109720238D01*
X143394380Y-109577380D01*
X143394380Y-109482142D01*
X143442000Y-109339285D01*
X143489619Y-109291666D01*
X143822952Y-108720238D02*
X143775333Y-108815476D01*
X143727714Y-108863095D01*
X143632476Y-108910714D01*
X143584857Y-108910714D01*
X143489619Y-108863095D01*
X143442000Y-108815476D01*
X143394380Y-108720238D01*
X143394380Y-108529761D01*
X143442000Y-108434523D01*
X143489619Y-108386904D01*
X143584857Y-108339285D01*
X143632476Y-108339285D01*
X143727714Y-108386904D01*
X143775333Y-108434523D01*
X143822952Y-108529761D01*
X143822952Y-108720238D01*
X143870571Y-108815476D01*
X143918190Y-108863095D01*
X144013428Y-108910714D01*
X144203904Y-108910714D01*
X144299142Y-108863095D01*
X144346761Y-108815476D01*
X144394380Y-108720238D01*
X144394380Y-108529761D01*
X144346761Y-108434523D01*
X144299142Y-108386904D01*
X144203904Y-108339285D01*
X144013428Y-108339285D01*
X143918190Y-108386904D01*
X143870571Y-108434523D01*
X143822952Y-108529761D01*
D13*
%TO.C,D2*%
X211731000Y-51286000D02*
X202391000Y-51286000D01*
X207061000Y-62511000D02*
X207061000Y-59021000D01*
X202391000Y-49681000D02*
X202391000Y-59021000D01*
X211731000Y-59021000D02*
X211731000Y-49681000D01*
X202391000Y-59021000D02*
X211731000Y-59021000D01*
X211731000Y-51046000D02*
X202391000Y-51046000D01*
X211731000Y-49681000D02*
X202391000Y-49681000D01*
X211731000Y-51166000D02*
X202391000Y-51166000D01*
X207061000Y-46191000D02*
X207061000Y-49681000D01*
%TO.C,D3*%
X211731000Y-77829000D02*
X202391000Y-77829000D01*
X207061000Y-89054000D02*
X207061000Y-85564000D01*
X202391000Y-76224000D02*
X202391000Y-85564000D01*
X211731000Y-85564000D02*
X211731000Y-76224000D01*
X202391000Y-85564000D02*
X211731000Y-85564000D01*
X211731000Y-77589000D02*
X202391000Y-77589000D01*
X211731000Y-76224000D02*
X202391000Y-76224000D01*
X211731000Y-77709000D02*
X202391000Y-77709000D01*
X207061000Y-72734000D02*
X207061000Y-76224000D01*
%TO.C,C5*%
X154596420Y-85976000D02*
X154877580Y-85976000D01*
X154596420Y-84956000D02*
X154877580Y-84956000D01*
%TO.C,X1*%
X142657000Y-116541000D02*
X142657000Y-110291000D01*
X137607000Y-116541000D02*
X137607000Y-110291000D01*
X137607000Y-116541000D02*
G75*
G03*
X142657000Y-116541000I2525000J0D01*
G01*
X142657000Y-110291000D02*
G75*
G03*
X137607000Y-110291000I-2525000J0D01*
G01*
%TO.C,C2*%
X119544420Y-115309000D02*
X119825580Y-115309000D01*
X119544420Y-116329000D02*
X119825580Y-116329000D01*
D11*
%TO.C,HeatSink1*%
X190614500Y-88514000D02*
X200114500Y-88514000D01*
X165114500Y-75814000D02*
X165114500Y-88514000D01*
X190614500Y-81379000D02*
X174614500Y-81379000D01*
X174614500Y-88514000D02*
X165114500Y-88514000D01*
X174614500Y-75814000D02*
X165114500Y-75814000D01*
X174614500Y-75814000D02*
X174614500Y-81379000D01*
X200114500Y-75814000D02*
X200114500Y-88514000D01*
X190614500Y-82949000D02*
X174614500Y-82949000D01*
X174614500Y-88514000D02*
X174614500Y-82949000D01*
X190614500Y-88514000D02*
X190614500Y-82949000D01*
X190614500Y-75814000D02*
X200114500Y-75814000D01*
X190614500Y-75814000D02*
X190614500Y-81379000D01*
D13*
%TO.C,L1*%
X138760000Y-102536000D02*
X145060000Y-102536000D01*
X138760000Y-96336000D02*
X145060000Y-96336000D01*
%TO.C,R1*%
X120334500Y-112246258D02*
X120334500Y-111771742D01*
X119289500Y-112246258D02*
X119289500Y-111771742D01*
%TO.C,A1*%
X176582000Y-109586000D02*
X174042000Y-109586000D01*
X214812000Y-112256000D02*
X214812000Y-94216000D01*
X171372000Y-112256000D02*
X174042000Y-112256000D01*
X171372000Y-94216000D02*
X171372000Y-112256000D01*
X174042000Y-96886000D02*
X212142000Y-96886000D01*
X176582000Y-109586000D02*
X212142000Y-109586000D01*
X176582000Y-109586000D02*
X176582000Y-112256000D01*
X214812000Y-94216000D02*
X171372000Y-94216000D01*
X176582000Y-112256000D02*
X214812000Y-112256000D01*
X174042000Y-109586000D02*
X174042000Y-112256000D01*
X212142000Y-109586000D02*
X212142000Y-112256000D01*
X212142000Y-96886000D02*
X212142000Y-94216000D01*
X174042000Y-96886000D02*
X174042000Y-94216000D01*
D11*
%TO.C,J2*%
X100355000Y-98547000D02*
X100355000Y-111247000D01*
X100355000Y-111247000D02*
X112855000Y-111247000D01*
X100355000Y-98547000D02*
X112855000Y-98547000D01*
X112855000Y-98547000D02*
X112855000Y-111247000D01*
D13*
%TO.C,U3*%
X157785000Y-86843000D02*
X159735000Y-86843000D01*
X157785000Y-91963000D02*
X155835000Y-91963000D01*
X157785000Y-86843000D02*
X154335000Y-86843000D01*
X157785000Y-91963000D02*
X159735000Y-91963000D01*
%TO.C,K1*%
X150925000Y-49676000D02*
X155925000Y-49676000D01*
X156925000Y-54876000D02*
X150025000Y-54876000D01*
X155925000Y-52676000D02*
X150925000Y-52676000D01*
X160025000Y-47994000D02*
X160025000Y-50294000D01*
X162125000Y-57476000D02*
X145925000Y-57476000D01*
X158425000Y-51176000D02*
X160125000Y-51804000D01*
X156925000Y-51176000D02*
X156925000Y-54876000D01*
X156925000Y-51176000D02*
X158425000Y-51176000D01*
X162125000Y-44876000D02*
X162125000Y-57476000D01*
X150025000Y-51176000D02*
X149125000Y-51176000D01*
X150925000Y-52676000D02*
X150925000Y-49676000D01*
X153425000Y-45176000D02*
X153425000Y-49676000D01*
X153425000Y-52676000D02*
X153425000Y-57176000D01*
X155925000Y-49676000D02*
X155925000Y-52676000D01*
X151125000Y-57176000D02*
X153425000Y-57176000D01*
X145925000Y-44876000D02*
X162125000Y-44876000D01*
X153425000Y-45176000D02*
X151125000Y-45176000D01*
X155925000Y-52676000D02*
X150925000Y-49676000D01*
X145925000Y-44876000D02*
X145925000Y-49976000D01*
X150025000Y-51176000D02*
X150025000Y-54876000D01*
X145925000Y-52376000D02*
X145925000Y-57476000D01*
X160125000Y-54104000D02*
X160125000Y-51804000D01*
%TO.C,R4*%
X156275500Y-100087742D02*
X156275500Y-100562258D01*
X155230500Y-100087742D02*
X155230500Y-100562258D01*
%TO.C,C6*%
X157914000Y-96755420D02*
X157914000Y-97036580D01*
X156894000Y-96755420D02*
X156894000Y-97036580D01*
%TO.C,R2*%
X160437500Y-108088742D02*
X160437500Y-108563258D01*
X161482500Y-108088742D02*
X161482500Y-108563258D01*
%TO.C,FH1*%
X123020000Y-55169000D02*
X143020000Y-55169000D01*
X123020000Y-55169000D02*
X123020000Y-62169000D01*
X123020000Y-62169000D02*
X143020000Y-62169000D01*
X143020000Y-62169000D02*
X143020000Y-55169000D01*
%TO.C,K2*%
X150406000Y-76576000D02*
X150406000Y-80276000D01*
X151306000Y-75076000D02*
X156306000Y-75076000D01*
X153806000Y-70576000D02*
X153806000Y-75076000D01*
X151506000Y-82576000D02*
X153806000Y-82576000D01*
X157306000Y-76576000D02*
X158806000Y-76576000D01*
X153806000Y-70576000D02*
X151506000Y-70576000D01*
X160406000Y-73394000D02*
X160406000Y-75694000D01*
X146306000Y-70276000D02*
X146306000Y-75376000D01*
X151306000Y-78076000D02*
X151306000Y-75076000D01*
X150406000Y-76576000D02*
X149506000Y-76576000D01*
X156306000Y-78076000D02*
X151306000Y-78076000D01*
X153806000Y-78076000D02*
X153806000Y-82576000D01*
X162506000Y-82876000D02*
X146306000Y-82876000D01*
X160506000Y-79504000D02*
X160506000Y-77204000D01*
X158806000Y-76576000D02*
X160506000Y-77204000D01*
X162506000Y-70276000D02*
X162506000Y-82876000D01*
X146306000Y-77776000D02*
X146306000Y-82876000D01*
X146306000Y-70276000D02*
X162506000Y-70276000D01*
X157306000Y-80276000D02*
X150406000Y-80276000D01*
X157306000Y-76576000D02*
X157306000Y-80276000D01*
X156306000Y-75076000D02*
X156306000Y-78076000D01*
X156306000Y-78076000D02*
X151306000Y-75076000D01*
%TO.C,U2*%
X132737000Y-93780000D02*
X131637000Y-93780000D01*
X132737000Y-84330000D02*
X132737000Y-85280000D01*
X132737000Y-85280000D02*
X127612000Y-85280000D01*
X134237000Y-84330000D02*
X132737000Y-84330000D01*
X134237000Y-94730000D02*
X132737000Y-94730000D01*
X132737000Y-94730000D02*
X132737000Y-93780000D01*
D11*
%TO.C,J4*%
X227407000Y-87879000D02*
X214907000Y-87879000D01*
X227407000Y-87879000D02*
X227407000Y-75179000D01*
X227407000Y-75179000D02*
X214907000Y-75179000D01*
X214907000Y-87879000D02*
X214907000Y-75179000D01*
D13*
%TO.C,C9*%
X144452000Y-115234580D02*
X144452000Y-114953420D01*
X143432000Y-115234580D02*
X143432000Y-114953420D01*
%TO.C,U4*%
X153340000Y-118656000D02*
X157200000Y-118656000D01*
X153340000Y-106886000D02*
X149480000Y-106886000D01*
X149480000Y-107131000D02*
X147665000Y-107131000D01*
X149480000Y-118656000D02*
X149480000Y-118411000D01*
X157200000Y-106886000D02*
X157200000Y-107131000D01*
X153340000Y-118656000D02*
X149480000Y-118656000D01*
X149480000Y-106886000D02*
X149480000Y-107131000D01*
X157200000Y-118656000D02*
X157200000Y-118411000D01*
X153340000Y-106886000D02*
X157200000Y-106886000D01*
%TO.C,R3*%
X155230500Y-96658742D02*
X155230500Y-97133258D01*
X156275500Y-96658742D02*
X156275500Y-97133258D01*
%TO.C,U1*%
X127686000Y-116694000D02*
X124266000Y-116694000D01*
X131106000Y-107324000D02*
X131106000Y-107614000D01*
X124266000Y-107324000D02*
X124266000Y-107614000D01*
X131106000Y-116694000D02*
X131106000Y-116404000D01*
X127686000Y-116694000D02*
X131106000Y-116694000D01*
X124266000Y-116694000D02*
X124266000Y-116404000D01*
X127686000Y-107324000D02*
X131106000Y-107324000D01*
X127686000Y-107324000D02*
X124266000Y-107324000D01*
X131106000Y-116404000D02*
X133386000Y-116404000D01*
%TO.C,FH2*%
X103716000Y-93792000D02*
X123716000Y-93792000D01*
X103716000Y-86792000D02*
X123716000Y-86792000D01*
X123716000Y-93792000D02*
X123716000Y-86792000D01*
X103716000Y-86792000D02*
X103716000Y-93792000D01*
%TO.C,C1*%
X134040563Y-81060500D02*
X131355000Y-81060500D01*
X125649437Y-81060500D02*
X124585000Y-79996063D01*
X127085000Y-82550500D02*
X127085000Y-81300500D01*
X124585000Y-70540500D02*
X128335000Y-70540500D01*
X125649437Y-81060500D02*
X128335000Y-81060500D01*
X126460000Y-81925500D02*
X127710000Y-81925500D01*
X135105000Y-70540500D02*
X131355000Y-70540500D01*
X135105000Y-79996063D02*
X135105000Y-70540500D01*
X134040563Y-81060500D02*
X135105000Y-79996063D01*
X124585000Y-79996063D02*
X124585000Y-70540500D01*
%TO.C,D1*%
X132704000Y-99309000D02*
X131794000Y-99309000D01*
X131794000Y-96589000D02*
X122054000Y-96589000D01*
X131794000Y-102029000D02*
X131794000Y-96589000D01*
X130249000Y-102029000D02*
X130249000Y-96589000D01*
X122054000Y-102029000D02*
X131794000Y-102029000D01*
X130129000Y-102029000D02*
X130129000Y-96589000D01*
X122054000Y-96589000D02*
X122054000Y-102029000D01*
X121144000Y-99309000D02*
X122054000Y-99309000D01*
X130369000Y-102029000D02*
X130369000Y-96589000D01*
%TO.C,C4*%
X157009420Y-105276000D02*
X157290580Y-105276000D01*
X157009420Y-106296000D02*
X157290580Y-106296000D01*
%TO.C,C7*%
X163248000Y-90659420D02*
X163248000Y-90940580D01*
X162228000Y-90659420D02*
X162228000Y-90940580D01*
D11*
%TO.C,HeatSink2*%
X164860500Y-49144000D02*
X164860500Y-61844000D01*
X174360500Y-61844000D02*
X174360500Y-56279000D01*
X190360500Y-61844000D02*
X190360500Y-56279000D01*
X190360500Y-54709000D02*
X174360500Y-54709000D01*
X174360500Y-61844000D02*
X164860500Y-61844000D01*
X199860500Y-49144000D02*
X199860500Y-61844000D01*
X190360500Y-49144000D02*
X199860500Y-49144000D01*
X190360500Y-49144000D02*
X190360500Y-54709000D01*
X174360500Y-49144000D02*
X164860500Y-49144000D01*
X174360500Y-49144000D02*
X174360500Y-54709000D01*
X190360500Y-56279000D02*
X174360500Y-56279000D01*
X190360500Y-61844000D02*
X199860500Y-61844000D01*
D13*
%TO.C,C3*%
X152520500Y-94363500D02*
X152520500Y-95151000D01*
X147263000Y-96455437D02*
X147263000Y-102211000D01*
X147263000Y-102211000D02*
X149613000Y-102211000D01*
X154083000Y-102211000D02*
X151733000Y-102211000D01*
X148327437Y-95391000D02*
X147263000Y-96455437D01*
X153018563Y-95391000D02*
X151733000Y-95391000D01*
X153018563Y-95391000D02*
X154083000Y-96455437D01*
X154083000Y-96455437D02*
X154083000Y-102211000D01*
X148327437Y-95391000D02*
X149613000Y-95391000D01*
X152914250Y-94757250D02*
X152126750Y-94757250D01*
D11*
%TO.C,J3*%
X227027000Y-62225000D02*
X227027000Y-49525000D01*
X227027000Y-49525000D02*
X214527000Y-49525000D01*
X227027000Y-62225000D02*
X214527000Y-62225000D01*
X214527000Y-62225000D02*
X214527000Y-49525000D01*
%TO.C,J1*%
X100315500Y-54224000D02*
X100315500Y-84704000D01*
X119015500Y-84704000D02*
X100315500Y-84704000D01*
X119015500Y-54224000D02*
X119015500Y-84704000D01*
X119015500Y-54224000D02*
X100315500Y-54224000D01*
D13*
%TO.C,Q2*%
X187607500Y-83268000D02*
X187607500Y-87909000D01*
X177367500Y-83268000D02*
X187607500Y-83268000D01*
X177367500Y-87909000D02*
X187607500Y-87909000D01*
X180637500Y-83268000D02*
X180637500Y-84778000D01*
X184338500Y-83268000D02*
X184338500Y-84778000D01*
X177367500Y-84778000D02*
X187607500Y-84778000D01*
X177367500Y-83268000D02*
X177367500Y-87909000D01*
%TO.C,Q1*%
X187480500Y-56598000D02*
X187480500Y-61239000D01*
X177240500Y-61239000D02*
X187480500Y-61239000D01*
X184211500Y-56598000D02*
X184211500Y-58108000D01*
X177240500Y-56598000D02*
X177240500Y-61239000D01*
X177240500Y-56598000D02*
X187480500Y-56598000D01*
X177240500Y-58108000D02*
X187480500Y-58108000D01*
X180510500Y-56598000D02*
X180510500Y-58108000D01*
%TO.C,C8*%
X144452000Y-111651420D02*
X144452000Y-111932580D01*
X143432000Y-111651420D02*
X143432000Y-111932580D01*
%TD*%
M02*
