M48
; DRILL file {KiCad (6.0.6)} date Wed Nov 23 05:32:44 2022
; FORMAT={-:-/ absolute / inch / decimal}
; #@! TF.CreationDate,2022-11-23T05:32:44-08:00
; #@! TF.GenerationSoftware,Kicad,Pcbnew,(6.0.6)
; #@! TF.FileFunction,MixedPlating,1,2
FMAT,2
INCH
; #@! TA.AperFunction,Plated,PTH,ViaDrill
T1C0.0157
; #@! TA.AperFunction,Plated,PTH,ComponentDrill
T2C0.0315
; #@! TA.AperFunction,Plated,PTH,ComponentDrill
T3C0.0394
; #@! TA.AperFunction,Plated,PTH,ComponentDrill
T4C0.0433
; #@! TA.AperFunction,Plated,PTH,ComponentDrill
T5C0.0512
; #@! TA.AperFunction,Plated,PTH,ComponentDrill
T6C0.0591
; #@! TA.AperFunction,Plated,PTH,ComponentDrill
T7C0.0630
; #@! TA.AperFunction,Plated,PTH,ComponentDrill
T8C0.0709
; #@! TA.AperFunction,Plated,PTH,ComponentDrill
T9C0.0945
; #@! TA.AperFunction,Plated,PTH,ComponentDrill
T10C0.1063
; #@! TA.AperFunction,Plated,PTH,ComponentDrill
T11C0.1693
%
G90
G05
T1
X3.987Y-4.4348
X3.992Y-1.8898
X4.022Y-3.5048
X4.027Y-3.7048
X4.027Y-3.9898
X4.027Y-4.2848
X4.037Y-2.2548
X4.037Y-2.3748
X4.037Y-2.4748
X4.042Y-2.1198
X4.112Y-2.5248
X4.137Y-2.0498
X4.232Y-2.5248
X4.237Y-1.6298
X4.247Y-2.0498
X4.272Y-4.6548
X4.357Y-1.7198
X4.362Y-2.0498
X4.367Y-1.9148
X4.372Y-2.5248
X4.422Y-4.3398
X4.422Y-4.4448
X4.482Y-2.0498
X4.482Y-2.5298
X4.497Y-4.5198
X4.562Y-1.6948
X4.567Y-1.9148
X4.602Y-2.0498
X4.612Y-2.5298
X4.612Y-4.5298
X4.612Y-4.6498
X4.652Y-4.2698
X4.707Y-2.0498
X4.747Y-2.8548
X4.752Y-2.5298
X4.752Y-3.0198
X4.757Y-3.2448
X4.762Y-4.6598
X4.787Y-1.9198
X4.792Y-1.7148
X4.807Y-2.6398
X4.817Y-2.0498
X4.882Y-2.5298
X4.912Y-4.6598
X4.942Y-2.6398
X4.962Y-2.0448
X4.967Y-3.5448
X4.967Y-4.4848
X4.972Y-4.3698
X4.977Y-4.2498
X4.987Y-3.2748
X5.022Y-2.5298
X5.037Y-4.6598
X5.042Y-4.0998
X5.052Y-1.7048
X5.052Y-1.9298
X5.052Y-3.7348
X5.077Y-3.8048
X5.097Y-2.0998
X5.102Y-2.2198
X5.102Y-2.3298
X5.107Y-2.4548
X5.117Y-2.6298
X5.132Y-3.7248
X5.172Y-3.9948
X5.172Y-4.6598
X5.212Y-3.2748
X5.232Y-2.0748
X5.232Y-2.2548
X5.232Y-2.4248
X5.247Y-2.8298
X5.257Y-3.0198
X5.272Y-2.6198
X5.312Y-1.9248
X5.327Y-4.5448
X5.327Y-4.6598
X5.332Y-1.6948
X5.367Y-2.0448
X5.367Y-2.1598
X5.367Y-2.2848
X5.367Y-2.4048
X5.372Y-2.5248
X5.372Y-2.6398
X5.372Y-2.7598
X5.372Y-2.8748
X5.372Y-2.9898
X5.397Y-4.0298
X5.447Y-1.9348
X5.457Y-3.1048
X5.567Y-1.9348
X5.572Y-1.6848
X5.582Y-3.1048
X5.697Y-4.6698
X5.712Y-3.3948
X5.712Y-4.1098
X5.717Y-1.9348
X5.732Y-3.1048
X5.742Y-2.1948
X5.747Y-2.3248
X5.747Y-2.4498
X5.752Y-2.5598
X5.752Y-2.6698
X5.757Y-2.7798
X5.762Y-2.9098
X5.767Y-3.7148
X5.772Y-3.8998
X5.787Y-2.0998
X5.787Y-3.4798
X5.812Y-3.2248
X5.817Y-4.1648
X5.837Y-2.4298
X5.867Y-2.3398
X5.877Y-3.0848
X5.882Y-3.6548
X5.897Y-3.5198
X5.917Y-3.3348
X5.962Y-3.6148
X5.967Y-1.6848
X5.977Y-1.9148
X5.977Y-2.9248
X5.982Y-2.2948
X5.987Y-4.2948
X5.992Y-4.4298
X5.997Y-2.6948
X5.997Y-4.5798
X6.007Y-2.5098
X6.022Y-4.1748
X6.077Y-3.8498
X6.102Y-4.2948
X6.102Y-4.4248
X6.107Y-4.5748
X6.112Y-2.4448
X6.112Y-2.8198
X6.127Y-2.6448
X6.127Y-4.0998
X6.152Y-2.1198
X6.162Y-2.2898
X6.197Y-1.9548
X6.197Y-3.7248
X6.207Y-3.5998
X6.207Y-4.0148
X6.212Y-3.5198
X6.257Y-2.5548
X6.282Y-4.1148
X6.322Y-3.9098
X6.332Y-4.0198
X6.337Y-4.6198
X6.342Y-1.9948
X6.357Y-1.6798
X6.362Y-4.1748
X6.372Y-3.0348
X6.372Y-3.6598
X6.412Y-4.2698
X6.422Y-2.5548
X6.432Y-1.8398
X6.432Y-3.9298
X6.437Y-2.3998
X6.447Y-2.2198
X6.447Y-2.7598
X6.447Y-2.9248
X6.452Y-1.6798
X6.462Y-4.6698
X6.472Y-1.9948
X6.477Y-3.4798
X6.497Y-3.6098
X6.527Y-1.8398
X6.537Y-4.2748
X6.542Y-1.6798
X6.547Y-3.9298
X6.547Y-4.6148
X6.567Y-2.7598
X6.567Y-2.9248
X6.597Y-2.5448
X6.612Y-3.6098
X6.617Y-1.8398
X6.632Y-1.6798
X6.677Y-3.9298
X6.687Y-2.7598
X6.687Y-2.9248
X6.707Y-1.8398
X6.707Y-4.3398
X6.717Y-1.6798
X6.732Y-3.6148
X6.787Y-2.5548
X6.787Y-2.7598
X6.787Y-2.9248
X6.792Y-1.8398
X6.807Y-1.6798
X6.807Y-4.4198
X6.847Y-3.6148
X6.852Y-3.9398
X6.882Y-1.8398
X6.887Y-1.6798
X6.892Y-2.7598
X6.892Y-2.9248
X6.907Y-2.4048
X6.917Y-1.9748
X6.917Y-3.3198
X6.922Y-3.4548
X6.937Y-3.0348
X6.962Y-1.8398
X6.967Y-3.6148
X6.972Y-1.6798
X6.992Y-2.5448
X6.992Y-3.4848
X6.997Y-2.7598
X6.997Y-2.9248
X7.022Y-3.9448
X7.047Y-1.8398
X7.067Y-1.6798
X7.072Y-3.6098
X7.117Y-2.7598
X7.117Y-2.9248
X7.142Y-1.6798
X7.142Y-1.8398
X7.152Y-2.4448
X7.152Y-3.0348
X7.157Y-2.5498
X7.157Y-3.4848
X7.157Y-3.5648
X7.187Y-3.9398
X7.217Y-1.8398
X7.217Y-3.6548
X7.222Y-2.6298
X7.232Y-2.7598
X7.232Y-2.9248
X7.232Y-3.4798
X7.237Y-1.6798
X7.237Y-2.4698
X7.307Y-3.5098
X7.312Y-1.8398
X7.317Y-2.6298
X7.317Y-3.0348
X7.322Y-3.6548
X7.327Y-1.6798
X7.332Y-2.4798
X7.347Y-2.7598
X7.347Y-2.9248
X7.362Y-3.9498
X7.377Y-4.4398
X7.392Y-3.5098
X7.402Y-1.8398
X7.412Y-2.6298
X7.412Y-3.6548
X7.417Y-1.6798
X7.422Y-2.4798
X7.447Y-2.3948
X7.462Y-3.3048
X7.467Y-2.7598
X7.467Y-2.9248
X7.467Y-3.0348
X7.467Y-3.4348
X7.472Y-1.9798
X7.482Y-3.5098
X7.492Y-1.8398
X7.502Y-1.6798
X7.507Y-2.6298
X7.512Y-3.6548
X7.522Y-2.4798
X7.542Y-3.9498
X7.552Y-4.4348
X7.577Y-1.8398
X7.587Y-2.7598
X7.587Y-2.9248
X7.587Y-3.5048
X7.592Y-1.6798
X7.607Y-2.6298
X7.607Y-3.6498
X7.627Y-2.4798
X7.667Y-1.8398
X7.672Y-1.6798
X7.687Y-3.6498
X7.692Y-3.9498
X7.697Y-3.5048
X7.707Y-2.7598
X7.707Y-2.9248
X7.717Y-2.6298
X7.737Y-2.4798
X7.747Y-1.8398
X7.752Y-4.4348
X7.757Y-1.6798
X7.787Y-3.6498
X7.802Y-3.5048
X7.827Y-2.7598
X7.827Y-2.9248
X7.832Y-1.8398
X7.832Y-2.6298
X7.837Y-2.4798
X7.852Y-1.6798
X7.867Y-3.9498
X7.887Y-3.6498
X7.912Y-3.5048
X7.922Y-3.2298
X7.922Y-3.3798
X7.927Y-1.8398
X7.927Y-3.0498
X7.932Y-2.6298
X7.937Y-4.2198
X7.942Y-4.0498
X7.947Y-4.4348
X7.952Y-1.9998
X7.952Y-2.7598
X7.952Y-2.9248
X7.957Y-2.3848
X7.957Y-2.4798
X7.987Y-1.6698
X7.997Y-2.2248
X7.997Y-4.5398
X8.007Y-3.6498
X8.027Y-3.5048
X8.032Y-1.9098
X8.032Y-3.4098
X8.047Y-2.6298
X8.052Y-2.4498
X8.062Y-2.0098
X8.062Y-2.1348
X8.062Y-2.9198
X8.062Y-3.8598
X8.062Y-4.0048
X8.067Y-2.3598
X8.067Y-3.0348
X8.067Y-4.1448
X8.077Y-4.2698
X8.087Y-2.2698
X8.097Y-3.1948
X8.117Y-3.4598
X8.132Y-3.3448
X8.142Y-1.6448
X8.147Y-2.9798
X8.152Y-3.0898
X8.157Y-2.1798
X8.172Y-3.2648
X8.177Y-2.2698
X8.197Y-4.2648
X8.217Y-3.1498
X8.237Y-2.6248
X8.237Y-3.8998
X8.237Y-4.0598
X8.242Y-3.6498
X8.252Y-2.7148
X8.272Y-2.2698
X8.272Y-3.2598
X8.277Y-2.1798
X8.292Y-1.6448
X8.312Y-4.1398
X8.312Y-4.2648
X8.327Y-3.1498
X8.357Y-3.6498
X8.362Y-2.7148
X8.362Y-3.9548
X8.367Y-4.6498
X8.377Y-2.6248
X8.382Y-3.2598
X8.387Y-2.2698
X8.397Y-3.7498
X8.412Y-2.1798
X8.442Y-4.0898
X8.442Y-4.2948
X8.452Y-3.1498
X8.452Y-4.5348
X8.467Y-3.6498
X8.472Y-1.6448
X8.472Y-2.7148
X8.512Y-2.6248
X8.512Y-3.2598
X8.517Y-2.2698
X8.532Y-3.7448
X8.542Y-4.6448
X8.547Y-2.1798
X8.577Y-3.1498
X8.582Y-3.6448
X8.597Y-2.7148
X8.617Y-1.6448
X8.667Y-2.6248
X8.687Y-2.1698
X8.687Y-3.6448
X8.707Y-2.7148
X8.712Y-4.6398
X8.717Y-1.7198
X8.717Y-1.8648
X8.717Y-2.0048
X8.717Y-3.7448
X8.727Y-2.2848
X8.727Y-3.4698
X8.732Y-3.5748
X8.742Y-2.4098
X8.742Y-2.5398
X8.747Y-2.7898
X8.747Y-2.9098
X8.747Y-3.0398
X8.752Y-4.4448
X8.782Y-3.2098
X8.787Y-2.2148
X8.787Y-2.6698
X8.807Y-1.8798
X8.962Y-4.1798
X8.972Y-4.3598
X8.977Y-1.9398
X8.977Y-2.1248
X8.977Y-2.7548
X8.977Y-3.4348
X8.977Y-3.8148
X8.977Y-3.9948
X8.982Y-2.3398
X8.982Y-2.5448
X8.982Y-2.9548
X8.982Y-3.6348
X8.987Y-3.1948
T2
X5.517Y-4.3691
X5.517Y-4.5613
T3
X6.902Y-3.7644
X6.902Y-4.3644
X7.002Y-3.7644
X7.002Y-4.3644
X7.102Y-3.7644
X7.102Y-4.3644
X7.202Y-3.7644
X7.202Y-4.3644
X7.302Y-3.7644
X7.302Y-4.3644
X7.402Y-3.7644
X7.402Y-4.3644
X7.502Y-3.7644
X7.502Y-4.3644
X7.602Y-3.7644
X7.602Y-4.3644
X7.702Y-3.7644
X7.702Y-4.3644
X7.802Y-3.7644
X7.802Y-4.3644
X7.902Y-3.7644
X7.902Y-4.3644
X8.002Y-3.7644
X8.002Y-4.3644
X8.102Y-3.7644
X8.102Y-4.3644
X8.202Y-3.7644
X8.202Y-4.3644
X8.302Y-3.7644
X8.302Y-4.3644
T4
X7.0795Y-2.357
X7.0845Y-3.407
X7.1795Y-2.357
X7.1845Y-3.407
X7.2795Y-2.357
X7.2845Y-3.407
T5
X5.8041Y-2.0148
X5.8191Y-3.0148
X5.9026Y-1.818
X5.9026Y-2.2117
X5.9176Y-2.818
X5.9176Y-3.2117
X6.3041Y-1.818
X6.3041Y-2.2117
X6.3191Y-2.818
X6.3191Y-3.2117
T6
X4.262Y-4.0048
X4.262Y-4.2548
X8.627Y-2.0748
X8.627Y-2.3248
X8.642Y-3.0848
X8.642Y-3.3348
T7
X4.697Y-3.9098
X5.297Y-3.9098
X8.152Y-1.7461
X8.152Y-2.5335
X8.152Y-2.7911
X8.152Y-3.5785
T8
X4.2014Y-3.4761
X4.2014Y-3.6335
X4.7526Y-3.4761
X4.7526Y-3.6335
X4.9614Y-2.2311
X4.9614Y-2.3885
X5.5126Y-2.2311
X5.5126Y-2.3885
T9
X4.1951Y-2.3348
X4.1951Y-2.7348
X4.1951Y-3.1348
X4.5951Y-2.3348
X4.5951Y-2.7348
X4.5951Y-3.1348
T10
X6.6795Y-2.1848
X6.6895Y-3.2348
X7.6795Y-2.1848
X7.6895Y-3.2348
T11
X4.0945Y-1.7323
X4.0945Y-4.5669
X8.8976Y-1.7323
X8.8976Y-4.5669
T0
M30
