%TF.GenerationSoftware,KiCad,Pcbnew,(6.0.6)*%
%TF.CreationDate,2022-11-23T05:32:29-08:00*%
%TF.ProjectId,FanSpeed_Controller,46616e53-7065-4656-945f-436f6e74726f,rev?*%
%TF.SameCoordinates,Original*%
%TF.FileFunction,Soldermask,Top*%
%TF.FilePolarity,Negative*%
%FSLAX46Y46*%
G04 Gerber Fmt 4.6, Leading zero omitted, Abs format (unit mm)*
G04 Created by KiCad (PCBNEW (6.0.6)) date 2022-11-23 05:32:29*
%MOMM*%
%LPD*%
G01*
G04 APERTURE LIST*
G04 Aperture macros list*
%AMRoundRect*
0 Rectangle with rounded corners*
0 $1 Rounding radius*
0 $2 $3 $4 $5 $6 $7 $8 $9 X,Y pos of 4 corners*
0 Add a 4 corners polygon primitive as box body*
4,1,4,$2,$3,$4,$5,$6,$7,$8,$9,$2,$3,0*
0 Add four circle primitives for the rounded corners*
1,1,$1+$1,$2,$3*
1,1,$1+$1,$4,$5*
1,1,$1+$1,$6,$7*
1,1,$1+$1,$8,$9*
0 Add four rect primitives between the rounded corners*
20,1,$1+$1,$2,$3,$4,$5,0*
20,1,$1+$1,$4,$5,$6,$7,0*
20,1,$1+$1,$6,$7,$8,$9,0*
20,1,$1+$1,$8,$9,$2,$3,0*%
G04 Aperture macros list end*
%ADD10R,3.200000X3.200000*%
%ADD11O,3.200000X3.200000*%
%ADD12RoundRect,0.225000X-0.225000X-0.250000X0.225000X-0.250000X0.225000X0.250000X-0.225000X0.250000X0*%
%ADD13C,1.500000*%
%ADD14C,5.000000*%
%ADD15R,5.000000X5.000000*%
%ADD16R,1.600000X5.700000*%
%ADD17RoundRect,0.200000X0.275000X-0.200000X0.275000X0.200000X-0.275000X0.200000X-0.275000X-0.200000X0*%
%ADD18R,1.600000X1.600000*%
%ADD19O,1.600000X1.600000*%
%ADD20R,3.000000X3.000000*%
%ADD21C,3.000000*%
%ADD22RoundRect,0.150000X-0.825000X-0.150000X0.825000X-0.150000X0.825000X0.150000X-0.825000X0.150000X0*%
%ADD23RoundRect,0.200000X-0.275000X0.200000X-0.275000X-0.200000X0.275000X-0.200000X0.275000X0.200000X0*%
%ADD24RoundRect,0.225000X-0.250000X0.225000X-0.250000X-0.225000X0.250000X-0.225000X0.250000X0.225000X0*%
%ADD25C,3.200000*%
%ADD26R,4.600000X1.100000*%
%ADD27R,9.400000X10.800000*%
%ADD28RoundRect,0.225000X0.250000X-0.225000X0.250000X0.225000X-0.250000X0.225000X-0.250000X-0.225000X0*%
%ADD29RoundRect,0.150000X-0.875000X-0.150000X0.875000X-0.150000X0.875000X0.150000X-0.875000X0.150000X0*%
%ADD30RoundRect,0.162500X1.012500X0.162500X-1.012500X0.162500X-1.012500X-0.162500X1.012500X-0.162500X0*%
%ADD31RoundRect,0.250000X1.000000X-1.750000X1.000000X1.750000X-1.000000X1.750000X-1.000000X-1.750000X0*%
%ADD32RoundRect,0.250000X-0.550000X1.500000X-0.550000X-1.500000X0.550000X-1.500000X0.550000X1.500000X0*%
%ADD33R,1.905000X2.000000*%
%ADD34O,1.905000X2.000000*%
%ADD35C,6.000000*%
G04 APERTURE END LIST*
D10*
%TO.C,D2*%
X207061000Y-44351000D03*
D11*
X207061000Y-64351000D03*
%TD*%
D10*
%TO.C,D3*%
X207061000Y-70894000D03*
D11*
X207061000Y-90894000D03*
%TD*%
D12*
%TO.C,C5*%
X153962000Y-85466000D03*
X155512000Y-85466000D03*
%TD*%
D13*
%TO.C,X1*%
X140132000Y-115856000D03*
X140132000Y-110976000D03*
%TD*%
D12*
%TO.C,C2*%
X118910000Y-115819000D03*
X120460000Y-115819000D03*
%TD*%
D14*
%TO.C,HeatSink1*%
X195314500Y-82164000D03*
D15*
X169914500Y-82164000D03*
%TD*%
D16*
%TO.C,L1*%
X139560000Y-99436000D03*
X144260000Y-99436000D03*
%TD*%
D17*
%TO.C,R1*%
X119812000Y-112834000D03*
X119812000Y-111184000D03*
%TD*%
D18*
%TO.C,A1*%
X175312000Y-110856000D03*
D19*
X177852000Y-110856000D03*
X180392000Y-110856000D03*
X182932000Y-110856000D03*
X185472000Y-110856000D03*
X188012000Y-110856000D03*
X190552000Y-110856000D03*
X193092000Y-110856000D03*
X195632000Y-110856000D03*
X198172000Y-110856000D03*
X200712000Y-110856000D03*
X203252000Y-110856000D03*
X205792000Y-110856000D03*
X208332000Y-110856000D03*
X210872000Y-110856000D03*
X210872000Y-95616000D03*
X208332000Y-95616000D03*
X205792000Y-95616000D03*
X203252000Y-95616000D03*
X200712000Y-95616000D03*
X198172000Y-95616000D03*
X195632000Y-95616000D03*
X193092000Y-95616000D03*
X190552000Y-95616000D03*
X188012000Y-95616000D03*
X185472000Y-95616000D03*
X182932000Y-95616000D03*
X180392000Y-95616000D03*
X177852000Y-95616000D03*
X175312000Y-95616000D03*
%TD*%
D20*
%TO.C,J2*%
X108255000Y-101722000D03*
D21*
X108255000Y-108072000D03*
%TD*%
D22*
%TO.C,U3*%
X155310000Y-87498000D03*
X155310000Y-88768000D03*
X155310000Y-90038000D03*
X155310000Y-91308000D03*
X160260000Y-91308000D03*
X160260000Y-90038000D03*
X160260000Y-88768000D03*
X160260000Y-87498000D03*
%TD*%
D21*
%TO.C,K1*%
X160125000Y-46176000D03*
X160125000Y-56176000D03*
X149925000Y-56176000D03*
X149925000Y-46176000D03*
X147425000Y-51176000D03*
%TD*%
D23*
%TO.C,R4*%
X155753000Y-99500000D03*
X155753000Y-101150000D03*
%TD*%
D24*
%TO.C,C6*%
X157404000Y-96121000D03*
X157404000Y-97671000D03*
%TD*%
D23*
%TO.C,R2*%
X160960000Y-107501000D03*
X160960000Y-109151000D03*
%TD*%
D10*
%TO.C,FH1*%
X126020000Y-56669000D03*
D25*
X126020000Y-60669000D03*
X140020000Y-60669000D03*
X140020000Y-56669000D03*
%TD*%
D21*
%TO.C,K2*%
X160506000Y-71576000D03*
X160506000Y-81576000D03*
X150306000Y-81576000D03*
X150306000Y-71576000D03*
X147806000Y-76576000D03*
%TD*%
D26*
%TO.C,U2*%
X129912000Y-86130000D03*
X129912000Y-87830000D03*
X129912000Y-89530000D03*
D27*
X139062000Y-89530000D03*
D26*
X129912000Y-91230000D03*
X129912000Y-92930000D03*
%TD*%
D20*
%TO.C,J4*%
X219507000Y-84704000D03*
D21*
X219507000Y-78354000D03*
%TD*%
D28*
%TO.C,C9*%
X143942000Y-115869000D03*
X143942000Y-114319000D03*
%TD*%
D29*
%TO.C,U4*%
X148690000Y-107691000D03*
X148690000Y-108961000D03*
X148690000Y-110231000D03*
X148690000Y-111501000D03*
X148690000Y-112771000D03*
X148690000Y-114041000D03*
X148690000Y-115311000D03*
X148690000Y-116581000D03*
X148690000Y-117851000D03*
X157990000Y-117851000D03*
X157990000Y-116581000D03*
X157990000Y-115311000D03*
X157990000Y-114041000D03*
X157990000Y-112771000D03*
X157990000Y-111501000D03*
X157990000Y-110231000D03*
X157990000Y-108961000D03*
X157990000Y-107691000D03*
%TD*%
D23*
%TO.C,R3*%
X155753000Y-96071000D03*
X155753000Y-97721000D03*
%TD*%
D30*
%TO.C,U1*%
X132211000Y-115819000D03*
X132211000Y-113279000D03*
X132211000Y-110739000D03*
X132211000Y-108199000D03*
X123161000Y-108199000D03*
X123161000Y-110739000D03*
X123161000Y-113279000D03*
X123161000Y-115819000D03*
%TD*%
D10*
%TO.C,FH2*%
X106716000Y-88292000D03*
D25*
X106716000Y-92292000D03*
X120716000Y-92292000D03*
X120716000Y-88292000D03*
%TD*%
D31*
%TO.C,C1*%
X129845000Y-79800500D03*
X129845000Y-71800500D03*
%TD*%
D10*
%TO.C,D1*%
X134544000Y-99309000D03*
D11*
X119304000Y-99309000D03*
%TD*%
D12*
%TO.C,C4*%
X156375000Y-105786000D03*
X157925000Y-105786000D03*
%TD*%
D24*
%TO.C,C7*%
X162738000Y-90025000D03*
X162738000Y-91575000D03*
%TD*%
D14*
%TO.C,HeatSink2*%
X195060500Y-55494000D03*
D15*
X169660500Y-55494000D03*
%TD*%
D32*
%TO.C,C3*%
X150673000Y-96101000D03*
X150673000Y-101501000D03*
%TD*%
D20*
%TO.C,J3*%
X219127000Y-59050000D03*
D21*
X219127000Y-52700000D03*
%TD*%
D15*
%TO.C,J1*%
X116715500Y-59304000D03*
X106555500Y-59304000D03*
D14*
X116715500Y-69464000D03*
X106555500Y-69464000D03*
X106555500Y-79624000D03*
X116715500Y-79624000D03*
%TD*%
D33*
%TO.C,Q2*%
X179947500Y-86538000D03*
D34*
X182487500Y-86538000D03*
X185027500Y-86538000D03*
%TD*%
D33*
%TO.C,Q1*%
X179820500Y-59868000D03*
D34*
X182360500Y-59868000D03*
X184900500Y-59868000D03*
%TD*%
D24*
%TO.C,C8*%
X143942000Y-111017000D03*
X143942000Y-112567000D03*
%TD*%
D35*
%TO.C,H3*%
X226000000Y-116000000D03*
%TD*%
%TO.C,H2*%
X104000000Y-116000000D03*
%TD*%
%TO.C,H4*%
X226000000Y-44000000D03*
%TD*%
%TO.C,H1*%
X104000000Y-44000000D03*
%TD*%
M02*
