%TF.GenerationSoftware,KiCad,Pcbnew,(6.0.6)*%
%TF.CreationDate,2022-11-23T05:32:29-08:00*%
%TF.ProjectId,FanSpeed_Controller,46616e53-7065-4656-945f-436f6e74726f,rev?*%
%TF.SameCoordinates,Original*%
%TF.FileFunction,Copper,L2,Bot*%
%TF.FilePolarity,Positive*%
%FSLAX46Y46*%
G04 Gerber Fmt 4.6, Leading zero omitted, Abs format (unit mm)*
G04 Created by KiCad (PCBNEW (6.0.6)) date 2022-11-23 05:32:29*
%MOMM*%
%LPD*%
G01*
G04 APERTURE LIST*
%TA.AperFunction,ComponentPad*%
%ADD10R,3.200000X3.200000*%
%TD*%
%TA.AperFunction,ComponentPad*%
%ADD11O,3.200000X3.200000*%
%TD*%
%TA.AperFunction,ComponentPad*%
%ADD12C,1.500000*%
%TD*%
%TA.AperFunction,ComponentPad*%
%ADD13C,5.000000*%
%TD*%
%TA.AperFunction,ComponentPad*%
%ADD14R,5.000000X5.000000*%
%TD*%
%TA.AperFunction,ComponentPad*%
%ADD15R,1.600000X1.600000*%
%TD*%
%TA.AperFunction,ComponentPad*%
%ADD16O,1.600000X1.600000*%
%TD*%
%TA.AperFunction,ComponentPad*%
%ADD17R,3.000000X3.000000*%
%TD*%
%TA.AperFunction,ComponentPad*%
%ADD18C,3.000000*%
%TD*%
%TA.AperFunction,ComponentPad*%
%ADD19C,3.200000*%
%TD*%
%TA.AperFunction,ComponentPad*%
%ADD20R,1.905000X2.000000*%
%TD*%
%TA.AperFunction,ComponentPad*%
%ADD21O,1.905000X2.000000*%
%TD*%
%TA.AperFunction,ComponentPad*%
%ADD22C,6.000000*%
%TD*%
%TA.AperFunction,ViaPad*%
%ADD23C,0.800000*%
%TD*%
%TA.AperFunction,Conductor*%
%ADD24C,0.508000*%
%TD*%
G04 APERTURE END LIST*
D10*
%TO.P,D2,1,A1*%
%TO.N,Net-(J3-Pad2)*%
X207061000Y-44351000D03*
D11*
%TO.P,D2,2,A2*%
%TO.N,Net-(J3-Pad1)*%
X207061000Y-64351000D03*
%TD*%
D10*
%TO.P,D3,1,A1*%
%TO.N,Net-(J4-Pad2)*%
X207061000Y-70894000D03*
D11*
%TO.P,D3,2,A2*%
%TO.N,Net-(J4-Pad1)*%
X207061000Y-90894000D03*
%TD*%
D12*
%TO.P,X1,1*%
%TO.N,Net-(C9-Pad1)*%
X140132000Y-115856000D03*
%TO.P,X1,2*%
%TO.N,Net-(C8-Pad1)*%
X140132000Y-110976000D03*
%TD*%
D13*
%TO.P,HeatSink1,0*%
%TO.N,N/C*%
X195314500Y-82164000D03*
D14*
X169914500Y-82164000D03*
%TD*%
D15*
%TO.P,A1,1,D1/TX*%
%TO.N,unconnected-(A1-Pad1)*%
X175312000Y-110856000D03*
D16*
%TO.P,A1,2,D0/RX*%
%TO.N,unconnected-(A1-Pad2)*%
X177852000Y-110856000D03*
%TO.P,A1,3,~{RESET}*%
%TO.N,unconnected-(A1-Pad3)*%
X180392000Y-110856000D03*
%TO.P,A1,4,GND*%
%TO.N,GND*%
X182932000Y-110856000D03*
%TO.P,A1,5,D2*%
%TO.N,/~{INT}*%
X185472000Y-110856000D03*
%TO.P,A1,6,D3*%
%TO.N,unconnected-(A1-Pad6)*%
X188012000Y-110856000D03*
%TO.P,A1,7,D4*%
%TO.N,unconnected-(A1-Pad7)*%
X190552000Y-110856000D03*
%TO.P,A1,8,D5*%
%TO.N,unconnected-(A1-Pad8)*%
X193092000Y-110856000D03*
%TO.P,A1,9,D6*%
%TO.N,unconnected-(A1-Pad9)*%
X195632000Y-110856000D03*
%TO.P,A1,10,D7*%
%TO.N,unconnected-(A1-Pad10)*%
X198172000Y-110856000D03*
%TO.P,A1,11,D8*%
%TO.N,unconnected-(A1-Pad11)*%
X200712000Y-110856000D03*
%TO.P,A1,12,D9*%
%TO.N,/FAN_CON*%
X203252000Y-110856000D03*
%TO.P,A1,13,D10*%
%TO.N,/SPI_~{CS}*%
X205792000Y-110856000D03*
%TO.P,A1,14,D11*%
%TO.N,/SPI_MOSI*%
X208332000Y-110856000D03*
%TO.P,A1,15,D12*%
%TO.N,/SPI_MISO*%
X210872000Y-110856000D03*
%TO.P,A1,16,D13*%
%TO.N,/SPI_SCK*%
X210872000Y-95616000D03*
%TO.P,A1,17,3V3*%
%TO.N,unconnected-(A1-Pad17)*%
X208332000Y-95616000D03*
%TO.P,A1,18,AREF*%
%TO.N,unconnected-(A1-Pad18)*%
X205792000Y-95616000D03*
%TO.P,A1,19,A0*%
%TO.N,unconnected-(A1-Pad19)*%
X203252000Y-95616000D03*
%TO.P,A1,20,A1*%
%TO.N,unconnected-(A1-Pad20)*%
X200712000Y-95616000D03*
%TO.P,A1,21,A2*%
%TO.N,unconnected-(A1-Pad21)*%
X198172000Y-95616000D03*
%TO.P,A1,22,A3*%
%TO.N,unconnected-(A1-Pad22)*%
X195632000Y-95616000D03*
%TO.P,A1,23,A4*%
%TO.N,unconnected-(A1-Pad23)*%
X193092000Y-95616000D03*
%TO.P,A1,24,A5*%
%TO.N,unconnected-(A1-Pad24)*%
X190552000Y-95616000D03*
%TO.P,A1,25,A6*%
%TO.N,unconnected-(A1-Pad25)*%
X188012000Y-95616000D03*
%TO.P,A1,26,A7*%
%TO.N,unconnected-(A1-Pad26)*%
X185472000Y-95616000D03*
%TO.P,A1,27,+5V*%
%TO.N,unconnected-(A1-Pad27)*%
X182932000Y-95616000D03*
%TO.P,A1,28,~{RESET}*%
%TO.N,unconnected-(A1-Pad28)*%
X180392000Y-95616000D03*
%TO.P,A1,29,GND*%
%TO.N,GND*%
X177852000Y-95616000D03*
%TO.P,A1,30,VIN*%
%TO.N,+5V*%
X175312000Y-95616000D03*
%TD*%
D17*
%TO.P,J2,1,Pin_1*%
%TO.N,Net-(J2-Pad1)*%
X108255000Y-101722000D03*
D18*
%TO.P,J2,2,Pin_2*%
%TO.N,Net-(J2-Pad2)*%
X108255000Y-108072000D03*
%TD*%
%TO.P,K1,1*%
%TO.N,Net-(J3-Pad2)*%
X160125000Y-46176000D03*
%TO.P,K1,2*%
%TO.N,unconnected-(K1-Pad2)*%
X160125000Y-56176000D03*
%TO.P,K1,3*%
%TO.N,GND*%
X149925000Y-56176000D03*
%TO.P,K1,4*%
%TO.N,Net-(C1-Pad1)*%
X149925000Y-46176000D03*
%TO.P,K1,5*%
%TO.N,Net-(FH1-Pad3)*%
X147425000Y-51176000D03*
%TD*%
D10*
%TO.P,FH1,1,1*%
%TO.N,Net-(FH1-Pad1)*%
X126020000Y-56669000D03*
D19*
%TO.P,FH1,2,2*%
X126020000Y-60669000D03*
%TO.P,FH1,3,3*%
%TO.N,Net-(FH1-Pad3)*%
X140020000Y-60669000D03*
%TO.P,FH1,4,4*%
X140020000Y-56669000D03*
%TD*%
D18*
%TO.P,K2,1*%
%TO.N,Net-(J4-Pad2)*%
X160506000Y-71576000D03*
%TO.P,K2,2*%
%TO.N,unconnected-(K2-Pad2)*%
X160506000Y-81576000D03*
%TO.P,K2,3*%
%TO.N,GND*%
X150306000Y-81576000D03*
%TO.P,K2,4*%
%TO.N,Net-(C1-Pad1)*%
X150306000Y-71576000D03*
%TO.P,K2,5*%
%TO.N,Net-(FH1-Pad3)*%
X147806000Y-76576000D03*
%TD*%
D17*
%TO.P,J4,1,Pin_1*%
%TO.N,Net-(J4-Pad1)*%
X219507000Y-84704000D03*
D18*
%TO.P,J4,2,Pin_2*%
%TO.N,Net-(J4-Pad2)*%
X219507000Y-78354000D03*
%TD*%
D10*
%TO.P,FH2,1,1*%
%TO.N,Net-(FH2-Pad1)*%
X106716000Y-88292000D03*
D19*
%TO.P,FH2,2,2*%
X106716000Y-92292000D03*
%TO.P,FH2,3,3*%
%TO.N,Net-(C1-Pad1)*%
X120716000Y-92292000D03*
%TO.P,FH2,4,4*%
X120716000Y-88292000D03*
%TD*%
D10*
%TO.P,D1,1,K*%
%TO.N,Net-(D1-Pad1)*%
X134544000Y-99309000D03*
D11*
%TO.P,D1,2,A*%
%TO.N,GND*%
X119304000Y-99309000D03*
%TD*%
D13*
%TO.P,HeatSink2,0*%
%TO.N,N/C*%
X195060500Y-55494000D03*
D14*
X169660500Y-55494000D03*
%TD*%
D17*
%TO.P,J3,1,Pin_1*%
%TO.N,Net-(J3-Pad1)*%
X219127000Y-59050000D03*
D18*
%TO.P,J3,2,Pin_2*%
%TO.N,Net-(J3-Pad2)*%
X219127000Y-52700000D03*
%TD*%
D14*
%TO.P,J1,1,Pin_1*%
%TO.N,Net-(FH1-Pad1)*%
X116715500Y-59304000D03*
X106555500Y-59304000D03*
D13*
%TO.P,J1,2,Pin_2*%
%TO.N,GND*%
X116715500Y-69464000D03*
X106555500Y-69464000D03*
%TO.P,J1,3,Pin_3*%
%TO.N,Net-(FH2-Pad1)*%
X106555500Y-79624000D03*
X116715500Y-79624000D03*
%TD*%
D20*
%TO.P,Q2,1,G*%
%TO.N,Net-(C7-Pad1)*%
X179947500Y-86538000D03*
D21*
%TO.P,Q2,2,D*%
%TO.N,Net-(J4-Pad1)*%
X182487500Y-86538000D03*
%TO.P,Q2,3,S*%
%TO.N,GND*%
X185027500Y-86538000D03*
%TD*%
D20*
%TO.P,Q1,1,G*%
%TO.N,Net-(C7-Pad1)*%
X179820500Y-59868000D03*
D21*
%TO.P,Q1,2,D*%
%TO.N,Net-(J3-Pad1)*%
X182360500Y-59868000D03*
%TO.P,Q1,3,S*%
%TO.N,GND*%
X184900500Y-59868000D03*
%TD*%
D22*
%TO.P,H3,1*%
%TO.N,N/C*%
X226000000Y-116000000D03*
%TD*%
%TO.P,H2,1*%
%TO.N,N/C*%
X104000000Y-116000000D03*
%TD*%
%TO.P,H4,1*%
%TO.N,N/C*%
X226000000Y-44000000D03*
%TD*%
%TO.P,H1,1*%
%TO.N,N/C*%
X104000000Y-44000000D03*
%TD*%
D23*
%TO.N,GND*%
X151943000Y-58288000D03*
X151816000Y-48636000D03*
X126162000Y-90038000D03*
X128321000Y-94864000D03*
X201854000Y-112644000D03*
X196901000Y-112644000D03*
X191821000Y-112644000D03*
X187376000Y-112771000D03*
X164516000Y-88387000D03*
X161849000Y-77084000D03*
X101270000Y-112644000D03*
X107620000Y-41397000D03*
X101397000Y-48001000D03*
X204013000Y-86609000D03*
X201219000Y-85847000D03*
X201219000Y-82037000D03*
X201346000Y-77465000D03*
X205664000Y-81148000D03*
X204902000Y-77084000D03*
X189535000Y-83942000D03*
X175819000Y-87752000D03*
X175692000Y-84323000D03*
X177597000Y-88514000D03*
X189662000Y-87244000D03*
X189662000Y-77084000D03*
X185852000Y-77084000D03*
X181661000Y-77084000D03*
X176200000Y-77084000D03*
X175438000Y-61082000D03*
X175692000Y-50160000D03*
X189789000Y-50287000D03*
X189154000Y-60828000D03*
X202108000Y-60574000D03*
X201981000Y-50795000D03*
X203124000Y-56510000D03*
X223698000Y-47747000D03*
X223190000Y-56256000D03*
X223190000Y-67813000D03*
X223063000Y-81529000D03*
X221412000Y-95118000D03*
X216713000Y-95118000D03*
X213284000Y-95245000D03*
X212395000Y-100452000D03*
X214427000Y-103881000D03*
X214427000Y-109088000D03*
X214681000Y-115184000D03*
X212522000Y-118105000D03*
X216967000Y-117978000D03*
X221285000Y-117851000D03*
X222301000Y-112898000D03*
X227889000Y-110739000D03*
X227635000Y-106167000D03*
X228016000Y-101468000D03*
X228016000Y-96896000D03*
X228143000Y-92324000D03*
X228016000Y-87244000D03*
X228270000Y-81148000D03*
X228143000Y-75052000D03*
X228016000Y-69972000D03*
X228143000Y-64638000D03*
X228143000Y-59431000D03*
X228016000Y-53970000D03*
X228016000Y-49271000D03*
X201600000Y-107183000D03*
X201727000Y-102865000D03*
X199822000Y-100325000D03*
X195377000Y-100325000D03*
X191567000Y-100325000D03*
X186995000Y-100325000D03*
X182550000Y-100071000D03*
X178359000Y-100198000D03*
X174041000Y-100071000D03*
X108509000Y-118232000D03*
X102286000Y-108834000D03*
X102286000Y-101341000D03*
X102286000Y-94102000D03*
X102159000Y-89022000D03*
X120828000Y-82418000D03*
X120701000Y-76703000D03*
X120574000Y-72512000D03*
X133528000Y-76703000D03*
X133274000Y-71877000D03*
X133909000Y-66543000D03*
X132893000Y-61590000D03*
X132893000Y-57272000D03*
X132893000Y-52700000D03*
X129972000Y-66797000D03*
X125527000Y-67051000D03*
X122098000Y-67051000D03*
X177597000Y-64638000D03*
X172390000Y-64892000D03*
X167564000Y-64638000D03*
X163119000Y-64892000D03*
X158928000Y-64892000D03*
X155626000Y-67178000D03*
X155245000Y-71623000D03*
X152324000Y-68448000D03*
X152578000Y-63749000D03*
X155245000Y-62098000D03*
X156515000Y-58161000D03*
X163500000Y-60955000D03*
X163754000Y-56383000D03*
X164389000Y-50668000D03*
X161087000Y-50668000D03*
X156261000Y-53843000D03*
X148260000Y-61717000D03*
X149022000Y-59431000D03*
X157404000Y-49652000D03*
X151562000Y-42794000D03*
X141529000Y-42794000D03*
X134925000Y-48890000D03*
X135433000Y-43048000D03*
X128321000Y-49017000D03*
X128321000Y-43302000D03*
X121590000Y-48763000D03*
X121717000Y-43556000D03*
X116002000Y-48636000D03*
X115875000Y-43048000D03*
X110922000Y-48636000D03*
X110668000Y-43683000D03*
X164135000Y-118613000D03*
X160960000Y-117343000D03*
X155118000Y-116200000D03*
X152324000Y-116327000D03*
X154991000Y-112390000D03*
X152197000Y-112517000D03*
X154991000Y-109088000D03*
X152070000Y-109088000D03*
X144704000Y-118613000D03*
X135306000Y-115438000D03*
X135306000Y-118359000D03*
X131369000Y-118359000D03*
X127940000Y-118359000D03*
X124765000Y-118359000D03*
X120955000Y-118359000D03*
X117145000Y-118105000D03*
X117145000Y-115057000D03*
X114224000Y-114803000D03*
X112319000Y-112898000D03*
X112319000Y-110231000D03*
X126416000Y-107945000D03*
X126289000Y-110993000D03*
X126162000Y-113914000D03*
X118161000Y-108453000D03*
X128067000Y-104135000D03*
X131369000Y-101468000D03*
X137084000Y-102357000D03*
X152959000Y-106040000D03*
X155626000Y-104135000D03*
X157658000Y-101976000D03*
X146609000Y-99055000D03*
X147752000Y-105786000D03*
X145085000Y-104389000D03*
X204902000Y-105278000D03*
X204775000Y-101722000D03*
X204775000Y-98039000D03*
X209220000Y-99055000D03*
X209220000Y-103119000D03*
X211125000Y-105151000D03*
X211125000Y-108326000D03*
X208204000Y-108326000D03*
X205156000Y-108453000D03*
X172898000Y-112263000D03*
X170358000Y-110231000D03*
X166040000Y-108580000D03*
X169596000Y-99817000D03*
X166294000Y-99817000D03*
X163373000Y-99817000D03*
X161595000Y-106040000D03*
X162865000Y-108453000D03*
X159563000Y-104516000D03*
X160833000Y-102103000D03*
X160579000Y-99309000D03*
X179629000Y-91689000D03*
X176962000Y-91816000D03*
X173914000Y-91816000D03*
X170993000Y-91816000D03*
X167945000Y-91689000D03*
X165024000Y-91689000D03*
X161849000Y-92959000D03*
X157658000Y-91435000D03*
X157785000Y-89403000D03*
X147625000Y-81910000D03*
X151816000Y-74290000D03*
X150292000Y-84704000D03*
X126670000Y-83180000D03*
X132385000Y-83180000D03*
X146482000Y-94356000D03*
X149403000Y-92832000D03*
X151435000Y-91816000D03*
X149784000Y-89403000D03*
X146990000Y-88387000D03*
X145085000Y-86228000D03*
%TO.N,Net-(J3-Pad2)*%
X202870000Y-42413000D03*
X206807000Y-41778000D03*
X210617000Y-41778000D03*
X215189000Y-41778000D03*
X218872000Y-41778000D03*
X221412000Y-43683000D03*
X221412000Y-47366000D03*
X221412000Y-50922000D03*
X220650000Y-55113000D03*
X217094000Y-55367000D03*
X213665000Y-55367000D03*
X210236000Y-55367000D03*
X207188000Y-55367000D03*
X204775000Y-54224000D03*
X204775000Y-51049000D03*
X204013000Y-48509000D03*
%TO.N,Net-(J3-Pad1)*%
X221666000Y-58034000D03*
X222047000Y-61209000D03*
X222047000Y-64511000D03*
X220142000Y-66670000D03*
X216205000Y-66670000D03*
X212776000Y-66670000D03*
X209220000Y-66670000D03*
X216332000Y-57653000D03*
X213030000Y-57653000D03*
X210109000Y-57653000D03*
X207696000Y-57653000D03*
X205410000Y-57653000D03*
X204902000Y-59939000D03*
X204521000Y-62225000D03*
X202108000Y-62987000D03*
X199060000Y-62987000D03*
X196520000Y-62987000D03*
X204394000Y-66797000D03*
X201473000Y-66797000D03*
X198933000Y-66797000D03*
X196012000Y-66797000D03*
X193218000Y-66797000D03*
X193726000Y-62987000D03*
X190678000Y-66797000D03*
X191059000Y-62987000D03*
X188265000Y-66797000D03*
X185852000Y-66797000D03*
X188519000Y-62987000D03*
X186233000Y-62987000D03*
X183439000Y-66797000D03*
X181788000Y-64765000D03*
X183820000Y-62733000D03*
X181661000Y-62098000D03*
%TO.N,Net-(J4-Pad2)*%
X222174000Y-77211000D03*
X222174000Y-73909000D03*
X222174000Y-70861000D03*
X221158000Y-68956000D03*
X218364000Y-68956000D03*
X215189000Y-68956000D03*
X212395000Y-68956000D03*
X209601000Y-68956000D03*
X217856000Y-80005000D03*
X214681000Y-80005000D03*
X211506000Y-80005000D03*
X208712000Y-80005000D03*
X207061000Y-78481000D03*
X206934000Y-75687000D03*
X204775000Y-74163000D03*
%TO.N,Net-(J4-Pad1)*%
X221666000Y-88133000D03*
X221793000Y-90800000D03*
X220650000Y-92578000D03*
X217983000Y-92578000D03*
X215062000Y-92705000D03*
X212268000Y-92705000D03*
X209347000Y-92705000D03*
X216205000Y-82799000D03*
X212903000Y-82799000D03*
X210109000Y-82799000D03*
X207569000Y-82926000D03*
X206553000Y-84958000D03*
X206172000Y-87879000D03*
X203886000Y-89022000D03*
X200965000Y-89022000D03*
X198171000Y-89022000D03*
X195504000Y-89022000D03*
X203378000Y-92705000D03*
X200330000Y-92705000D03*
X197790000Y-92705000D03*
X195250000Y-92705000D03*
X193218000Y-92705000D03*
X192710000Y-89022000D03*
X190805000Y-92832000D03*
X190043000Y-89149000D03*
X187757000Y-89149000D03*
X185598000Y-89149000D03*
X188265000Y-92832000D03*
X185979000Y-92832000D03*
X183312000Y-92832000D03*
X181788000Y-90546000D03*
X183693000Y-88387000D03*
X181788000Y-88514000D03*
%TO.N,Net-(FH1-Pad3)*%
X146990000Y-53335000D03*
X145847000Y-55748000D03*
X145974000Y-59050000D03*
X145974000Y-62225000D03*
X146101000Y-65019000D03*
X146101000Y-67813000D03*
X146228000Y-70607000D03*
X146355000Y-73909000D03*
X149276000Y-78354000D03*
X145593000Y-78862000D03*
X141783000Y-78862000D03*
X138608000Y-78862000D03*
X136449000Y-75941000D03*
X136449000Y-73020000D03*
X136449000Y-70099000D03*
X136449000Y-67051000D03*
X136449000Y-64130000D03*
X136322000Y-61082000D03*
X136322000Y-58034000D03*
X136322000Y-54859000D03*
X145212000Y-49144000D03*
X141402000Y-49144000D03*
X138354000Y-49144000D03*
X136322000Y-51938000D03*
%TO.N,Net-(FH1-Pad1)*%
X102540000Y-57272000D03*
X102540000Y-60320000D03*
X102540000Y-62860000D03*
X104445000Y-64130000D03*
X107493000Y-64130000D03*
X111049000Y-64130000D03*
X113843000Y-64257000D03*
X117145000Y-64257000D03*
X120701000Y-64257000D03*
X124003000Y-64257000D03*
X127559000Y-64257000D03*
X129718000Y-62352000D03*
X129591000Y-59177000D03*
X129591000Y-56383000D03*
X129464000Y-53335000D03*
X126035000Y-51938000D03*
X122352000Y-52065000D03*
X119558000Y-52065000D03*
X116891000Y-52065000D03*
X113843000Y-52065000D03*
X110795000Y-52065000D03*
X107874000Y-52065000D03*
X105080000Y-52065000D03*
X102667000Y-53843000D03*
%TO.N,Net-(J4-Pad2)*%
X166802000Y-74290000D03*
X183693000Y-74290000D03*
X201981000Y-74290000D03*
X192710000Y-74290000D03*
X198806000Y-74290000D03*
X189662000Y-74290000D03*
X195758000Y-74290000D03*
X186614000Y-74290000D03*
X180772000Y-74290000D03*
X177724000Y-74290000D03*
X175057000Y-74290000D03*
X172390000Y-74290000D03*
X169850000Y-74290000D03*
X163754000Y-74290000D03*
X201981000Y-70099000D03*
X198806000Y-70099000D03*
X195758000Y-70099000D03*
X192710000Y-70099000D03*
X189662000Y-70099000D03*
X186614000Y-70099000D03*
X183693000Y-70099000D03*
X180772000Y-70099000D03*
X177724000Y-70099000D03*
X175057000Y-70099000D03*
X172390000Y-70099000D03*
X169850000Y-70099000D03*
X166802000Y-70099000D03*
X163754000Y-70099000D03*
%TO.N,Net-(J3-Pad2)*%
X181407000Y-46731000D03*
X176835000Y-46731000D03*
X178994000Y-46731000D03*
X174803000Y-46731000D03*
X172517000Y-46731000D03*
X165786000Y-46731000D03*
X168072000Y-46731000D03*
X201346000Y-46731000D03*
X185725000Y-46731000D03*
X194742000Y-46731000D03*
X192456000Y-46731000D03*
X196774000Y-46731000D03*
X198933000Y-46731000D03*
X188011000Y-46731000D03*
X190297000Y-46731000D03*
X170358000Y-46731000D03*
X183312000Y-46731000D03*
X163373000Y-46731000D03*
X199441000Y-42667000D03*
X194869000Y-42667000D03*
X197028000Y-42667000D03*
X192837000Y-42667000D03*
X190551000Y-42667000D03*
X183820000Y-42667000D03*
X186106000Y-42667000D03*
X188392000Y-42667000D03*
X181407000Y-42667000D03*
X179502000Y-42667000D03*
X177089000Y-42667000D03*
X174930000Y-42667000D03*
X172898000Y-42667000D03*
X170612000Y-42667000D03*
X168453000Y-42667000D03*
X166167000Y-42667000D03*
X163881000Y-42667000D03*
X161468000Y-42667000D03*
%TO.N,GND*%
X130353000Y-94610000D03*
%TO.N,+5V*%
X157404000Y-94610000D03*
%TO.N,/~{INT}*%
X166294000Y-117216000D03*
%TO.N,/SPI_MISO*%
X203125000Y-115311000D03*
%TO.N,Net-(C6-Pad2)*%
X128956000Y-96642000D03*
X154356000Y-97785000D03*
%TD*%
D24*
%TO.N,+5V*%
X159690000Y-94610000D02*
X160696000Y-95616000D01*
X157404000Y-94610000D02*
X159690000Y-94610000D01*
X175312000Y-95616000D02*
X160696000Y-95616000D01*
%TO.N,/~{INT}*%
X166294000Y-117216000D02*
X184329000Y-117216000D01*
X185472000Y-116073000D02*
X185472000Y-110856000D01*
X184329000Y-117216000D02*
X185472000Y-116073000D01*
%TO.N,/SPI_MISO*%
X210872000Y-113787000D02*
X210872000Y-110856000D01*
X203125000Y-115311000D02*
X209348000Y-115311000D01*
X209348000Y-115311000D02*
X210872000Y-113787000D01*
%TO.N,Net-(C6-Pad2)*%
X147752000Y-97785000D02*
X154356000Y-97785000D01*
X146609000Y-96642000D02*
X147625000Y-97658000D01*
X128956000Y-96642000D02*
X146609000Y-96642000D01*
X147625000Y-97658000D02*
X147752000Y-97785000D01*
%TD*%
%TA.AperFunction,Conductor*%
%TO.N,Net-(J4-Pad2)*%
G36*
X221539286Y-68087000D02*
G01*
X221576700Y-68123550D01*
X222614841Y-69680762D01*
X222787838Y-69940257D01*
X222809000Y-70010149D01*
X222809000Y-79187573D01*
X222788998Y-79255694D01*
X222768141Y-79280454D01*
X221320636Y-80607334D01*
X221256905Y-80638621D01*
X221236667Y-80640448D01*
X207625814Y-80766474D01*
X207557511Y-80747103D01*
X207530992Y-80724769D01*
X207453459Y-80638621D01*
X206458345Y-79532939D01*
X206427642Y-79468924D01*
X206426000Y-79448649D01*
X206426000Y-76322000D01*
X205410000Y-75433000D01*
X160607745Y-75433000D01*
X160551396Y-75419698D01*
X158107650Y-74197825D01*
X158055667Y-74149471D01*
X158038000Y-74085128D01*
X158038000Y-69786548D01*
X158058002Y-69718427D01*
X158095550Y-69680762D01*
X160165760Y-68341214D01*
X160234210Y-68321000D01*
X182867500Y-68321000D01*
X182867609Y-68320999D01*
X182867723Y-68320999D01*
X203519400Y-68185355D01*
X221471036Y-68067446D01*
X221539286Y-68087000D01*
G37*
%TD.AperFunction*%
%TD*%
%TA.AperFunction,Conductor*%
%TO.N,Net-(J3-Pad2)*%
G36*
X220538931Y-41163002D02*
G01*
X220559905Y-41179905D01*
X222136550Y-42756550D01*
X222170576Y-42818862D01*
X222173448Y-42846957D01*
X222129701Y-47046712D01*
X222049272Y-54767939D01*
X222047753Y-54913757D01*
X222027043Y-54981666D01*
X221984273Y-55021844D01*
X220298051Y-55985399D01*
X220235538Y-56002000D01*
X205212116Y-56002000D01*
X205143995Y-55981998D01*
X205118461Y-55960290D01*
X204045345Y-54767939D01*
X204014642Y-54703924D01*
X204013000Y-54683649D01*
X204013000Y-49906000D01*
X204005722Y-49899329D01*
X204005722Y-49899328D01*
X202502356Y-48521243D01*
X202489000Y-48509000D01*
X159348195Y-48635882D01*
X159275163Y-48612821D01*
X157202338Y-47149650D01*
X157158220Y-47094025D01*
X157149000Y-47046712D01*
X157149000Y-43227190D01*
X157169002Y-43159069D01*
X157185905Y-43138095D01*
X159144095Y-41179905D01*
X159206407Y-41145879D01*
X159233190Y-41143000D01*
X220470810Y-41143000D01*
X220538931Y-41163002D01*
G37*
%TD.AperFunction*%
%TD*%
%TA.AperFunction,Conductor*%
%TO.N,Net-(FH1-Pad3)*%
G36*
X146760847Y-48139294D02*
G01*
X149456139Y-49364427D01*
X149509877Y-49410825D01*
X149530000Y-49479133D01*
X149530000Y-52872867D01*
X149509998Y-52940988D01*
X149456139Y-52987573D01*
X146736000Y-54224000D01*
X146863000Y-73020000D01*
X146874884Y-73027314D01*
X146874886Y-73027315D01*
X150105036Y-75015099D01*
X150152569Y-75067836D01*
X150165000Y-75122408D01*
X150165000Y-78524495D01*
X150144998Y-78592616D01*
X150088096Y-78640536D01*
X147248578Y-79841871D01*
X146887440Y-79994660D01*
X146836465Y-80004604D01*
X146113775Y-79993818D01*
X138405086Y-79878762D01*
X138337271Y-79857746D01*
X138317871Y-79841871D01*
X135216168Y-76740168D01*
X135182142Y-76677856D01*
X135179265Y-76650437D01*
X135186983Y-75122408D01*
X135262719Y-60126642D01*
X135305792Y-51598232D01*
X135326137Y-51530213D01*
X135330542Y-51523869D01*
X137808221Y-48179001D01*
X137864841Y-48136168D01*
X137909469Y-48128000D01*
X146708708Y-48128000D01*
X146760847Y-48139294D01*
G37*
%TD.AperFunction*%
%TD*%
%TA.AperFunction,Conductor*%
%TO.N,Net-(J3-Pad1)*%
G36*
X221558807Y-56656848D02*
G01*
X221575226Y-56669201D01*
X222639710Y-57615409D01*
X222677335Y-57675616D01*
X222682000Y-57709583D01*
X222682000Y-65859288D01*
X222661998Y-65927409D01*
X222649232Y-65944045D01*
X221449326Y-67263941D01*
X221388703Y-67300891D01*
X221356511Y-67305183D01*
X183058042Y-67431786D01*
X182989855Y-67412010D01*
X182958775Y-67383920D01*
X181116650Y-65053349D01*
X181090101Y-64987503D01*
X181089500Y-64975216D01*
X181089500Y-61444192D01*
X181109502Y-61376071D01*
X181138796Y-61344229D01*
X181194736Y-61301305D01*
X181201282Y-61296282D01*
X181297536Y-61170841D01*
X181358044Y-61024762D01*
X181373500Y-60907361D01*
X181373499Y-58828640D01*
X181372375Y-58820095D01*
X181359122Y-58719425D01*
X181359122Y-58719423D01*
X181358044Y-58711238D01*
X181312603Y-58601533D01*
X181305014Y-58530946D01*
X181328212Y-58477717D01*
X181432700Y-58338400D01*
X181489574Y-58295905D01*
X181533500Y-58288000D01*
X183417194Y-58288000D01*
X183485315Y-58308002D01*
X183534182Y-58367205D01*
X183687067Y-58749418D01*
X183693795Y-58820095D01*
X183670175Y-58872742D01*
X183659129Y-58887190D01*
X183590854Y-58976490D01*
X183472759Y-59196735D01*
X183391397Y-59433028D01*
X183348860Y-59679290D01*
X183347500Y-59709241D01*
X183347500Y-59978292D01*
X183347702Y-59980800D01*
X183347702Y-59980805D01*
X183358074Y-60109711D01*
X183362490Y-60164603D01*
X183363695Y-60169511D01*
X183363696Y-60169514D01*
X183385926Y-60260016D01*
X183422102Y-60407298D01*
X183424077Y-60411950D01*
X183424078Y-60411954D01*
X183511955Y-60618978D01*
X183519749Y-60637339D01*
X183652919Y-60848810D01*
X183698111Y-60900071D01*
X183725014Y-60930586D01*
X183755059Y-60994912D01*
X183756500Y-61013911D01*
X183756500Y-61209000D01*
X184264500Y-62225000D01*
X203505000Y-62225000D01*
X204267000Y-61209000D01*
X204267000Y-57832190D01*
X204287002Y-57764069D01*
X204303905Y-57743095D01*
X205246502Y-56800498D01*
X205308814Y-56766472D01*
X205334613Y-56763597D01*
X221490532Y-56637379D01*
X221558807Y-56656848D01*
G37*
%TD.AperFunction*%
%TD*%
%TA.AperFunction,Conductor*%
%TO.N,Net-(J4-Pad1)*%
G36*
X221419047Y-82056940D02*
G01*
X221450264Y-82084830D01*
X222400389Y-83272486D01*
X222427325Y-83338175D01*
X222428000Y-83351198D01*
X222428000Y-92277390D01*
X222407998Y-92345511D01*
X222397666Y-92359390D01*
X221703296Y-93169488D01*
X221643777Y-93208192D01*
X221608695Y-93213484D01*
X210692636Y-93305662D01*
X183122828Y-93538469D01*
X183054541Y-93519042D01*
X183022914Y-93490606D01*
X181181038Y-91160350D01*
X181154489Y-91094504D01*
X181153888Y-91082217D01*
X181153888Y-88162236D01*
X181173890Y-88094115D01*
X181203184Y-88062273D01*
X181321736Y-87971305D01*
X181328282Y-87966282D01*
X181424536Y-87840841D01*
X181485044Y-87694762D01*
X181493828Y-87628040D01*
X181499962Y-87581448D01*
X181499962Y-87581447D01*
X181500500Y-87577361D01*
X181500499Y-85498640D01*
X181493828Y-85447960D01*
X181486122Y-85389425D01*
X181486122Y-85389423D01*
X181485044Y-85381238D01*
X181466177Y-85335689D01*
X181444932Y-85284398D01*
X181437343Y-85213808D01*
X181472167Y-85147163D01*
X181624082Y-84994982D01*
X181686365Y-84960903D01*
X181713256Y-84958000D01*
X183376000Y-84958000D01*
X183444121Y-84978002D01*
X183476800Y-85008400D01*
X183780504Y-85413339D01*
X183805375Y-85479836D01*
X183790346Y-85549223D01*
X183779800Y-85565467D01*
X183720927Y-85642469D01*
X183720920Y-85642480D01*
X183717854Y-85646490D01*
X183599759Y-85866735D01*
X183518397Y-86103028D01*
X183475860Y-86349290D01*
X183474500Y-86379241D01*
X183474500Y-86648292D01*
X183474702Y-86650800D01*
X183474702Y-86650805D01*
X183478400Y-86696759D01*
X183489490Y-86834603D01*
X183490695Y-86839511D01*
X183490696Y-86839514D01*
X183523477Y-86972972D01*
X183549102Y-87077298D01*
X183551077Y-87081950D01*
X183551078Y-87081954D01*
X183644773Y-87302684D01*
X183646749Y-87307339D01*
X183779919Y-87518810D01*
X183863921Y-87614091D01*
X183886044Y-87639185D01*
X183904188Y-87666081D01*
X184328888Y-88514000D01*
X204394888Y-88514000D01*
X205664888Y-86990000D01*
X206039784Y-83107024D01*
X206066240Y-83041141D01*
X206087841Y-83019678D01*
X207154369Y-82190125D01*
X207220421Y-82164090D01*
X207230603Y-82163587D01*
X221350750Y-82037547D01*
X221419047Y-82056940D01*
G37*
%TD.AperFunction*%
%TD*%
%TA.AperFunction,Conductor*%
%TO.N,Net-(FH1-Pad1)*%
G36*
X127963653Y-51068877D02*
G01*
X127974806Y-51076845D01*
X130432712Y-53043170D01*
X130473410Y-53101343D01*
X130480000Y-53141559D01*
X130480000Y-63052941D01*
X130459998Y-63121062D01*
X130432077Y-63151834D01*
X128101333Y-64991895D01*
X128035472Y-65018407D01*
X128023258Y-65019000D01*
X103789574Y-65019000D01*
X103721453Y-64998998D01*
X103712440Y-64992631D01*
X101826866Y-63532832D01*
X101785246Y-63475314D01*
X101778000Y-63433201D01*
X101778000Y-53387190D01*
X101798002Y-53319069D01*
X101814905Y-53298095D01*
X103900371Y-51212629D01*
X103962683Y-51178603D01*
X103988799Y-51175726D01*
X127895427Y-51049236D01*
X127963653Y-51068877D01*
G37*
%TD.AperFunction*%
%TD*%
%TA.AperFunction,Conductor*%
%TO.N,GND*%
G36*
X158631125Y-40620502D02*
G01*
X158677618Y-40674158D01*
X158687722Y-40744432D01*
X158658228Y-40809012D01*
X158652099Y-40815595D01*
X156757752Y-42709942D01*
X156714449Y-42758148D01*
X156697546Y-42779122D01*
X156651976Y-42843927D01*
X156588029Y-42988481D01*
X156568027Y-43056602D01*
X156543500Y-43227190D01*
X156543500Y-47046712D01*
X156554680Y-47162529D01*
X156563900Y-47209842D01*
X156602600Y-47334683D01*
X156606469Y-47341143D01*
X156606471Y-47341147D01*
X156659077Y-47428978D01*
X156683819Y-47470288D01*
X156727937Y-47525913D01*
X156731212Y-47529010D01*
X156731213Y-47529011D01*
X156795139Y-47589461D01*
X156853156Y-47644324D01*
X158121333Y-48539508D01*
X158925350Y-49107050D01*
X158925373Y-49107066D01*
X158925981Y-49107495D01*
X158949611Y-49123356D01*
X159092840Y-49190219D01*
X159165872Y-49213280D01*
X159193201Y-49221208D01*
X159349976Y-49241379D01*
X159354100Y-49241367D01*
X159354102Y-49241367D01*
X202205001Y-49115338D01*
X202273181Y-49135139D01*
X202290513Y-49148456D01*
X202391884Y-49241379D01*
X203366641Y-50134906D01*
X203403341Y-50195681D01*
X203407500Y-50227787D01*
X203407500Y-54683649D01*
X203407551Y-54684905D01*
X203407551Y-54684916D01*
X203408410Y-54706156D01*
X203409476Y-54732526D01*
X203411118Y-54752801D01*
X203419520Y-54815550D01*
X203421318Y-54821042D01*
X203421318Y-54821044D01*
X203453728Y-54920064D01*
X203468689Y-54965775D01*
X203499392Y-55029790D01*
X203546482Y-55100118D01*
X203587949Y-55162048D01*
X203595280Y-55172997D01*
X203598286Y-55176337D01*
X204662771Y-56359098D01*
X204693474Y-56423113D01*
X204684694Y-56493564D01*
X204658211Y-56532483D01*
X203875752Y-57314942D01*
X203832449Y-57363148D01*
X203815546Y-57384122D01*
X203769976Y-57448927D01*
X203706029Y-57593481D01*
X203686027Y-57661602D01*
X203685386Y-57666058D01*
X203685385Y-57666064D01*
X203679313Y-57708297D01*
X203661500Y-57832190D01*
X203661500Y-60965167D01*
X203641498Y-61033288D01*
X203636300Y-61040767D01*
X203240050Y-61569100D01*
X203183176Y-61611595D01*
X203139250Y-61619500D01*
X184716592Y-61619500D01*
X184648471Y-61599498D01*
X184603894Y-61549849D01*
X184375302Y-61092664D01*
X184362000Y-61036315D01*
X184362000Y-61013911D01*
X184360266Y-60968118D01*
X184358825Y-60949119D01*
X184351294Y-60889393D01*
X184303667Y-60738671D01*
X184273622Y-60674345D01*
X184179207Y-60530162D01*
X184146030Y-60492530D01*
X184133927Y-60476352D01*
X184063480Y-60364484D01*
X184054119Y-60346579D01*
X184002465Y-60224890D01*
X183996086Y-60205713D01*
X183964551Y-60077325D01*
X183961320Y-60057375D01*
X183953406Y-59959015D01*
X183953000Y-59948910D01*
X183953000Y-59749870D01*
X183954839Y-59728423D01*
X183978042Y-59594095D01*
X183983067Y-59574521D01*
X184026109Y-59449515D01*
X184034201Y-59430994D01*
X184096672Y-59314487D01*
X184107620Y-59297499D01*
X184148988Y-59243392D01*
X184151194Y-59240507D01*
X184222623Y-59120597D01*
X184246243Y-59067950D01*
X184290882Y-58920680D01*
X184296570Y-58762715D01*
X184290944Y-58703609D01*
X184290268Y-58696513D01*
X184289842Y-58692038D01*
X184249260Y-58524541D01*
X184096375Y-58142328D01*
X184085002Y-58115755D01*
X184001154Y-57981760D01*
X183952287Y-57922557D01*
X183951566Y-57921745D01*
X183951545Y-57921720D01*
X183927024Y-57894089D01*
X183927021Y-57894086D01*
X183923535Y-57890158D01*
X183919446Y-57886863D01*
X183919443Y-57886860D01*
X183806887Y-57796157D01*
X183806884Y-57796155D01*
X183800457Y-57790976D01*
X183655903Y-57727029D01*
X183587782Y-57707027D01*
X183583326Y-57706386D01*
X183583320Y-57706385D01*
X183482043Y-57691824D01*
X183417194Y-57682500D01*
X181533500Y-57682500D01*
X181530710Y-57682749D01*
X181530711Y-57682749D01*
X181429044Y-57691824D01*
X181429041Y-57691824D01*
X181426256Y-57692073D01*
X181382330Y-57699978D01*
X181379270Y-57700855D01*
X181379268Y-57700855D01*
X181272075Y-57731560D01*
X181272072Y-57731561D01*
X181265042Y-57733575D01*
X181127151Y-57810849D01*
X181070277Y-57853344D01*
X181067101Y-57856515D01*
X181067099Y-57856516D01*
X181039210Y-57884354D01*
X180948300Y-57975099D01*
X180901538Y-58037448D01*
X180861829Y-58090394D01*
X180843812Y-58114416D01*
X180841969Y-58117582D01*
X180841968Y-58117583D01*
X180791132Y-58204897D01*
X180739571Y-58253703D01*
X180682243Y-58267500D01*
X178926668Y-58267501D01*
X178828640Y-58267501D01*
X178824556Y-58268039D01*
X178824550Y-58268039D01*
X178719425Y-58281878D01*
X178719423Y-58281878D01*
X178711238Y-58282956D01*
X178565159Y-58343464D01*
X178439718Y-58439718D01*
X178343464Y-58565159D01*
X178282956Y-58711238D01*
X178267500Y-58828639D01*
X178267501Y-60907360D01*
X178268039Y-60911444D01*
X178268039Y-60911450D01*
X178281687Y-61015123D01*
X178282956Y-61024762D01*
X178343464Y-61170841D01*
X178439718Y-61296282D01*
X178565159Y-61392536D01*
X178711238Y-61453044D01*
X178828639Y-61468500D01*
X178881077Y-61468500D01*
X180358000Y-61468499D01*
X180426121Y-61488501D01*
X180472614Y-61542157D01*
X180484000Y-61594499D01*
X180484000Y-64975216D01*
X180484723Y-65004798D01*
X180485324Y-65017085D01*
X180489062Y-65060867D01*
X180528530Y-65213928D01*
X180555079Y-65279774D01*
X180557340Y-65283668D01*
X180639361Y-65424927D01*
X180639365Y-65424932D01*
X180641622Y-65428820D01*
X182287704Y-67511366D01*
X182314253Y-67577212D01*
X182300990Y-67646958D01*
X182252124Y-67698462D01*
X182188854Y-67715499D01*
X160614180Y-67715500D01*
X160234210Y-67715500D01*
X160229738Y-67716146D01*
X160229731Y-67716147D01*
X160067196Y-67739645D01*
X160062721Y-67740292D01*
X160058384Y-67741573D01*
X160058383Y-67741573D01*
X159998608Y-67759225D01*
X159998605Y-67759226D01*
X159994271Y-67760506D01*
X159990166Y-67762392D01*
X159990164Y-67762393D01*
X159929163Y-67790423D01*
X159836821Y-67832854D01*
X157766611Y-69172402D01*
X157666731Y-69253275D01*
X157629183Y-69290940D01*
X157540976Y-69403285D01*
X157477029Y-69547839D01*
X157457027Y-69615960D01*
X157432500Y-69786548D01*
X157432500Y-74085128D01*
X157454110Y-74245450D01*
X157471777Y-74309793D01*
X157476845Y-74327223D01*
X157542574Y-74470977D01*
X157643269Y-74592820D01*
X157695252Y-74641174D01*
X157698951Y-74643740D01*
X157698955Y-74643743D01*
X157789574Y-74706600D01*
X157836862Y-74739401D01*
X157840880Y-74741410D01*
X157840885Y-74741413D01*
X160277337Y-75959639D01*
X160277344Y-75959642D01*
X160280608Y-75961274D01*
X160412283Y-76009001D01*
X160415832Y-76009839D01*
X160415836Y-76009840D01*
X160436145Y-76014634D01*
X160468632Y-76022303D01*
X160494841Y-76025355D01*
X160604118Y-76038078D01*
X160604123Y-76038078D01*
X160607745Y-76038500D01*
X205135149Y-76038500D01*
X205203270Y-76058502D01*
X205218121Y-76069675D01*
X205777472Y-76559108D01*
X205815566Y-76619019D01*
X205820500Y-76653933D01*
X205820500Y-79448649D01*
X205822476Y-79497526D01*
X205822578Y-79498783D01*
X205823926Y-79515425D01*
X205824118Y-79517801D01*
X205832520Y-79580550D01*
X205834318Y-79586042D01*
X205834318Y-79586044D01*
X205875836Y-79712891D01*
X205881689Y-79730775D01*
X205912392Y-79794790D01*
X205914896Y-79798529D01*
X206003264Y-79930505D01*
X206008280Y-79937997D01*
X207080927Y-81129827D01*
X207090917Y-81139494D01*
X207139383Y-81186393D01*
X207139390Y-81186400D01*
X207140945Y-81187904D01*
X207142604Y-81189301D01*
X207142606Y-81189303D01*
X207161993Y-81205630D01*
X207167464Y-81210238D01*
X207169527Y-81211708D01*
X207169535Y-81211714D01*
X207198953Y-81232673D01*
X207247165Y-81267022D01*
X207253299Y-81269668D01*
X207359906Y-81315654D01*
X207414533Y-81361001D01*
X207435972Y-81428684D01*
X207417415Y-81497212D01*
X207364755Y-81544830D01*
X207311125Y-81557344D01*
X207304533Y-81557403D01*
X207225862Y-81558105D01*
X207225855Y-81558105D01*
X207225198Y-81558111D01*
X207200727Y-81558824D01*
X207200151Y-81558852D01*
X207200137Y-81558853D01*
X207198100Y-81558954D01*
X207190545Y-81559327D01*
X207189604Y-81559404D01*
X207189587Y-81559405D01*
X207172460Y-81560805D01*
X207151747Y-81562497D01*
X207146762Y-81563741D01*
X207002385Y-81599771D01*
X207002381Y-81599772D01*
X206998383Y-81600770D01*
X206994551Y-81602280D01*
X206994546Y-81602282D01*
X206936516Y-81625155D01*
X206936511Y-81625158D01*
X206932331Y-81626805D01*
X206928429Y-81629030D01*
X206928423Y-81629033D01*
X206786527Y-81709950D01*
X206786523Y-81709953D01*
X206782619Y-81712179D01*
X205716091Y-82541732D01*
X205661062Y-82590155D01*
X205659718Y-82591490D01*
X205659712Y-82591496D01*
X205654992Y-82596186D01*
X205639461Y-82611618D01*
X205581894Y-82677769D01*
X205578750Y-82683354D01*
X205578749Y-82683355D01*
X205553370Y-82728435D01*
X205504350Y-82815508D01*
X205477894Y-82881391D01*
X205437087Y-83048834D01*
X205088747Y-86656763D01*
X205083879Y-86707180D01*
X205055258Y-86775734D01*
X204167670Y-87840841D01*
X204149068Y-87863163D01*
X204090092Y-87902690D01*
X204052272Y-87908500D01*
X184780626Y-87908500D01*
X184712505Y-87888498D01*
X184667968Y-87838928D01*
X184611054Y-87725297D01*
X184445574Y-87394915D01*
X184406149Y-87327459D01*
X184388005Y-87300563D01*
X184340236Y-87238760D01*
X184338893Y-87237236D01*
X184338885Y-87237227D01*
X184273030Y-87162530D01*
X184260927Y-87146352D01*
X184190480Y-87034484D01*
X184181119Y-87016579D01*
X184129465Y-86894890D01*
X184123086Y-86875713D01*
X184091551Y-86747325D01*
X184088320Y-86727375D01*
X184080406Y-86629015D01*
X184080000Y-86618910D01*
X184080000Y-86419870D01*
X184081839Y-86398423D01*
X184084638Y-86382222D01*
X184105042Y-86264095D01*
X184110067Y-86244521D01*
X184153109Y-86119515D01*
X184161201Y-86100994D01*
X184223674Y-85984485D01*
X184234621Y-85967499D01*
X184260064Y-85934219D01*
X184260067Y-85934214D01*
X184260820Y-85933230D01*
X184287658Y-85895180D01*
X184298204Y-85878936D01*
X184328785Y-85826196D01*
X184382124Y-85677400D01*
X184397153Y-85608013D01*
X184402583Y-85579703D01*
X184405405Y-85498639D01*
X184407794Y-85429981D01*
X184407794Y-85429980D01*
X184408081Y-85421731D01*
X184400618Y-85389421D01*
X184373434Y-85271740D01*
X184373432Y-85271734D01*
X184372505Y-85267720D01*
X184347634Y-85201223D01*
X184301143Y-85116264D01*
X184267067Y-85053991D01*
X184267064Y-85053987D01*
X184264904Y-85050039D01*
X184132387Y-84873349D01*
X183962879Y-84647338D01*
X183962873Y-84647331D01*
X183961200Y-84645100D01*
X183889201Y-84565054D01*
X183856522Y-84534656D01*
X183853990Y-84532738D01*
X183853983Y-84532732D01*
X183802636Y-84493834D01*
X183759263Y-84460976D01*
X183614709Y-84397029D01*
X183546588Y-84377027D01*
X183542132Y-84376386D01*
X183542126Y-84376385D01*
X183446220Y-84362596D01*
X183376000Y-84352500D01*
X181713256Y-84352500D01*
X181677751Y-84354411D01*
X181649955Y-84355907D01*
X181649950Y-84355907D01*
X181648267Y-84355998D01*
X181621376Y-84358901D01*
X181543104Y-84372595D01*
X181445893Y-84410273D01*
X181399562Y-84428230D01*
X181399558Y-84428232D01*
X181395721Y-84429719D01*
X181333438Y-84463798D01*
X181329832Y-84466503D01*
X181329831Y-84466503D01*
X181199155Y-84564503D01*
X181199151Y-84564506D01*
X181195554Y-84567204D01*
X181043639Y-84719385D01*
X181026377Y-84737405D01*
X180935514Y-84866746D01*
X180933601Y-84870406D01*
X180931462Y-84873920D01*
X180930525Y-84873349D01*
X180884601Y-84920973D01*
X180822217Y-84937500D01*
X179055016Y-84937501D01*
X178955640Y-84937501D01*
X178951556Y-84938039D01*
X178951550Y-84938039D01*
X178846425Y-84951878D01*
X178846423Y-84951878D01*
X178838238Y-84952956D01*
X178692159Y-85013464D01*
X178566718Y-85109718D01*
X178470464Y-85235159D01*
X178409956Y-85381238D01*
X178394500Y-85498639D01*
X178394501Y-87577360D01*
X178409956Y-87694762D01*
X178470464Y-87840841D01*
X178566718Y-87966282D01*
X178692159Y-88062536D01*
X178838238Y-88123044D01*
X178955639Y-88138500D01*
X179004910Y-88138500D01*
X180422388Y-88138499D01*
X180490509Y-88158501D01*
X180537002Y-88212157D01*
X180548388Y-88264499D01*
X180548388Y-91082217D01*
X180549111Y-91111799D01*
X180549712Y-91124086D01*
X180553450Y-91167868D01*
X180592918Y-91320929D01*
X180619467Y-91386775D01*
X180621728Y-91390669D01*
X180703749Y-91531928D01*
X180703753Y-91531933D01*
X180706010Y-91535821D01*
X181079447Y-92008276D01*
X182546239Y-93863994D01*
X182546246Y-93864002D01*
X182547886Y-93866077D01*
X182549702Y-93868012D01*
X182616253Y-93938926D01*
X182616261Y-93938934D01*
X182618079Y-93940871D01*
X182620060Y-93942652D01*
X182620067Y-93942659D01*
X182647450Y-93967279D01*
X182649706Y-93969307D01*
X182652138Y-93971102D01*
X182652145Y-93971107D01*
X182682743Y-93993682D01*
X182709620Y-94013511D01*
X182712123Y-94015358D01*
X182755064Y-94071897D01*
X182760621Y-94142675D01*
X182727030Y-94205223D01*
X182664956Y-94239680D01*
X182656374Y-94241299D01*
X182606325Y-94248958D01*
X182387424Y-94320506D01*
X182382832Y-94322896D01*
X182382833Y-94322896D01*
X182192301Y-94422081D01*
X182183149Y-94426845D01*
X181998984Y-94565119D01*
X181839877Y-94731616D01*
X181766131Y-94839724D01*
X181711220Y-94884726D01*
X181640695Y-94892897D01*
X181576948Y-94861643D01*
X181556251Y-94837159D01*
X181508215Y-94762906D01*
X181508213Y-94762903D01*
X181505405Y-94758563D01*
X181484774Y-94735889D01*
X181353890Y-94592051D01*
X181353889Y-94592050D01*
X181350412Y-94588229D01*
X181346361Y-94585030D01*
X181346357Y-94585026D01*
X181173735Y-94448697D01*
X181173730Y-94448693D01*
X181169681Y-94445496D01*
X181165165Y-94443003D01*
X181165162Y-94443001D01*
X180972589Y-94336695D01*
X180972585Y-94336693D01*
X180968065Y-94334198D01*
X180963196Y-94332474D01*
X180963192Y-94332472D01*
X180755853Y-94259049D01*
X180755849Y-94259048D01*
X180750978Y-94257323D01*
X180745885Y-94256416D01*
X180745882Y-94256415D01*
X180593594Y-94229289D01*
X180524250Y-94216937D01*
X180437802Y-94215881D01*
X180299141Y-94214186D01*
X180299139Y-94214186D01*
X180293971Y-94214123D01*
X180066325Y-94248958D01*
X179847424Y-94320506D01*
X179842832Y-94322896D01*
X179842833Y-94322896D01*
X179652301Y-94422081D01*
X179643149Y-94426845D01*
X179458984Y-94565119D01*
X179299877Y-94731616D01*
X179170099Y-94921863D01*
X179167923Y-94926552D01*
X179167919Y-94926558D01*
X179156145Y-94951924D01*
X179073136Y-95130752D01*
X179071752Y-95135744D01*
X179023879Y-95308369D01*
X179011592Y-95352673D01*
X179011043Y-95357810D01*
X178992303Y-95533161D01*
X178987119Y-95581665D01*
X178987416Y-95586817D01*
X178987416Y-95586821D01*
X178994511Y-95709864D01*
X179000376Y-95811580D01*
X179001513Y-95816626D01*
X179001514Y-95816632D01*
X179023196Y-95912842D01*
X179051006Y-96036242D01*
X179052948Y-96041024D01*
X179052949Y-96041028D01*
X179134799Y-96242599D01*
X179137649Y-96249618D01*
X179257979Y-96445978D01*
X179408763Y-96620048D01*
X179585953Y-96767154D01*
X179784790Y-96883345D01*
X179999934Y-96965501D01*
X180005000Y-96966532D01*
X180005001Y-96966532D01*
X180105697Y-96987018D01*
X180225607Y-97011414D01*
X180355352Y-97016172D01*
X180450585Y-97019664D01*
X180450589Y-97019664D01*
X180455749Y-97019853D01*
X180460869Y-97019197D01*
X180460871Y-97019197D01*
X180530272Y-97010307D01*
X180684178Y-96990591D01*
X180689126Y-96989106D01*
X180689133Y-96989105D01*
X180899811Y-96925898D01*
X180899810Y-96925898D01*
X180904761Y-96924413D01*
X181111574Y-96823096D01*
X181299062Y-96689363D01*
X181462190Y-96526803D01*
X181502329Y-96470944D01*
X181559489Y-96391397D01*
X181615484Y-96347749D01*
X181686187Y-96341303D01*
X181749152Y-96374106D01*
X181769245Y-96399089D01*
X181795278Y-96441572D01*
X181795282Y-96441577D01*
X181797979Y-96445978D01*
X181948763Y-96620048D01*
X182125953Y-96767154D01*
X182324790Y-96883345D01*
X182539934Y-96965501D01*
X182545000Y-96966532D01*
X182545001Y-96966532D01*
X182645697Y-96987018D01*
X182765607Y-97011414D01*
X182895352Y-97016172D01*
X182990585Y-97019664D01*
X182990589Y-97019664D01*
X182995749Y-97019853D01*
X183000869Y-97019197D01*
X183000871Y-97019197D01*
X183070272Y-97010307D01*
X183224178Y-96990591D01*
X183229126Y-96989106D01*
X183229133Y-96989105D01*
X183439811Y-96925898D01*
X183439810Y-96925898D01*
X183444761Y-96924413D01*
X183651574Y-96823096D01*
X183839062Y-96689363D01*
X184002190Y-96526803D01*
X184042329Y-96470944D01*
X184099489Y-96391397D01*
X184155484Y-96347749D01*
X184226187Y-96341303D01*
X184289152Y-96374106D01*
X184309245Y-96399089D01*
X184335278Y-96441572D01*
X184335282Y-96441577D01*
X184337979Y-96445978D01*
X184488763Y-96620048D01*
X184665953Y-96767154D01*
X184864790Y-96883345D01*
X185079934Y-96965501D01*
X185085000Y-96966532D01*
X185085001Y-96966532D01*
X185185697Y-96987018D01*
X185305607Y-97011414D01*
X185435352Y-97016172D01*
X185530585Y-97019664D01*
X185530589Y-97019664D01*
X185535749Y-97019853D01*
X185540869Y-97019197D01*
X185540871Y-97019197D01*
X185610272Y-97010307D01*
X185764178Y-96990591D01*
X185769126Y-96989106D01*
X185769133Y-96989105D01*
X185979811Y-96925898D01*
X185979810Y-96925898D01*
X185984761Y-96924413D01*
X186191574Y-96823096D01*
X186379062Y-96689363D01*
X186542190Y-96526803D01*
X186582329Y-96470944D01*
X186639489Y-96391397D01*
X186695484Y-96347749D01*
X186766187Y-96341303D01*
X186829152Y-96374106D01*
X186849245Y-96399089D01*
X186875278Y-96441572D01*
X186875282Y-96441577D01*
X186877979Y-96445978D01*
X187028763Y-96620048D01*
X187205953Y-96767154D01*
X187404790Y-96883345D01*
X187619934Y-96965501D01*
X187625000Y-96966532D01*
X187625001Y-96966532D01*
X187725697Y-96987018D01*
X187845607Y-97011414D01*
X187975352Y-97016172D01*
X188070585Y-97019664D01*
X188070589Y-97019664D01*
X188075749Y-97019853D01*
X188080869Y-97019197D01*
X188080871Y-97019197D01*
X188150272Y-97010307D01*
X188304178Y-96990591D01*
X188309126Y-96989106D01*
X188309133Y-96989105D01*
X188519811Y-96925898D01*
X188519810Y-96925898D01*
X188524761Y-96924413D01*
X188731574Y-96823096D01*
X188919062Y-96689363D01*
X189082190Y-96526803D01*
X189122329Y-96470944D01*
X189179489Y-96391397D01*
X189235484Y-96347749D01*
X189306187Y-96341303D01*
X189369152Y-96374106D01*
X189389245Y-96399089D01*
X189415278Y-96441572D01*
X189415282Y-96441577D01*
X189417979Y-96445978D01*
X189568763Y-96620048D01*
X189745953Y-96767154D01*
X189944790Y-96883345D01*
X190159934Y-96965501D01*
X190165000Y-96966532D01*
X190165001Y-96966532D01*
X190265697Y-96987018D01*
X190385607Y-97011414D01*
X190515352Y-97016172D01*
X190610585Y-97019664D01*
X190610589Y-97019664D01*
X190615749Y-97019853D01*
X190620869Y-97019197D01*
X190620871Y-97019197D01*
X190690272Y-97010307D01*
X190844178Y-96990591D01*
X190849126Y-96989106D01*
X190849133Y-96989105D01*
X191059811Y-96925898D01*
X191059810Y-96925898D01*
X191064761Y-96924413D01*
X191271574Y-96823096D01*
X191459062Y-96689363D01*
X191622190Y-96526803D01*
X191662329Y-96470944D01*
X191719489Y-96391397D01*
X191775484Y-96347749D01*
X191846187Y-96341303D01*
X191909152Y-96374106D01*
X191929245Y-96399089D01*
X191955278Y-96441572D01*
X191955282Y-96441577D01*
X191957979Y-96445978D01*
X192108763Y-96620048D01*
X192285953Y-96767154D01*
X192484790Y-96883345D01*
X192699934Y-96965501D01*
X192705000Y-96966532D01*
X192705001Y-96966532D01*
X192805697Y-96987018D01*
X192925607Y-97011414D01*
X193055352Y-97016172D01*
X193150585Y-97019664D01*
X193150589Y-97019664D01*
X193155749Y-97019853D01*
X193160869Y-97019197D01*
X193160871Y-97019197D01*
X193230272Y-97010307D01*
X193384178Y-96990591D01*
X193389126Y-96989106D01*
X193389133Y-96989105D01*
X193599811Y-96925898D01*
X193599810Y-96925898D01*
X193604761Y-96924413D01*
X193811574Y-96823096D01*
X193999062Y-96689363D01*
X194162190Y-96526803D01*
X194202329Y-96470944D01*
X194259489Y-96391397D01*
X194315484Y-96347749D01*
X194386187Y-96341303D01*
X194449152Y-96374106D01*
X194469245Y-96399089D01*
X194495278Y-96441572D01*
X194495282Y-96441577D01*
X194497979Y-96445978D01*
X194648763Y-96620048D01*
X194825953Y-96767154D01*
X195024790Y-96883345D01*
X195239934Y-96965501D01*
X195245000Y-96966532D01*
X195245001Y-96966532D01*
X195345697Y-96987018D01*
X195465607Y-97011414D01*
X195595352Y-97016172D01*
X195690585Y-97019664D01*
X195690589Y-97019664D01*
X195695749Y-97019853D01*
X195700869Y-97019197D01*
X195700871Y-97019197D01*
X195770272Y-97010307D01*
X195924178Y-96990591D01*
X195929126Y-96989106D01*
X195929133Y-96989105D01*
X196139811Y-96925898D01*
X196139810Y-96925898D01*
X196144761Y-96924413D01*
X196351574Y-96823096D01*
X196539062Y-96689363D01*
X196702190Y-96526803D01*
X196742329Y-96470944D01*
X196799489Y-96391397D01*
X196855484Y-96347749D01*
X196926187Y-96341303D01*
X196989152Y-96374106D01*
X197009245Y-96399089D01*
X197035278Y-96441572D01*
X197035282Y-96441577D01*
X197037979Y-96445978D01*
X197188763Y-96620048D01*
X197365953Y-96767154D01*
X197564790Y-96883345D01*
X197779934Y-96965501D01*
X197785000Y-96966532D01*
X197785001Y-96966532D01*
X197885697Y-96987018D01*
X198005607Y-97011414D01*
X198135352Y-97016172D01*
X198230585Y-97019664D01*
X198230589Y-97019664D01*
X198235749Y-97019853D01*
X198240869Y-97019197D01*
X198240871Y-97019197D01*
X198310272Y-97010307D01*
X198464178Y-96990591D01*
X198469126Y-96989106D01*
X198469133Y-96989105D01*
X198679811Y-96925898D01*
X198679810Y-96925898D01*
X198684761Y-96924413D01*
X198891574Y-96823096D01*
X199079062Y-96689363D01*
X199242190Y-96526803D01*
X199282329Y-96470944D01*
X199339489Y-96391397D01*
X199395484Y-96347749D01*
X199466187Y-96341303D01*
X199529152Y-96374106D01*
X199549245Y-96399089D01*
X199575278Y-96441572D01*
X199575282Y-96441577D01*
X199577979Y-96445978D01*
X199728763Y-96620048D01*
X199905953Y-96767154D01*
X200104790Y-96883345D01*
X200319934Y-96965501D01*
X200325000Y-96966532D01*
X200325001Y-96966532D01*
X200425697Y-96987018D01*
X200545607Y-97011414D01*
X200675352Y-97016172D01*
X200770585Y-97019664D01*
X200770589Y-97019664D01*
X200775749Y-97019853D01*
X200780869Y-97019197D01*
X200780871Y-97019197D01*
X200850272Y-97010307D01*
X201004178Y-96990591D01*
X201009126Y-96989106D01*
X201009133Y-96989105D01*
X201219811Y-96925898D01*
X201219810Y-96925898D01*
X201224761Y-96924413D01*
X201431574Y-96823096D01*
X201619062Y-96689363D01*
X201782190Y-96526803D01*
X201822329Y-96470944D01*
X201879489Y-96391397D01*
X201935484Y-96347749D01*
X202006187Y-96341303D01*
X202069152Y-96374106D01*
X202089245Y-96399089D01*
X202115278Y-96441572D01*
X202115282Y-96441577D01*
X202117979Y-96445978D01*
X202268763Y-96620048D01*
X202445953Y-96767154D01*
X202644790Y-96883345D01*
X202859934Y-96965501D01*
X202865000Y-96966532D01*
X202865001Y-96966532D01*
X202965697Y-96987018D01*
X203085607Y-97011414D01*
X203215352Y-97016172D01*
X203310585Y-97019664D01*
X203310589Y-97019664D01*
X203315749Y-97019853D01*
X203320869Y-97019197D01*
X203320871Y-97019197D01*
X203390272Y-97010307D01*
X203544178Y-96990591D01*
X203549126Y-96989106D01*
X203549133Y-96989105D01*
X203759811Y-96925898D01*
X203759810Y-96925898D01*
X203764761Y-96924413D01*
X203971574Y-96823096D01*
X204159062Y-96689363D01*
X204322190Y-96526803D01*
X204362329Y-96470944D01*
X204419489Y-96391397D01*
X204475484Y-96347749D01*
X204546187Y-96341303D01*
X204609152Y-96374106D01*
X204629245Y-96399089D01*
X204655278Y-96441572D01*
X204655282Y-96441577D01*
X204657979Y-96445978D01*
X204808763Y-96620048D01*
X204985953Y-96767154D01*
X205184790Y-96883345D01*
X205399934Y-96965501D01*
X205405000Y-96966532D01*
X205405001Y-96966532D01*
X205505697Y-96987018D01*
X205625607Y-97011414D01*
X205755352Y-97016172D01*
X205850585Y-97019664D01*
X205850589Y-97019664D01*
X205855749Y-97019853D01*
X205860869Y-97019197D01*
X205860871Y-97019197D01*
X205930272Y-97010307D01*
X206084178Y-96990591D01*
X206089126Y-96989106D01*
X206089133Y-96989105D01*
X206299811Y-96925898D01*
X206299810Y-96925898D01*
X206304761Y-96924413D01*
X206511574Y-96823096D01*
X206699062Y-96689363D01*
X206862190Y-96526803D01*
X206902329Y-96470944D01*
X206959489Y-96391397D01*
X207015484Y-96347749D01*
X207086187Y-96341303D01*
X207149152Y-96374106D01*
X207169245Y-96399089D01*
X207195278Y-96441572D01*
X207195282Y-96441577D01*
X207197979Y-96445978D01*
X207348763Y-96620048D01*
X207525953Y-96767154D01*
X207724790Y-96883345D01*
X207939934Y-96965501D01*
X207945000Y-96966532D01*
X207945001Y-96966532D01*
X208045697Y-96987018D01*
X208165607Y-97011414D01*
X208295352Y-97016172D01*
X208390585Y-97019664D01*
X208390589Y-97019664D01*
X208395749Y-97019853D01*
X208400869Y-97019197D01*
X208400871Y-97019197D01*
X208470272Y-97010307D01*
X208624178Y-96990591D01*
X208629126Y-96989106D01*
X208629133Y-96989105D01*
X208839811Y-96925898D01*
X208839810Y-96925898D01*
X208844761Y-96924413D01*
X209051574Y-96823096D01*
X209239062Y-96689363D01*
X209402190Y-96526803D01*
X209442329Y-96470944D01*
X209499489Y-96391397D01*
X209555484Y-96347749D01*
X209626187Y-96341303D01*
X209689152Y-96374106D01*
X209709245Y-96399089D01*
X209735278Y-96441572D01*
X209735282Y-96441577D01*
X209737979Y-96445978D01*
X209888763Y-96620048D01*
X210065953Y-96767154D01*
X210264790Y-96883345D01*
X210479934Y-96965501D01*
X210485000Y-96966532D01*
X210485001Y-96966532D01*
X210585697Y-96987018D01*
X210705607Y-97011414D01*
X210835352Y-97016172D01*
X210930585Y-97019664D01*
X210930589Y-97019664D01*
X210935749Y-97019853D01*
X210940869Y-97019197D01*
X210940871Y-97019197D01*
X211010272Y-97010307D01*
X211164178Y-96990591D01*
X211169126Y-96989106D01*
X211169133Y-96989105D01*
X211379811Y-96925898D01*
X211379810Y-96925898D01*
X211384761Y-96924413D01*
X211591574Y-96823096D01*
X211779062Y-96689363D01*
X211942190Y-96526803D01*
X211982613Y-96470549D01*
X212073559Y-96343983D01*
X212076577Y-96339783D01*
X212178615Y-96133325D01*
X212228387Y-95969509D01*
X212244059Y-95917927D01*
X212244060Y-95917921D01*
X212245563Y-95912975D01*
X212262210Y-95786529D01*
X212275185Y-95687971D01*
X212275185Y-95687965D01*
X212275622Y-95684649D01*
X212276360Y-95654466D01*
X212277218Y-95619364D01*
X212277218Y-95619360D01*
X212277300Y-95616000D01*
X212258430Y-95386478D01*
X212202326Y-95163120D01*
X212142248Y-95024949D01*
X212112556Y-94956661D01*
X212112554Y-94956658D01*
X212110496Y-94951924D01*
X212006702Y-94791483D01*
X211988215Y-94762906D01*
X211988213Y-94762903D01*
X211985405Y-94758563D01*
X211964774Y-94735889D01*
X211833890Y-94592051D01*
X211833889Y-94592050D01*
X211830412Y-94588229D01*
X211826361Y-94585030D01*
X211826357Y-94585026D01*
X211653735Y-94448697D01*
X211653730Y-94448693D01*
X211649681Y-94445496D01*
X211645165Y-94443003D01*
X211645162Y-94443001D01*
X211452589Y-94336695D01*
X211452585Y-94336693D01*
X211448065Y-94334198D01*
X211443196Y-94332474D01*
X211443192Y-94332472D01*
X211235853Y-94259049D01*
X211235849Y-94259048D01*
X211230978Y-94257323D01*
X211225885Y-94256416D01*
X211225882Y-94256415D01*
X211073594Y-94229289D01*
X211004250Y-94216937D01*
X210917802Y-94215881D01*
X210779141Y-94214186D01*
X210779139Y-94214186D01*
X210773971Y-94214123D01*
X210546325Y-94248958D01*
X210327424Y-94320506D01*
X210322832Y-94322896D01*
X210322833Y-94322896D01*
X210132301Y-94422081D01*
X210123149Y-94426845D01*
X209938984Y-94565119D01*
X209779877Y-94731616D01*
X209706131Y-94839724D01*
X209651220Y-94884726D01*
X209580695Y-94892897D01*
X209516948Y-94861643D01*
X209496251Y-94837159D01*
X209448215Y-94762906D01*
X209448213Y-94762903D01*
X209445405Y-94758563D01*
X209424774Y-94735889D01*
X209293890Y-94592051D01*
X209293889Y-94592050D01*
X209290412Y-94588229D01*
X209286361Y-94585030D01*
X209286357Y-94585026D01*
X209113735Y-94448697D01*
X209113730Y-94448693D01*
X209109681Y-94445496D01*
X209105165Y-94443003D01*
X209105162Y-94443001D01*
X208912589Y-94336695D01*
X208912585Y-94336693D01*
X208908065Y-94334198D01*
X208903196Y-94332474D01*
X208903192Y-94332472D01*
X208695853Y-94259049D01*
X208695849Y-94259048D01*
X208690978Y-94257323D01*
X208685885Y-94256416D01*
X208685882Y-94256415D01*
X208533594Y-94229289D01*
X208464250Y-94216937D01*
X208377802Y-94215881D01*
X208239141Y-94214186D01*
X208239139Y-94214186D01*
X208233971Y-94214123D01*
X208006325Y-94248958D01*
X207787424Y-94320506D01*
X207782832Y-94322896D01*
X207782833Y-94322896D01*
X207592301Y-94422081D01*
X207583149Y-94426845D01*
X207398984Y-94565119D01*
X207239877Y-94731616D01*
X207166131Y-94839724D01*
X207111220Y-94884726D01*
X207040695Y-94892897D01*
X206976948Y-94861643D01*
X206956251Y-94837159D01*
X206908215Y-94762906D01*
X206908213Y-94762903D01*
X206905405Y-94758563D01*
X206884774Y-94735889D01*
X206753890Y-94592051D01*
X206753889Y-94592050D01*
X206750412Y-94588229D01*
X206746361Y-94585030D01*
X206746357Y-94585026D01*
X206573735Y-94448697D01*
X206573730Y-94448693D01*
X206569681Y-94445496D01*
X206565165Y-94443003D01*
X206565162Y-94443001D01*
X206372589Y-94336695D01*
X206372585Y-94336693D01*
X206368065Y-94334198D01*
X206363196Y-94332474D01*
X206363192Y-94332472D01*
X206155853Y-94259049D01*
X206155849Y-94259048D01*
X206150978Y-94257323D01*
X206145885Y-94256416D01*
X206145882Y-94256415D01*
X205993594Y-94229289D01*
X205924250Y-94216937D01*
X205837802Y-94215881D01*
X205699141Y-94214186D01*
X205699139Y-94214186D01*
X205693971Y-94214123D01*
X205466325Y-94248958D01*
X205247424Y-94320506D01*
X205242832Y-94322896D01*
X205242833Y-94322896D01*
X205052301Y-94422081D01*
X205043149Y-94426845D01*
X204858984Y-94565119D01*
X204699877Y-94731616D01*
X204626131Y-94839724D01*
X204571220Y-94884726D01*
X204500695Y-94892897D01*
X204436948Y-94861643D01*
X204416251Y-94837159D01*
X204368215Y-94762906D01*
X204368213Y-94762903D01*
X204365405Y-94758563D01*
X204344774Y-94735889D01*
X204213890Y-94592051D01*
X204213889Y-94592050D01*
X204210412Y-94588229D01*
X204206361Y-94585030D01*
X204206357Y-94585026D01*
X204033735Y-94448697D01*
X204033730Y-94448693D01*
X204029681Y-94445496D01*
X204025165Y-94443003D01*
X204025162Y-94443001D01*
X203832589Y-94336695D01*
X203832585Y-94336693D01*
X203828065Y-94334198D01*
X203823196Y-94332474D01*
X203823192Y-94332472D01*
X203615853Y-94259049D01*
X203615849Y-94259048D01*
X203610978Y-94257323D01*
X203605885Y-94256416D01*
X203605882Y-94256415D01*
X203415475Y-94222499D01*
X203351918Y-94190861D01*
X203315554Y-94129884D01*
X203317931Y-94058927D01*
X203358292Y-94000519D01*
X203423824Y-93973204D01*
X203436507Y-93972456D01*
X204263040Y-93965477D01*
X221611590Y-93818981D01*
X221611598Y-93818981D01*
X221613808Y-93818962D01*
X221616029Y-93818786D01*
X221696783Y-93812387D01*
X221696795Y-93812386D01*
X221699011Y-93812210D01*
X221712270Y-93810210D01*
X221731503Y-93807309D01*
X221731510Y-93807308D01*
X221734093Y-93806918D01*
X221736636Y-93806317D01*
X221736639Y-93806316D01*
X221778912Y-93796318D01*
X221831240Y-93783942D01*
X221973867Y-93715805D01*
X222033386Y-93677101D01*
X222163026Y-93563542D01*
X222857396Y-92753444D01*
X222883361Y-92720958D01*
X222893693Y-92707079D01*
X222925024Y-92660653D01*
X222988971Y-92516099D01*
X223008973Y-92447978D01*
X223033500Y-92277390D01*
X223033500Y-83351198D01*
X223032688Y-83319856D01*
X223032013Y-83306833D01*
X223029746Y-83281587D01*
X223028398Y-83266576D01*
X223028398Y-83266574D01*
X223027922Y-83261277D01*
X222987555Y-83108451D01*
X222985998Y-83104654D01*
X222985995Y-83104645D01*
X222962324Y-83046919D01*
X222962322Y-83046914D01*
X222960619Y-83042762D01*
X222958342Y-83038893D01*
X222958339Y-83038887D01*
X222875486Y-82898108D01*
X222875483Y-82898104D01*
X222873205Y-82894233D01*
X221923080Y-81706577D01*
X221921274Y-81704670D01*
X221921268Y-81704663D01*
X221855481Y-81635195D01*
X221853679Y-81633292D01*
X221822462Y-81605402D01*
X221729560Y-81537121D01*
X221584441Y-81474467D01*
X221516144Y-81455074D01*
X221511679Y-81454473D01*
X221511671Y-81454471D01*
X221477646Y-81449888D01*
X221412805Y-81420973D01*
X221373890Y-81361591D01*
X221373257Y-81290597D01*
X221411106Y-81230531D01*
X221454178Y-81205630D01*
X221519826Y-81183477D01*
X221519833Y-81183474D01*
X221523739Y-81182156D01*
X221527438Y-81180340D01*
X221527443Y-81180338D01*
X221583428Y-81152854D01*
X221583435Y-81152850D01*
X221587470Y-81150869D01*
X221591189Y-81148330D01*
X221591193Y-81148327D01*
X221726060Y-81056226D01*
X221729787Y-81053681D01*
X223177292Y-79726801D01*
X223178701Y-79725332D01*
X223178714Y-79725319D01*
X223206306Y-79696545D01*
X223231235Y-79670549D01*
X223252092Y-79645789D01*
X223264345Y-79628761D01*
X223299034Y-79580550D01*
X223306024Y-79570836D01*
X223369971Y-79426282D01*
X223389973Y-79358161D01*
X223390738Y-79352845D01*
X223404404Y-79257793D01*
X223414500Y-79187573D01*
X223414500Y-70010149D01*
X223414186Y-69990651D01*
X223388518Y-69834682D01*
X223367356Y-69764790D01*
X223361407Y-69746225D01*
X223291644Y-69604386D01*
X223289360Y-69600960D01*
X223289356Y-69600953D01*
X222112258Y-67835307D01*
X222080506Y-67787679D01*
X222066805Y-67771165D01*
X222012490Y-67705693D01*
X221984389Y-67640494D01*
X221995999Y-67570453D01*
X222016231Y-67540486D01*
X223096367Y-66352337D01*
X223096369Y-66352335D01*
X223097266Y-66351348D01*
X223129597Y-66312664D01*
X223142363Y-66296028D01*
X223179024Y-66242551D01*
X223242971Y-66097997D01*
X223262973Y-66029876D01*
X223287500Y-65859288D01*
X223287500Y-57709583D01*
X223281869Y-57627197D01*
X223277204Y-57593230D01*
X223256370Y-57498561D01*
X223190815Y-57354728D01*
X223165952Y-57314942D01*
X223155579Y-57298343D01*
X223155575Y-57298338D01*
X223153190Y-57294521D01*
X223041982Y-57162853D01*
X221977498Y-56216645D01*
X221939256Y-56185350D01*
X221922837Y-56172997D01*
X221921488Y-56172089D01*
X221921475Y-56172080D01*
X221874700Y-56140605D01*
X221874695Y-56140602D01*
X221869899Y-56137375D01*
X221864590Y-56135076D01*
X221864583Y-56135072D01*
X221749782Y-56085356D01*
X221695220Y-56039930D01*
X221673878Y-55972217D01*
X221692534Y-55903715D01*
X221737340Y-55860334D01*
X222079701Y-55664699D01*
X222284685Y-55547565D01*
X222398845Y-55463161D01*
X222441615Y-55422983D01*
X222444194Y-55419840D01*
X222444200Y-55419834D01*
X222535550Y-55308522D01*
X222535551Y-55308520D01*
X222540760Y-55302173D01*
X222599520Y-55172997D01*
X222604501Y-55162048D01*
X222604501Y-55162047D01*
X222606209Y-55158293D01*
X222607412Y-55154349D01*
X222625607Y-55094687D01*
X222625608Y-55094683D01*
X222626919Y-55090384D01*
X222631140Y-55063053D01*
X222652532Y-54924518D01*
X222653220Y-54920064D01*
X222654252Y-54821044D01*
X222728037Y-47737544D01*
X222745887Y-46023951D01*
X222766597Y-45956042D01*
X222820734Y-45910110D01*
X222891110Y-45900739D01*
X222955380Y-45930903D01*
X222977552Y-45956638D01*
X223083137Y-46119225D01*
X223320635Y-46412511D01*
X223587489Y-46679365D01*
X223880775Y-46916863D01*
X224197279Y-47122403D01*
X224200213Y-47123898D01*
X224200220Y-47123902D01*
X224530595Y-47292236D01*
X224533535Y-47293734D01*
X224885857Y-47428978D01*
X225250387Y-47526653D01*
X225448353Y-47558008D01*
X225619881Y-47585176D01*
X225619889Y-47585177D01*
X225623129Y-47585690D01*
X226000000Y-47605441D01*
X226376871Y-47585690D01*
X226380111Y-47585177D01*
X226380119Y-47585176D01*
X226551647Y-47558008D01*
X226749613Y-47526653D01*
X227114143Y-47428978D01*
X227466465Y-47293734D01*
X227469405Y-47292236D01*
X227799780Y-47123902D01*
X227799787Y-47123898D01*
X227802721Y-47122403D01*
X228119225Y-46916863D01*
X228412511Y-46679365D01*
X228679365Y-46412511D01*
X228916863Y-46119225D01*
X229122403Y-45802720D01*
X229161233Y-45726512D01*
X229209981Y-45674897D01*
X229278896Y-45657831D01*
X229346098Y-45680732D01*
X229390250Y-45736329D01*
X229399500Y-45783715D01*
X229399500Y-114216285D01*
X229379498Y-114284406D01*
X229325842Y-114330899D01*
X229255568Y-114341003D01*
X229190988Y-114311509D01*
X229161233Y-114273488D01*
X229123902Y-114200221D01*
X229123898Y-114200214D01*
X229122403Y-114197280D01*
X229096628Y-114157589D01*
X228924869Y-113893103D01*
X228916863Y-113880775D01*
X228679365Y-113587489D01*
X228412511Y-113320635D01*
X228119225Y-113083137D01*
X227802721Y-112877597D01*
X227799787Y-112876102D01*
X227799780Y-112876098D01*
X227469405Y-112707764D01*
X227466465Y-112706266D01*
X227114143Y-112571022D01*
X226749613Y-112473347D01*
X226551647Y-112441992D01*
X226380119Y-112414824D01*
X226380111Y-112414823D01*
X226376871Y-112414310D01*
X226000000Y-112394559D01*
X225623129Y-112414310D01*
X225619889Y-112414823D01*
X225619881Y-112414824D01*
X225448353Y-112441992D01*
X225250387Y-112473347D01*
X224885857Y-112571022D01*
X224533535Y-112706266D01*
X224530595Y-112707764D01*
X224200221Y-112876098D01*
X224200214Y-112876102D01*
X224197280Y-112877597D01*
X223880775Y-113083137D01*
X223587489Y-113320635D01*
X223320635Y-113587489D01*
X223083137Y-113880775D01*
X223075131Y-113893103D01*
X222903373Y-114157589D01*
X222877597Y-114197280D01*
X222876102Y-114200214D01*
X222876098Y-114200221D01*
X222736791Y-114473627D01*
X222706266Y-114533535D01*
X222681739Y-114597430D01*
X222598473Y-114814346D01*
X222571022Y-114885857D01*
X222473347Y-115250387D01*
X222465970Y-115296963D01*
X222415554Y-115615277D01*
X222414310Y-115623129D01*
X222394559Y-116000000D01*
X222414310Y-116376871D01*
X222414823Y-116380111D01*
X222414824Y-116380119D01*
X222436705Y-116518264D01*
X222473347Y-116749613D01*
X222571022Y-117114143D01*
X222706266Y-117466465D01*
X222707764Y-117469405D01*
X222864886Y-117777773D01*
X222877597Y-117802720D01*
X222879393Y-117805486D01*
X222879395Y-117805489D01*
X222943473Y-117904161D01*
X223083137Y-118119225D01*
X223320635Y-118412511D01*
X223587489Y-118679365D01*
X223880775Y-118916863D01*
X224197279Y-119122403D01*
X224200213Y-119123898D01*
X224200220Y-119123902D01*
X224273487Y-119161233D01*
X224325102Y-119209981D01*
X224342168Y-119278896D01*
X224319267Y-119346098D01*
X224263670Y-119390250D01*
X224216284Y-119399500D01*
X105783716Y-119399500D01*
X105715595Y-119379498D01*
X105669102Y-119325842D01*
X105658998Y-119255568D01*
X105688492Y-119190988D01*
X105726513Y-119161233D01*
X105799780Y-119123902D01*
X105799787Y-119123898D01*
X105802721Y-119122403D01*
X106119225Y-118916863D01*
X106412511Y-118679365D01*
X106679365Y-118412511D01*
X106916863Y-118119225D01*
X107056527Y-117904161D01*
X107120605Y-117805489D01*
X107120607Y-117805486D01*
X107122403Y-117802720D01*
X107135115Y-117777773D01*
X107292236Y-117469405D01*
X107293734Y-117466465D01*
X107428978Y-117114143D01*
X107526653Y-116749613D01*
X107563295Y-116518264D01*
X107585176Y-116380119D01*
X107585177Y-116380111D01*
X107585690Y-116376871D01*
X107605441Y-116000000D01*
X107597894Y-115856000D01*
X138776341Y-115856000D01*
X138796937Y-116091408D01*
X138798361Y-116096722D01*
X138798361Y-116096723D01*
X138853115Y-116301068D01*
X138858097Y-116319663D01*
X138860419Y-116324643D01*
X138860420Y-116324645D01*
X138941123Y-116497711D01*
X138957965Y-116533829D01*
X139093505Y-116727401D01*
X139260599Y-116894495D01*
X139265107Y-116897652D01*
X139265110Y-116897654D01*
X139412859Y-117001109D01*
X139454170Y-117030035D01*
X139459152Y-117032358D01*
X139459157Y-117032361D01*
X139641166Y-117117233D01*
X139668337Y-117129903D01*
X139673645Y-117131325D01*
X139673647Y-117131326D01*
X139891277Y-117189639D01*
X139896592Y-117191063D01*
X140132000Y-117211659D01*
X140242823Y-117201963D01*
X165288757Y-117201963D01*
X165305175Y-117397483D01*
X165359258Y-117586091D01*
X165362076Y-117591574D01*
X165446123Y-117755113D01*
X165446126Y-117755117D01*
X165448944Y-117760601D01*
X165570818Y-117914369D01*
X165575511Y-117918363D01*
X165575512Y-117918364D01*
X165667052Y-117996270D01*
X165720238Y-118041535D01*
X165725616Y-118044541D01*
X165725618Y-118044542D01*
X165761485Y-118064587D01*
X165891513Y-118137257D01*
X166078118Y-118197889D01*
X166272946Y-118221121D01*
X166279081Y-118220649D01*
X166279083Y-118220649D01*
X166462434Y-118206541D01*
X166462438Y-118206540D01*
X166468576Y-118206068D01*
X166657556Y-118153303D01*
X166794685Y-118084034D01*
X166851496Y-118070500D01*
X184287762Y-118070500D01*
X184298305Y-118070942D01*
X184350000Y-118075283D01*
X184356760Y-118074381D01*
X184356761Y-118074381D01*
X184382533Y-118070942D01*
X184430185Y-118064584D01*
X184433186Y-118064221D01*
X184513573Y-118055488D01*
X184520036Y-118053313D01*
X184523177Y-118052622D01*
X184523623Y-118052543D01*
X184523707Y-118052524D01*
X184524156Y-118052393D01*
X184527259Y-118051631D01*
X184534029Y-118050728D01*
X184610010Y-118023073D01*
X184612913Y-118022056D01*
X184683069Y-117998446D01*
X184689535Y-117996270D01*
X184695387Y-117992754D01*
X184698300Y-117991408D01*
X184698733Y-117991230D01*
X184698789Y-117991203D01*
X184699190Y-117990984D01*
X184702077Y-117989564D01*
X184708491Y-117987229D01*
X184714248Y-117983576D01*
X184714251Y-117983574D01*
X184776739Y-117943917D01*
X184779360Y-117942298D01*
X184842832Y-117904161D01*
X184848677Y-117900649D01*
X184853633Y-117895963D01*
X184856208Y-117894008D01*
X184856957Y-117893487D01*
X184860880Y-117890520D01*
X184865249Y-117887747D01*
X184869495Y-117883950D01*
X184923228Y-117830217D01*
X184925750Y-117827764D01*
X184978614Y-117777773D01*
X184978616Y-117777771D01*
X184983572Y-117773084D01*
X184987406Y-117767443D01*
X184991832Y-117762242D01*
X184992232Y-117762583D01*
X184998808Y-117754637D01*
X186047064Y-116706382D01*
X186054831Y-116699239D01*
X186089240Y-116670161D01*
X186094454Y-116665755D01*
X186143583Y-116601496D01*
X186145438Y-116599131D01*
X186191846Y-116541411D01*
X186191847Y-116541410D01*
X186196120Y-116536095D01*
X186199153Y-116529986D01*
X186200893Y-116527265D01*
X186201158Y-116526886D01*
X186201177Y-116526855D01*
X186201405Y-116526441D01*
X186203071Y-116523690D01*
X186207219Y-116518264D01*
X186241390Y-116444982D01*
X186242725Y-116442209D01*
X186274288Y-116378627D01*
X186278671Y-116369798D01*
X186280321Y-116363180D01*
X186281433Y-116360158D01*
X186281609Y-116359735D01*
X186281630Y-116359676D01*
X186281763Y-116359224D01*
X186282797Y-116356187D01*
X186285682Y-116350000D01*
X186303318Y-116271100D01*
X186304027Y-116268104D01*
X186321936Y-116196278D01*
X186321937Y-116196270D01*
X186323587Y-116189653D01*
X186323778Y-116182832D01*
X186324217Y-116179625D01*
X186324377Y-116178736D01*
X186325054Y-116173860D01*
X186326182Y-116168812D01*
X186326500Y-116163124D01*
X186326500Y-116087110D01*
X186326549Y-116083592D01*
X186326689Y-116078574D01*
X186328770Y-116004066D01*
X186327491Y-115997360D01*
X186326944Y-115990563D01*
X186327471Y-115990521D01*
X186326500Y-115980257D01*
X186326500Y-112031714D01*
X186346502Y-111963593D01*
X186371173Y-111935475D01*
X186374853Y-111932365D01*
X186379062Y-111929363D01*
X186409927Y-111898606D01*
X186538529Y-111770451D01*
X186542190Y-111766803D01*
X186593527Y-111695360D01*
X186639489Y-111631397D01*
X186695484Y-111587749D01*
X186766187Y-111581303D01*
X186829152Y-111614106D01*
X186849245Y-111639089D01*
X186875278Y-111681572D01*
X186875282Y-111681577D01*
X186877979Y-111685978D01*
X187028763Y-111860048D01*
X187205953Y-112007154D01*
X187404790Y-112123345D01*
X187619934Y-112205501D01*
X187625000Y-112206532D01*
X187625001Y-112206532D01*
X187725697Y-112227018D01*
X187845607Y-112251414D01*
X187969637Y-112255962D01*
X188070585Y-112259664D01*
X188070589Y-112259664D01*
X188075749Y-112259853D01*
X188080869Y-112259197D01*
X188080871Y-112259197D01*
X188171556Y-112247580D01*
X188304178Y-112230591D01*
X188309126Y-112229106D01*
X188309133Y-112229105D01*
X188519811Y-112165898D01*
X188519810Y-112165898D01*
X188524761Y-112164413D01*
X188731574Y-112063096D01*
X188919062Y-111929363D01*
X189082190Y-111766803D01*
X189133527Y-111695360D01*
X189179489Y-111631397D01*
X189235484Y-111587749D01*
X189306187Y-111581303D01*
X189369152Y-111614106D01*
X189389245Y-111639089D01*
X189415278Y-111681572D01*
X189415282Y-111681577D01*
X189417979Y-111685978D01*
X189568763Y-111860048D01*
X189745953Y-112007154D01*
X189944790Y-112123345D01*
X190159934Y-112205501D01*
X190165000Y-112206532D01*
X190165001Y-112206532D01*
X190265697Y-112227018D01*
X190385607Y-112251414D01*
X190509637Y-112255962D01*
X190610585Y-112259664D01*
X190610589Y-112259664D01*
X190615749Y-112259853D01*
X190620869Y-112259197D01*
X190620871Y-112259197D01*
X190711556Y-112247580D01*
X190844178Y-112230591D01*
X190849126Y-112229106D01*
X190849133Y-112229105D01*
X191059811Y-112165898D01*
X191059810Y-112165898D01*
X191064761Y-112164413D01*
X191271574Y-112063096D01*
X191459062Y-111929363D01*
X191622190Y-111766803D01*
X191673527Y-111695360D01*
X191719489Y-111631397D01*
X191775484Y-111587749D01*
X191846187Y-111581303D01*
X191909152Y-111614106D01*
X191929245Y-111639089D01*
X191955278Y-111681572D01*
X191955282Y-111681577D01*
X191957979Y-111685978D01*
X192108763Y-111860048D01*
X192285953Y-112007154D01*
X192484790Y-112123345D01*
X192699934Y-112205501D01*
X192705000Y-112206532D01*
X192705001Y-112206532D01*
X192805697Y-112227018D01*
X192925607Y-112251414D01*
X193049637Y-112255962D01*
X193150585Y-112259664D01*
X193150589Y-112259664D01*
X193155749Y-112259853D01*
X193160869Y-112259197D01*
X193160871Y-112259197D01*
X193251556Y-112247580D01*
X193384178Y-112230591D01*
X193389126Y-112229106D01*
X193389133Y-112229105D01*
X193599811Y-112165898D01*
X193599810Y-112165898D01*
X193604761Y-112164413D01*
X193811574Y-112063096D01*
X193999062Y-111929363D01*
X194162190Y-111766803D01*
X194213527Y-111695360D01*
X194259489Y-111631397D01*
X194315484Y-111587749D01*
X194386187Y-111581303D01*
X194449152Y-111614106D01*
X194469245Y-111639089D01*
X194495278Y-111681572D01*
X194495282Y-111681577D01*
X194497979Y-111685978D01*
X194648763Y-111860048D01*
X194825953Y-112007154D01*
X195024790Y-112123345D01*
X195239934Y-112205501D01*
X195245000Y-112206532D01*
X195245001Y-112206532D01*
X195345697Y-112227018D01*
X195465607Y-112251414D01*
X195589637Y-112255962D01*
X195690585Y-112259664D01*
X195690589Y-112259664D01*
X195695749Y-112259853D01*
X195700869Y-112259197D01*
X195700871Y-112259197D01*
X195791556Y-112247580D01*
X195924178Y-112230591D01*
X195929126Y-112229106D01*
X195929133Y-112229105D01*
X196139811Y-112165898D01*
X196139810Y-112165898D01*
X196144761Y-112164413D01*
X196351574Y-112063096D01*
X196539062Y-111929363D01*
X196702190Y-111766803D01*
X196753527Y-111695360D01*
X196799489Y-111631397D01*
X196855484Y-111587749D01*
X196926187Y-111581303D01*
X196989152Y-111614106D01*
X197009245Y-111639089D01*
X197035278Y-111681572D01*
X197035282Y-111681577D01*
X197037979Y-111685978D01*
X197188763Y-111860048D01*
X197365953Y-112007154D01*
X197564790Y-112123345D01*
X197779934Y-112205501D01*
X197785000Y-112206532D01*
X197785001Y-112206532D01*
X197885697Y-112227018D01*
X198005607Y-112251414D01*
X198129637Y-112255962D01*
X198230585Y-112259664D01*
X198230589Y-112259664D01*
X198235749Y-112259853D01*
X198240869Y-112259197D01*
X198240871Y-112259197D01*
X198331556Y-112247580D01*
X198464178Y-112230591D01*
X198469126Y-112229106D01*
X198469133Y-112229105D01*
X198679811Y-112165898D01*
X198679810Y-112165898D01*
X198684761Y-112164413D01*
X198891574Y-112063096D01*
X199079062Y-111929363D01*
X199242190Y-111766803D01*
X199293527Y-111695360D01*
X199339489Y-111631397D01*
X199395484Y-111587749D01*
X199466187Y-111581303D01*
X199529152Y-111614106D01*
X199549245Y-111639089D01*
X199575278Y-111681572D01*
X199575282Y-111681577D01*
X199577979Y-111685978D01*
X199728763Y-111860048D01*
X199905953Y-112007154D01*
X200104790Y-112123345D01*
X200319934Y-112205501D01*
X200325000Y-112206532D01*
X200325001Y-112206532D01*
X200425697Y-112227018D01*
X200545607Y-112251414D01*
X200669637Y-112255962D01*
X200770585Y-112259664D01*
X200770589Y-112259664D01*
X200775749Y-112259853D01*
X200780869Y-112259197D01*
X200780871Y-112259197D01*
X200871556Y-112247580D01*
X201004178Y-112230591D01*
X201009126Y-112229106D01*
X201009133Y-112229105D01*
X201219811Y-112165898D01*
X201219810Y-112165898D01*
X201224761Y-112164413D01*
X201431574Y-112063096D01*
X201619062Y-111929363D01*
X201782190Y-111766803D01*
X201833527Y-111695360D01*
X201879489Y-111631397D01*
X201935484Y-111587749D01*
X202006187Y-111581303D01*
X202069152Y-111614106D01*
X202089245Y-111639089D01*
X202115278Y-111681572D01*
X202115282Y-111681577D01*
X202117979Y-111685978D01*
X202268763Y-111860048D01*
X202445953Y-112007154D01*
X202644790Y-112123345D01*
X202859934Y-112205501D01*
X202865000Y-112206532D01*
X202865001Y-112206532D01*
X202965697Y-112227018D01*
X203085607Y-112251414D01*
X203209637Y-112255962D01*
X203310585Y-112259664D01*
X203310589Y-112259664D01*
X203315749Y-112259853D01*
X203320869Y-112259197D01*
X203320871Y-112259197D01*
X203411556Y-112247580D01*
X203544178Y-112230591D01*
X203549126Y-112229106D01*
X203549133Y-112229105D01*
X203759811Y-112165898D01*
X203759810Y-112165898D01*
X203764761Y-112164413D01*
X203971574Y-112063096D01*
X204159062Y-111929363D01*
X204322190Y-111766803D01*
X204373527Y-111695360D01*
X204419489Y-111631397D01*
X204475484Y-111587749D01*
X204546187Y-111581303D01*
X204609152Y-111614106D01*
X204629245Y-111639089D01*
X204655278Y-111681572D01*
X204655282Y-111681577D01*
X204657979Y-111685978D01*
X204808763Y-111860048D01*
X204985953Y-112007154D01*
X205184790Y-112123345D01*
X205399934Y-112205501D01*
X205405000Y-112206532D01*
X205405001Y-112206532D01*
X205505697Y-112227018D01*
X205625607Y-112251414D01*
X205749637Y-112255962D01*
X205850585Y-112259664D01*
X205850589Y-112259664D01*
X205855749Y-112259853D01*
X205860869Y-112259197D01*
X205860871Y-112259197D01*
X205951556Y-112247580D01*
X206084178Y-112230591D01*
X206089126Y-112229106D01*
X206089133Y-112229105D01*
X206299811Y-112165898D01*
X206299810Y-112165898D01*
X206304761Y-112164413D01*
X206511574Y-112063096D01*
X206699062Y-111929363D01*
X206862190Y-111766803D01*
X206913527Y-111695360D01*
X206959489Y-111631397D01*
X207015484Y-111587749D01*
X207086187Y-111581303D01*
X207149152Y-111614106D01*
X207169245Y-111639089D01*
X207195278Y-111681572D01*
X207195282Y-111681577D01*
X207197979Y-111685978D01*
X207348763Y-111860048D01*
X207525953Y-112007154D01*
X207724790Y-112123345D01*
X207939934Y-112205501D01*
X207945000Y-112206532D01*
X207945001Y-112206532D01*
X208045697Y-112227018D01*
X208165607Y-112251414D01*
X208289637Y-112255962D01*
X208390585Y-112259664D01*
X208390589Y-112259664D01*
X208395749Y-112259853D01*
X208400869Y-112259197D01*
X208400871Y-112259197D01*
X208491556Y-112247580D01*
X208624178Y-112230591D01*
X208629126Y-112229106D01*
X208629133Y-112229105D01*
X208839811Y-112165898D01*
X208839810Y-112165898D01*
X208844761Y-112164413D01*
X209051574Y-112063096D01*
X209239062Y-111929363D01*
X209402190Y-111766803D01*
X209453527Y-111695360D01*
X209499489Y-111631397D01*
X209555484Y-111587749D01*
X209626187Y-111581303D01*
X209689152Y-111614106D01*
X209709245Y-111639089D01*
X209735278Y-111681572D01*
X209735282Y-111681577D01*
X209737979Y-111685978D01*
X209888763Y-111860048D01*
X209892738Y-111863348D01*
X209892741Y-111863351D01*
X209971985Y-111929141D01*
X210011620Y-111988044D01*
X210017500Y-112026085D01*
X210017500Y-113380864D01*
X209997498Y-113448985D01*
X209980595Y-113469959D01*
X209030959Y-114419595D01*
X208968647Y-114453621D01*
X208941864Y-114456500D01*
X203680161Y-114456500D01*
X203620232Y-114441336D01*
X203581478Y-114420382D01*
X203514585Y-114384213D01*
X203420868Y-114355203D01*
X203333039Y-114328015D01*
X203333036Y-114328014D01*
X203327152Y-114326193D01*
X203321027Y-114325549D01*
X203321026Y-114325549D01*
X203138147Y-114306327D01*
X203138146Y-114306327D01*
X203132019Y-114305683D01*
X203037236Y-114314309D01*
X202942759Y-114322907D01*
X202942758Y-114322907D01*
X202936618Y-114323466D01*
X202930704Y-114325207D01*
X202930702Y-114325207D01*
X202873071Y-114342169D01*
X202748393Y-114378864D01*
X202742928Y-114381721D01*
X202579972Y-114466912D01*
X202579968Y-114466915D01*
X202574512Y-114469767D01*
X202421600Y-114592711D01*
X202295480Y-114743016D01*
X202292516Y-114748408D01*
X202292513Y-114748412D01*
X202256266Y-114814346D01*
X202200956Y-114914954D01*
X202141628Y-115101978D01*
X202119757Y-115296963D01*
X202136175Y-115492483D01*
X202190258Y-115681091D01*
X202193076Y-115686574D01*
X202277123Y-115850113D01*
X202277126Y-115850117D01*
X202279944Y-115855601D01*
X202401818Y-116009369D01*
X202406511Y-116013363D01*
X202406512Y-116013364D01*
X202498052Y-116091270D01*
X202551238Y-116136535D01*
X202556616Y-116139541D01*
X202556618Y-116139542D01*
X202603065Y-116165500D01*
X202722513Y-116232257D01*
X202909118Y-116292889D01*
X203103946Y-116316121D01*
X203110081Y-116315649D01*
X203110083Y-116315649D01*
X203293434Y-116301541D01*
X203293438Y-116301540D01*
X203299576Y-116301068D01*
X203488556Y-116248303D01*
X203625685Y-116179034D01*
X203682496Y-116165500D01*
X209306762Y-116165500D01*
X209317305Y-116165942D01*
X209369000Y-116170283D01*
X209375760Y-116169381D01*
X209375761Y-116169381D01*
X209401533Y-116165942D01*
X209449185Y-116159584D01*
X209452186Y-116159221D01*
X209532573Y-116150488D01*
X209539036Y-116148313D01*
X209542177Y-116147622D01*
X209542623Y-116147543D01*
X209542707Y-116147524D01*
X209543156Y-116147393D01*
X209546259Y-116146631D01*
X209553029Y-116145728D01*
X209629010Y-116118073D01*
X209631913Y-116117056D01*
X209702069Y-116093446D01*
X209708535Y-116091270D01*
X209714387Y-116087754D01*
X209717300Y-116086408D01*
X209717733Y-116086230D01*
X209717789Y-116086203D01*
X209718190Y-116085984D01*
X209721077Y-116084564D01*
X209727491Y-116082229D01*
X209733248Y-116078576D01*
X209733251Y-116078574D01*
X209795739Y-116038917D01*
X209798360Y-116037298D01*
X209861832Y-115999161D01*
X209867677Y-115995649D01*
X209872633Y-115990963D01*
X209875208Y-115989008D01*
X209875957Y-115988487D01*
X209879880Y-115985520D01*
X209884249Y-115982747D01*
X209888495Y-115978950D01*
X209942228Y-115925217D01*
X209944750Y-115922764D01*
X209997614Y-115872773D01*
X209997616Y-115872771D01*
X210002572Y-115868084D01*
X210006406Y-115862443D01*
X210010832Y-115857242D01*
X210011232Y-115857583D01*
X210017808Y-115849637D01*
X211447064Y-114420382D01*
X211454831Y-114413239D01*
X211485711Y-114387143D01*
X211494454Y-114379755D01*
X211543583Y-114315496D01*
X211545438Y-114313131D01*
X211591846Y-114255411D01*
X211591847Y-114255410D01*
X211596120Y-114250095D01*
X211599153Y-114243986D01*
X211600893Y-114241265D01*
X211601158Y-114240886D01*
X211601177Y-114240855D01*
X211601405Y-114240441D01*
X211603071Y-114237690D01*
X211607219Y-114232264D01*
X211641390Y-114158982D01*
X211642725Y-114156209D01*
X211675637Y-114089909D01*
X211678671Y-114083798D01*
X211680321Y-114077180D01*
X211681433Y-114074158D01*
X211681609Y-114073735D01*
X211681630Y-114073676D01*
X211681763Y-114073224D01*
X211682797Y-114070187D01*
X211685682Y-114064000D01*
X211703318Y-113985100D01*
X211704027Y-113982104D01*
X211721936Y-113910278D01*
X211721937Y-113910270D01*
X211723587Y-113903653D01*
X211723778Y-113896832D01*
X211724217Y-113893625D01*
X211724377Y-113892736D01*
X211725054Y-113887860D01*
X211726182Y-113882812D01*
X211726500Y-113877124D01*
X211726500Y-113801110D01*
X211726549Y-113797592D01*
X211728770Y-113718066D01*
X211727491Y-113711360D01*
X211726944Y-113704563D01*
X211727471Y-113704521D01*
X211726500Y-113694257D01*
X211726500Y-112031714D01*
X211746502Y-111963593D01*
X211771173Y-111935475D01*
X211774853Y-111932365D01*
X211779062Y-111929363D01*
X211809927Y-111898606D01*
X211938529Y-111770451D01*
X211942190Y-111766803D01*
X211996490Y-111691237D01*
X212073559Y-111583983D01*
X212076577Y-111579783D01*
X212178615Y-111373325D01*
X212229475Y-111205928D01*
X212244059Y-111157927D01*
X212244060Y-111157921D01*
X212245563Y-111152975D01*
X212268862Y-110976000D01*
X212275185Y-110927971D01*
X212275185Y-110927965D01*
X212275622Y-110924649D01*
X212277300Y-110856000D01*
X212258430Y-110626478D01*
X212202326Y-110403120D01*
X212110496Y-110191924D01*
X212014538Y-110043595D01*
X211988215Y-110002906D01*
X211988213Y-110002903D01*
X211985405Y-109998563D01*
X211964774Y-109975889D01*
X211833890Y-109832051D01*
X211833889Y-109832050D01*
X211830412Y-109828229D01*
X211826361Y-109825030D01*
X211826357Y-109825026D01*
X211653735Y-109688697D01*
X211653730Y-109688693D01*
X211649681Y-109685496D01*
X211645165Y-109683003D01*
X211645162Y-109683001D01*
X211452589Y-109576695D01*
X211452585Y-109576693D01*
X211448065Y-109574198D01*
X211443196Y-109572474D01*
X211443192Y-109572472D01*
X211235853Y-109499049D01*
X211235849Y-109499048D01*
X211230978Y-109497323D01*
X211225885Y-109496416D01*
X211225882Y-109496415D01*
X211100693Y-109474116D01*
X211004250Y-109456937D01*
X210917802Y-109455881D01*
X210779141Y-109454186D01*
X210779139Y-109454186D01*
X210773971Y-109454123D01*
X210546325Y-109488958D01*
X210327424Y-109560506D01*
X210322832Y-109562896D01*
X210322833Y-109562896D01*
X210187120Y-109633544D01*
X210123149Y-109666845D01*
X209938984Y-109805119D01*
X209779877Y-109971616D01*
X209706131Y-110079724D01*
X209651220Y-110124726D01*
X209580695Y-110132897D01*
X209516948Y-110101643D01*
X209496251Y-110077159D01*
X209448215Y-110002906D01*
X209448213Y-110002903D01*
X209445405Y-109998563D01*
X209424774Y-109975889D01*
X209293890Y-109832051D01*
X209293889Y-109832050D01*
X209290412Y-109828229D01*
X209286361Y-109825030D01*
X209286357Y-109825026D01*
X209113735Y-109688697D01*
X209113730Y-109688693D01*
X209109681Y-109685496D01*
X209105165Y-109683003D01*
X209105162Y-109683001D01*
X208912589Y-109576695D01*
X208912585Y-109576693D01*
X208908065Y-109574198D01*
X208903196Y-109572474D01*
X208903192Y-109572472D01*
X208695853Y-109499049D01*
X208695849Y-109499048D01*
X208690978Y-109497323D01*
X208685885Y-109496416D01*
X208685882Y-109496415D01*
X208560693Y-109474116D01*
X208464250Y-109456937D01*
X208377802Y-109455881D01*
X208239141Y-109454186D01*
X208239139Y-109454186D01*
X208233971Y-109454123D01*
X208006325Y-109488958D01*
X207787424Y-109560506D01*
X207782832Y-109562896D01*
X207782833Y-109562896D01*
X207647120Y-109633544D01*
X207583149Y-109666845D01*
X207398984Y-109805119D01*
X207239877Y-109971616D01*
X207166131Y-110079724D01*
X207111220Y-110124726D01*
X207040695Y-110132897D01*
X206976948Y-110101643D01*
X206956251Y-110077159D01*
X206908215Y-110002906D01*
X206908213Y-110002903D01*
X206905405Y-109998563D01*
X206884774Y-109975889D01*
X206753890Y-109832051D01*
X206753889Y-109832050D01*
X206750412Y-109828229D01*
X206746361Y-109825030D01*
X206746357Y-109825026D01*
X206573735Y-109688697D01*
X206573730Y-109688693D01*
X206569681Y-109685496D01*
X206565165Y-109683003D01*
X206565162Y-109683001D01*
X206372589Y-109576695D01*
X206372585Y-109576693D01*
X206368065Y-109574198D01*
X206363196Y-109572474D01*
X206363192Y-109572472D01*
X206155853Y-109499049D01*
X206155849Y-109499048D01*
X206150978Y-109497323D01*
X206145885Y-109496416D01*
X206145882Y-109496415D01*
X206020693Y-109474116D01*
X205924250Y-109456937D01*
X205837802Y-109455881D01*
X205699141Y-109454186D01*
X205699139Y-109454186D01*
X205693971Y-109454123D01*
X205466325Y-109488958D01*
X205247424Y-109560506D01*
X205242832Y-109562896D01*
X205242833Y-109562896D01*
X205107120Y-109633544D01*
X205043149Y-109666845D01*
X204858984Y-109805119D01*
X204699877Y-109971616D01*
X204626131Y-110079724D01*
X204571220Y-110124726D01*
X204500695Y-110132897D01*
X204436948Y-110101643D01*
X204416251Y-110077159D01*
X204368215Y-110002906D01*
X204368213Y-110002903D01*
X204365405Y-109998563D01*
X204344774Y-109975889D01*
X204213890Y-109832051D01*
X204213889Y-109832050D01*
X204210412Y-109828229D01*
X204206361Y-109825030D01*
X204206357Y-109825026D01*
X204033735Y-109688697D01*
X204033730Y-109688693D01*
X204029681Y-109685496D01*
X204025165Y-109683003D01*
X204025162Y-109683001D01*
X203832589Y-109576695D01*
X203832585Y-109576693D01*
X203828065Y-109574198D01*
X203823196Y-109572474D01*
X203823192Y-109572472D01*
X203615853Y-109499049D01*
X203615849Y-109499048D01*
X203610978Y-109497323D01*
X203605885Y-109496416D01*
X203605882Y-109496415D01*
X203480693Y-109474116D01*
X203384250Y-109456937D01*
X203297802Y-109455881D01*
X203159141Y-109454186D01*
X203159139Y-109454186D01*
X203153971Y-109454123D01*
X202926325Y-109488958D01*
X202707424Y-109560506D01*
X202702832Y-109562896D01*
X202702833Y-109562896D01*
X202567120Y-109633544D01*
X202503149Y-109666845D01*
X202318984Y-109805119D01*
X202159877Y-109971616D01*
X202086131Y-110079724D01*
X202031220Y-110124726D01*
X201960695Y-110132897D01*
X201896948Y-110101643D01*
X201876251Y-110077159D01*
X201828215Y-110002906D01*
X201828213Y-110002903D01*
X201825405Y-109998563D01*
X201804774Y-109975889D01*
X201673890Y-109832051D01*
X201673889Y-109832050D01*
X201670412Y-109828229D01*
X201666361Y-109825030D01*
X201666357Y-109825026D01*
X201493735Y-109688697D01*
X201493730Y-109688693D01*
X201489681Y-109685496D01*
X201485165Y-109683003D01*
X201485162Y-109683001D01*
X201292589Y-109576695D01*
X201292585Y-109576693D01*
X201288065Y-109574198D01*
X201283196Y-109572474D01*
X201283192Y-109572472D01*
X201075853Y-109499049D01*
X201075849Y-109499048D01*
X201070978Y-109497323D01*
X201065885Y-109496416D01*
X201065882Y-109496415D01*
X200940693Y-109474116D01*
X200844250Y-109456937D01*
X200757802Y-109455881D01*
X200619141Y-109454186D01*
X200619139Y-109454186D01*
X200613971Y-109454123D01*
X200386325Y-109488958D01*
X200167424Y-109560506D01*
X200162832Y-109562896D01*
X200162833Y-109562896D01*
X200027120Y-109633544D01*
X199963149Y-109666845D01*
X199778984Y-109805119D01*
X199619877Y-109971616D01*
X199546131Y-110079724D01*
X199491220Y-110124726D01*
X199420695Y-110132897D01*
X199356948Y-110101643D01*
X199336251Y-110077159D01*
X199288215Y-110002906D01*
X199288213Y-110002903D01*
X199285405Y-109998563D01*
X199264774Y-109975889D01*
X199133890Y-109832051D01*
X199133889Y-109832050D01*
X199130412Y-109828229D01*
X199126361Y-109825030D01*
X199126357Y-109825026D01*
X198953735Y-109688697D01*
X198953730Y-109688693D01*
X198949681Y-109685496D01*
X198945165Y-109683003D01*
X198945162Y-109683001D01*
X198752589Y-109576695D01*
X198752585Y-109576693D01*
X198748065Y-109574198D01*
X198743196Y-109572474D01*
X198743192Y-109572472D01*
X198535853Y-109499049D01*
X198535849Y-109499048D01*
X198530978Y-109497323D01*
X198525885Y-109496416D01*
X198525882Y-109496415D01*
X198400693Y-109474116D01*
X198304250Y-109456937D01*
X198217802Y-109455881D01*
X198079141Y-109454186D01*
X198079139Y-109454186D01*
X198073971Y-109454123D01*
X197846325Y-109488958D01*
X197627424Y-109560506D01*
X197622832Y-109562896D01*
X197622833Y-109562896D01*
X197487120Y-109633544D01*
X197423149Y-109666845D01*
X197238984Y-109805119D01*
X197079877Y-109971616D01*
X197006131Y-110079724D01*
X196951220Y-110124726D01*
X196880695Y-110132897D01*
X196816948Y-110101643D01*
X196796251Y-110077159D01*
X196748215Y-110002906D01*
X196748213Y-110002903D01*
X196745405Y-109998563D01*
X196724774Y-109975889D01*
X196593890Y-109832051D01*
X196593889Y-109832050D01*
X196590412Y-109828229D01*
X196586361Y-109825030D01*
X196586357Y-109825026D01*
X196413735Y-109688697D01*
X196413730Y-109688693D01*
X196409681Y-109685496D01*
X196405165Y-109683003D01*
X196405162Y-109683001D01*
X196212589Y-109576695D01*
X196212585Y-109576693D01*
X196208065Y-109574198D01*
X196203196Y-109572474D01*
X196203192Y-109572472D01*
X195995853Y-109499049D01*
X195995849Y-109499048D01*
X195990978Y-109497323D01*
X195985885Y-109496416D01*
X195985882Y-109496415D01*
X195860693Y-109474116D01*
X195764250Y-109456937D01*
X195677802Y-109455881D01*
X195539141Y-109454186D01*
X195539139Y-109454186D01*
X195533971Y-109454123D01*
X195306325Y-109488958D01*
X195087424Y-109560506D01*
X195082832Y-109562896D01*
X195082833Y-109562896D01*
X194947120Y-109633544D01*
X194883149Y-109666845D01*
X194698984Y-109805119D01*
X194539877Y-109971616D01*
X194466131Y-110079724D01*
X194411220Y-110124726D01*
X194340695Y-110132897D01*
X194276948Y-110101643D01*
X194256251Y-110077159D01*
X194208215Y-110002906D01*
X194208213Y-110002903D01*
X194205405Y-109998563D01*
X194184774Y-109975889D01*
X194053890Y-109832051D01*
X194053889Y-109832050D01*
X194050412Y-109828229D01*
X194046361Y-109825030D01*
X194046357Y-109825026D01*
X193873735Y-109688697D01*
X193873730Y-109688693D01*
X193869681Y-109685496D01*
X193865165Y-109683003D01*
X193865162Y-109683001D01*
X193672589Y-109576695D01*
X193672585Y-109576693D01*
X193668065Y-109574198D01*
X193663196Y-109572474D01*
X193663192Y-109572472D01*
X193455853Y-109499049D01*
X193455849Y-109499048D01*
X193450978Y-109497323D01*
X193445885Y-109496416D01*
X193445882Y-109496415D01*
X193320693Y-109474116D01*
X193224250Y-109456937D01*
X193137802Y-109455881D01*
X192999141Y-109454186D01*
X192999139Y-109454186D01*
X192993971Y-109454123D01*
X192766325Y-109488958D01*
X192547424Y-109560506D01*
X192542832Y-109562896D01*
X192542833Y-109562896D01*
X192407120Y-109633544D01*
X192343149Y-109666845D01*
X192158984Y-109805119D01*
X191999877Y-109971616D01*
X191926131Y-110079724D01*
X191871220Y-110124726D01*
X191800695Y-110132897D01*
X191736948Y-110101643D01*
X191716251Y-110077159D01*
X191668215Y-110002906D01*
X191668213Y-110002903D01*
X191665405Y-109998563D01*
X191644774Y-109975889D01*
X191513890Y-109832051D01*
X191513889Y-109832050D01*
X191510412Y-109828229D01*
X191506361Y-109825030D01*
X191506357Y-109825026D01*
X191333735Y-109688697D01*
X191333730Y-109688693D01*
X191329681Y-109685496D01*
X191325165Y-109683003D01*
X191325162Y-109683001D01*
X191132589Y-109576695D01*
X191132585Y-109576693D01*
X191128065Y-109574198D01*
X191123196Y-109572474D01*
X191123192Y-109572472D01*
X190915853Y-109499049D01*
X190915849Y-109499048D01*
X190910978Y-109497323D01*
X190905885Y-109496416D01*
X190905882Y-109496415D01*
X190780693Y-109474116D01*
X190684250Y-109456937D01*
X190597802Y-109455881D01*
X190459141Y-109454186D01*
X190459139Y-109454186D01*
X190453971Y-109454123D01*
X190226325Y-109488958D01*
X190007424Y-109560506D01*
X190002832Y-109562896D01*
X190002833Y-109562896D01*
X189867120Y-109633544D01*
X189803149Y-109666845D01*
X189618984Y-109805119D01*
X189459877Y-109971616D01*
X189386131Y-110079724D01*
X189331220Y-110124726D01*
X189260695Y-110132897D01*
X189196948Y-110101643D01*
X189176251Y-110077159D01*
X189128215Y-110002906D01*
X189128213Y-110002903D01*
X189125405Y-109998563D01*
X189104774Y-109975889D01*
X188973890Y-109832051D01*
X188973889Y-109832050D01*
X188970412Y-109828229D01*
X188966361Y-109825030D01*
X188966357Y-109825026D01*
X188793735Y-109688697D01*
X188793730Y-109688693D01*
X188789681Y-109685496D01*
X188785165Y-109683003D01*
X188785162Y-109683001D01*
X188592589Y-109576695D01*
X188592585Y-109576693D01*
X188588065Y-109574198D01*
X188583196Y-109572474D01*
X188583192Y-109572472D01*
X188375853Y-109499049D01*
X188375849Y-109499048D01*
X188370978Y-109497323D01*
X188365885Y-109496416D01*
X188365882Y-109496415D01*
X188240693Y-109474116D01*
X188144250Y-109456937D01*
X188057802Y-109455881D01*
X187919141Y-109454186D01*
X187919139Y-109454186D01*
X187913971Y-109454123D01*
X187686325Y-109488958D01*
X187467424Y-109560506D01*
X187462832Y-109562896D01*
X187462833Y-109562896D01*
X187327120Y-109633544D01*
X187263149Y-109666845D01*
X187078984Y-109805119D01*
X186919877Y-109971616D01*
X186846131Y-110079724D01*
X186791220Y-110124726D01*
X186720695Y-110132897D01*
X186656948Y-110101643D01*
X186636251Y-110077159D01*
X186588215Y-110002906D01*
X186588213Y-110002903D01*
X186585405Y-109998563D01*
X186564774Y-109975889D01*
X186433890Y-109832051D01*
X186433889Y-109832050D01*
X186430412Y-109828229D01*
X186426361Y-109825030D01*
X186426357Y-109825026D01*
X186253735Y-109688697D01*
X186253730Y-109688693D01*
X186249681Y-109685496D01*
X186245165Y-109683003D01*
X186245162Y-109683001D01*
X186052589Y-109576695D01*
X186052585Y-109576693D01*
X186048065Y-109574198D01*
X186043196Y-109572474D01*
X186043192Y-109572472D01*
X185835853Y-109499049D01*
X185835849Y-109499048D01*
X185830978Y-109497323D01*
X185825885Y-109496416D01*
X185825882Y-109496415D01*
X185700693Y-109474116D01*
X185604250Y-109456937D01*
X185517802Y-109455881D01*
X185379141Y-109454186D01*
X185379139Y-109454186D01*
X185373971Y-109454123D01*
X185146325Y-109488958D01*
X184927424Y-109560506D01*
X184922832Y-109562896D01*
X184922833Y-109562896D01*
X184787120Y-109633544D01*
X184723149Y-109666845D01*
X184538984Y-109805119D01*
X184379877Y-109971616D01*
X184250099Y-110161863D01*
X184247923Y-110166552D01*
X184247919Y-110166558D01*
X184155315Y-110366057D01*
X184153136Y-110370752D01*
X184091592Y-110592673D01*
X184091043Y-110597810D01*
X184076352Y-110735277D01*
X184067119Y-110821665D01*
X184067416Y-110826817D01*
X184067416Y-110826821D01*
X184072864Y-110921296D01*
X184080376Y-111051580D01*
X184081513Y-111056626D01*
X184081514Y-111056632D01*
X184103226Y-111152975D01*
X184131006Y-111276242D01*
X184132948Y-111281024D01*
X184132949Y-111281028D01*
X184170427Y-111373325D01*
X184217649Y-111489618D01*
X184337979Y-111685978D01*
X184488763Y-111860048D01*
X184492738Y-111863348D01*
X184492741Y-111863351D01*
X184571985Y-111929141D01*
X184611620Y-111988044D01*
X184617500Y-112026085D01*
X184617500Y-115666864D01*
X184597498Y-115734985D01*
X184580595Y-115755959D01*
X184011959Y-116324595D01*
X183949647Y-116358621D01*
X183922864Y-116361500D01*
X166849161Y-116361500D01*
X166789232Y-116346336D01*
X166749115Y-116324645D01*
X166683585Y-116289213D01*
X166542455Y-116245526D01*
X166502039Y-116233015D01*
X166502036Y-116233014D01*
X166496152Y-116231193D01*
X166490027Y-116230549D01*
X166490026Y-116230549D01*
X166307147Y-116211327D01*
X166307146Y-116211327D01*
X166301019Y-116210683D01*
X166178383Y-116221844D01*
X166111759Y-116227907D01*
X166111758Y-116227907D01*
X166105618Y-116228466D01*
X166099704Y-116230207D01*
X166099702Y-116230207D01*
X166086268Y-116234161D01*
X165917393Y-116283864D01*
X165911928Y-116286721D01*
X165748972Y-116371912D01*
X165748968Y-116371915D01*
X165743512Y-116374767D01*
X165590600Y-116497711D01*
X165464480Y-116648016D01*
X165461516Y-116653408D01*
X165461513Y-116653412D01*
X165418696Y-116731296D01*
X165369956Y-116819954D01*
X165310628Y-117006978D01*
X165288757Y-117201963D01*
X140242823Y-117201963D01*
X140367408Y-117191063D01*
X140372723Y-117189639D01*
X140590353Y-117131326D01*
X140590355Y-117131325D01*
X140595663Y-117129903D01*
X140622834Y-117117233D01*
X140804843Y-117032361D01*
X140804848Y-117032358D01*
X140809830Y-117030035D01*
X140851141Y-117001109D01*
X140998890Y-116897654D01*
X140998893Y-116897652D01*
X141003401Y-116894495D01*
X141170495Y-116727401D01*
X141306035Y-116533829D01*
X141322878Y-116497711D01*
X141403580Y-116324645D01*
X141403581Y-116324643D01*
X141405903Y-116319663D01*
X141410886Y-116301068D01*
X141465639Y-116096723D01*
X141465639Y-116096722D01*
X141467063Y-116091408D01*
X141487659Y-115856000D01*
X141467063Y-115620592D01*
X141405903Y-115392337D01*
X141306035Y-115178171D01*
X141170495Y-114984599D01*
X141003401Y-114817505D01*
X140998893Y-114814348D01*
X140998890Y-114814346D01*
X140814339Y-114685122D01*
X140814336Y-114685120D01*
X140809830Y-114681965D01*
X140804848Y-114679642D01*
X140804843Y-114679639D01*
X140600645Y-114584420D01*
X140600644Y-114584419D01*
X140595663Y-114582097D01*
X140590355Y-114580675D01*
X140590353Y-114580674D01*
X140372723Y-114522361D01*
X140372722Y-114522361D01*
X140367408Y-114520937D01*
X140132000Y-114500341D01*
X139896592Y-114520937D01*
X139891278Y-114522361D01*
X139891277Y-114522361D01*
X139673647Y-114580674D01*
X139673645Y-114580675D01*
X139668337Y-114582097D01*
X139663357Y-114584419D01*
X139663355Y-114584420D01*
X139459152Y-114679642D01*
X139459149Y-114679644D01*
X139454171Y-114681965D01*
X139260599Y-114817505D01*
X139093505Y-114984599D01*
X138957965Y-115178171D01*
X138858097Y-115392337D01*
X138796937Y-115620592D01*
X138776341Y-115856000D01*
X107597894Y-115856000D01*
X107585690Y-115623129D01*
X107584447Y-115615277D01*
X107534030Y-115296963D01*
X107526653Y-115250387D01*
X107428978Y-114885857D01*
X107401528Y-114814346D01*
X107318261Y-114597430D01*
X107293734Y-114533535D01*
X107263209Y-114473627D01*
X107123902Y-114200221D01*
X107123898Y-114200214D01*
X107122403Y-114197280D01*
X107096628Y-114157589D01*
X106924869Y-113893103D01*
X106916863Y-113880775D01*
X106679365Y-113587489D01*
X106412511Y-113320635D01*
X106119225Y-113083137D01*
X105802721Y-112877597D01*
X105799787Y-112876102D01*
X105799780Y-112876098D01*
X105469405Y-112707764D01*
X105466465Y-112706266D01*
X105114143Y-112571022D01*
X104749613Y-112473347D01*
X104551647Y-112441992D01*
X104380119Y-112414824D01*
X104380111Y-112414823D01*
X104376871Y-112414310D01*
X104000000Y-112394559D01*
X103623129Y-112414310D01*
X103619889Y-112414823D01*
X103619881Y-112414824D01*
X103448353Y-112441992D01*
X103250387Y-112473347D01*
X102885857Y-112571022D01*
X102533535Y-112706266D01*
X102530595Y-112707764D01*
X102200221Y-112876098D01*
X102200214Y-112876102D01*
X102197280Y-112877597D01*
X101880775Y-113083137D01*
X101587489Y-113320635D01*
X101320635Y-113587489D01*
X101083137Y-113880775D01*
X101075131Y-113893103D01*
X100903373Y-114157589D01*
X100877597Y-114197280D01*
X100876102Y-114200214D01*
X100876098Y-114200221D01*
X100838767Y-114273488D01*
X100790019Y-114325103D01*
X100721104Y-114342169D01*
X100653902Y-114319268D01*
X100609750Y-114263671D01*
X100600500Y-114216285D01*
X100600500Y-110976000D01*
X138776341Y-110976000D01*
X138796937Y-111211408D01*
X138798361Y-111216722D01*
X138798361Y-111216723D01*
X138841566Y-111377966D01*
X138858097Y-111439663D01*
X138860419Y-111444643D01*
X138860420Y-111444645D01*
X138951092Y-111639089D01*
X138957965Y-111653829D01*
X139093505Y-111847401D01*
X139260599Y-112014495D01*
X139265107Y-112017652D01*
X139265110Y-112017654D01*
X139449661Y-112146878D01*
X139454170Y-112150035D01*
X139459152Y-112152358D01*
X139459157Y-112152361D01*
X139663355Y-112247580D01*
X139668337Y-112249903D01*
X139673645Y-112251325D01*
X139673647Y-112251326D01*
X139705471Y-112259853D01*
X139896592Y-112311063D01*
X140132000Y-112331659D01*
X140367408Y-112311063D01*
X140558529Y-112259853D01*
X140590353Y-112251326D01*
X140590355Y-112251325D01*
X140595663Y-112249903D01*
X140600645Y-112247580D01*
X140804843Y-112152361D01*
X140804848Y-112152358D01*
X140809830Y-112150035D01*
X140814339Y-112146878D01*
X140998890Y-112017654D01*
X140998893Y-112017652D01*
X141003401Y-112014495D01*
X141170495Y-111847401D01*
X141306035Y-111653829D01*
X141312909Y-111639089D01*
X141403580Y-111444645D01*
X141403581Y-111444643D01*
X141405903Y-111439663D01*
X141422435Y-111377966D01*
X141465639Y-111216723D01*
X141465639Y-111216722D01*
X141467063Y-111211408D01*
X141487659Y-110976000D01*
X141467063Y-110740592D01*
X141465639Y-110735277D01*
X141407326Y-110517647D01*
X141407325Y-110517645D01*
X141405903Y-110512337D01*
X141342208Y-110375744D01*
X141308358Y-110303152D01*
X141308356Y-110303149D01*
X141306035Y-110298171D01*
X141170495Y-110104599D01*
X141082535Y-110016639D01*
X173911500Y-110016639D01*
X173911501Y-111695360D01*
X173926956Y-111812762D01*
X173987464Y-111958841D01*
X174083718Y-112084282D01*
X174209159Y-112180536D01*
X174355238Y-112241044D01*
X174363426Y-112242122D01*
X174468545Y-112255961D01*
X174472639Y-112256500D01*
X175311898Y-112256500D01*
X176151360Y-112256499D01*
X176155444Y-112255961D01*
X176155450Y-112255961D01*
X176260575Y-112242122D01*
X176260577Y-112242122D01*
X176268762Y-112241044D01*
X176414841Y-112180536D01*
X176540282Y-112084282D01*
X176636536Y-111958841D01*
X176661486Y-111898606D01*
X176706034Y-111843325D01*
X176773397Y-111820904D01*
X176842189Y-111838462D01*
X176865744Y-111856563D01*
X176868763Y-111860048D01*
X176872744Y-111863353D01*
X176872748Y-111863357D01*
X176915206Y-111898606D01*
X177045953Y-112007154D01*
X177244790Y-112123345D01*
X177459934Y-112205501D01*
X177465000Y-112206532D01*
X177465001Y-112206532D01*
X177565697Y-112227018D01*
X177685607Y-112251414D01*
X177809637Y-112255962D01*
X177910585Y-112259664D01*
X177910589Y-112259664D01*
X177915749Y-112259853D01*
X177920869Y-112259197D01*
X177920871Y-112259197D01*
X178011556Y-112247580D01*
X178144178Y-112230591D01*
X178149126Y-112229106D01*
X178149133Y-112229105D01*
X178359811Y-112165898D01*
X178359810Y-112165898D01*
X178364761Y-112164413D01*
X178571574Y-112063096D01*
X178759062Y-111929363D01*
X178922190Y-111766803D01*
X178973527Y-111695360D01*
X179019489Y-111631397D01*
X179075484Y-111587749D01*
X179146187Y-111581303D01*
X179209152Y-111614106D01*
X179229245Y-111639089D01*
X179255278Y-111681572D01*
X179255282Y-111681577D01*
X179257979Y-111685978D01*
X179408763Y-111860048D01*
X179585953Y-112007154D01*
X179784790Y-112123345D01*
X179999934Y-112205501D01*
X180005000Y-112206532D01*
X180005001Y-112206532D01*
X180105697Y-112227018D01*
X180225607Y-112251414D01*
X180349637Y-112255962D01*
X180450585Y-112259664D01*
X180450589Y-112259664D01*
X180455749Y-112259853D01*
X180460869Y-112259197D01*
X180460871Y-112259197D01*
X180551556Y-112247580D01*
X180684178Y-112230591D01*
X180689126Y-112229106D01*
X180689133Y-112229105D01*
X180899811Y-112165898D01*
X180899810Y-112165898D01*
X180904761Y-112164413D01*
X181111574Y-112063096D01*
X181299062Y-111929363D01*
X181462190Y-111766803D01*
X181516490Y-111691237D01*
X181593559Y-111583983D01*
X181596577Y-111579783D01*
X181698615Y-111373325D01*
X181749475Y-111205928D01*
X181764059Y-111157927D01*
X181764060Y-111157921D01*
X181765563Y-111152975D01*
X181788862Y-110976000D01*
X181795185Y-110927971D01*
X181795185Y-110927965D01*
X181795622Y-110924649D01*
X181797300Y-110856000D01*
X181778430Y-110626478D01*
X181722326Y-110403120D01*
X181630496Y-110191924D01*
X181534538Y-110043595D01*
X181508215Y-110002906D01*
X181508213Y-110002903D01*
X181505405Y-109998563D01*
X181484774Y-109975889D01*
X181353890Y-109832051D01*
X181353889Y-109832050D01*
X181350412Y-109828229D01*
X181346361Y-109825030D01*
X181346357Y-109825026D01*
X181173735Y-109688697D01*
X181173730Y-109688693D01*
X181169681Y-109685496D01*
X181165165Y-109683003D01*
X181165162Y-109683001D01*
X180972589Y-109576695D01*
X180972585Y-109576693D01*
X180968065Y-109574198D01*
X180963196Y-109572474D01*
X180963192Y-109572472D01*
X180755853Y-109499049D01*
X180755849Y-109499048D01*
X180750978Y-109497323D01*
X180745885Y-109496416D01*
X180745882Y-109496415D01*
X180620693Y-109474116D01*
X180524250Y-109456937D01*
X180437802Y-109455881D01*
X180299141Y-109454186D01*
X180299139Y-109454186D01*
X180293971Y-109454123D01*
X180066325Y-109488958D01*
X179847424Y-109560506D01*
X179842832Y-109562896D01*
X179842833Y-109562896D01*
X179707120Y-109633544D01*
X179643149Y-109666845D01*
X179458984Y-109805119D01*
X179299877Y-109971616D01*
X179226131Y-110079724D01*
X179171220Y-110124726D01*
X179100695Y-110132897D01*
X179036948Y-110101643D01*
X179016251Y-110077159D01*
X178968215Y-110002906D01*
X178968213Y-110002903D01*
X178965405Y-109998563D01*
X178944774Y-109975889D01*
X178813890Y-109832051D01*
X178813889Y-109832050D01*
X178810412Y-109828229D01*
X178806361Y-109825030D01*
X178806357Y-109825026D01*
X178633735Y-109688697D01*
X178633730Y-109688693D01*
X178629681Y-109685496D01*
X178625165Y-109683003D01*
X178625162Y-109683001D01*
X178432589Y-109576695D01*
X178432585Y-109576693D01*
X178428065Y-109574198D01*
X178423196Y-109572474D01*
X178423192Y-109572472D01*
X178215853Y-109499049D01*
X178215849Y-109499048D01*
X178210978Y-109497323D01*
X178205885Y-109496416D01*
X178205882Y-109496415D01*
X178080693Y-109474116D01*
X177984250Y-109456937D01*
X177897802Y-109455881D01*
X177759141Y-109454186D01*
X177759139Y-109454186D01*
X177753971Y-109454123D01*
X177526325Y-109488958D01*
X177307424Y-109560506D01*
X177302832Y-109562896D01*
X177302833Y-109562896D01*
X177167120Y-109633544D01*
X177103149Y-109666845D01*
X176918984Y-109805119D01*
X176915410Y-109808859D01*
X176870494Y-109855861D01*
X176808970Y-109891291D01*
X176738057Y-109887834D01*
X176680271Y-109846588D01*
X176662991Y-109817027D01*
X176639698Y-109760791D01*
X176639695Y-109760787D01*
X176636536Y-109753159D01*
X176540282Y-109627718D01*
X176414841Y-109531464D01*
X176268762Y-109470956D01*
X176169166Y-109457844D01*
X176155448Y-109456038D01*
X176155447Y-109456038D01*
X176151361Y-109455500D01*
X175312102Y-109455500D01*
X174472640Y-109455501D01*
X174468556Y-109456039D01*
X174468550Y-109456039D01*
X174363425Y-109469878D01*
X174363423Y-109469878D01*
X174355238Y-109470956D01*
X174209159Y-109531464D01*
X174083718Y-109627718D01*
X173987464Y-109753159D01*
X173926956Y-109899238D01*
X173911500Y-110016639D01*
X141082535Y-110016639D01*
X141003401Y-109937505D01*
X140998893Y-109934348D01*
X140998890Y-109934346D01*
X140814339Y-109805122D01*
X140814334Y-109805119D01*
X140809830Y-109801965D01*
X140804848Y-109799642D01*
X140804843Y-109799639D01*
X140600645Y-109704420D01*
X140600644Y-109704419D01*
X140595663Y-109702097D01*
X140590355Y-109700675D01*
X140590353Y-109700674D01*
X140372723Y-109642361D01*
X140372722Y-109642361D01*
X140367408Y-109640937D01*
X140132000Y-109620341D01*
X139896592Y-109640937D01*
X139891278Y-109642361D01*
X139891277Y-109642361D01*
X139673647Y-109700674D01*
X139673645Y-109700675D01*
X139668337Y-109702097D01*
X139663357Y-109704419D01*
X139663355Y-109704420D01*
X139459152Y-109799642D01*
X139459149Y-109799644D01*
X139454171Y-109801965D01*
X139260599Y-109937505D01*
X139093505Y-110104599D01*
X138957965Y-110298171D01*
X138955644Y-110303149D01*
X138955642Y-110303152D01*
X138921792Y-110375744D01*
X138858097Y-110512337D01*
X138856675Y-110517645D01*
X138856674Y-110517647D01*
X138798361Y-110735277D01*
X138796937Y-110740592D01*
X138776341Y-110976000D01*
X100600500Y-110976000D01*
X100600500Y-108049953D01*
X106149707Y-108049953D01*
X106166194Y-108335878D01*
X106167019Y-108340083D01*
X106167020Y-108340091D01*
X106198853Y-108502342D01*
X106221332Y-108616920D01*
X106222719Y-108620970D01*
X106222720Y-108620975D01*
X106244484Y-108684542D01*
X106314102Y-108887878D01*
X106442787Y-109143740D01*
X106445213Y-109147269D01*
X106445216Y-109147275D01*
X106483920Y-109203589D01*
X106605006Y-109379770D01*
X106607893Y-109382943D01*
X106607894Y-109382944D01*
X106794876Y-109588435D01*
X106797756Y-109591600D01*
X107017472Y-109775311D01*
X107260088Y-109927503D01*
X107263990Y-109929265D01*
X107263994Y-109929267D01*
X107517202Y-110043595D01*
X107517206Y-110043597D01*
X107521114Y-110045361D01*
X107525233Y-110046581D01*
X107791606Y-110125485D01*
X107791611Y-110125486D01*
X107795719Y-110126703D01*
X107799953Y-110127351D01*
X107799958Y-110127352D01*
X108025491Y-110161863D01*
X108078824Y-110170024D01*
X108224589Y-110172314D01*
X108360898Y-110174456D01*
X108360904Y-110174456D01*
X108365189Y-110174523D01*
X108369441Y-110174008D01*
X108369449Y-110174008D01*
X108589221Y-110147411D01*
X108649514Y-110140115D01*
X108653662Y-110139027D01*
X108653666Y-110139026D01*
X108922388Y-110068528D01*
X108926539Y-110067439D01*
X108930500Y-110065799D01*
X108930504Y-110065797D01*
X109166899Y-109967879D01*
X109191138Y-109957839D01*
X109225936Y-109937505D01*
X109434717Y-109815503D01*
X109434718Y-109815503D01*
X109438415Y-109813342D01*
X109663793Y-109636623D01*
X109679572Y-109620341D01*
X109860119Y-109434030D01*
X109863102Y-109430952D01*
X109865635Y-109427504D01*
X109865639Y-109427499D01*
X110030117Y-109203589D01*
X110032655Y-109200134D01*
X110061355Y-109147275D01*
X110167263Y-108952217D01*
X110167264Y-108952215D01*
X110169313Y-108948441D01*
X110270548Y-108680530D01*
X110334487Y-108401358D01*
X110359946Y-108116092D01*
X110360408Y-108072000D01*
X110340928Y-107786263D01*
X110282850Y-107505814D01*
X110187248Y-107235842D01*
X110055891Y-106981342D01*
X110053428Y-106977837D01*
X109893673Y-106750529D01*
X109893668Y-106750523D01*
X109891209Y-106747024D01*
X109696251Y-106537224D01*
X109692935Y-106534510D01*
X109692932Y-106534507D01*
X109477941Y-106358539D01*
X109474623Y-106355823D01*
X109230427Y-106206180D01*
X109212419Y-106198275D01*
X108972110Y-106092786D01*
X108972106Y-106092785D01*
X108968182Y-106091062D01*
X108692739Y-106012600D01*
X108482881Y-105982733D01*
X108413448Y-105972851D01*
X108413446Y-105972851D01*
X108409196Y-105972246D01*
X108257333Y-105971451D01*
X108127086Y-105970769D01*
X108127080Y-105970769D01*
X108122800Y-105970747D01*
X108118556Y-105971306D01*
X108118552Y-105971306D01*
X107994031Y-105987699D01*
X107838851Y-106008129D01*
X107834711Y-106009262D01*
X107834709Y-106009262D01*
X107818209Y-106013776D01*
X107562602Y-106083702D01*
X107558654Y-106085386D01*
X107303117Y-106194382D01*
X107303113Y-106194384D01*
X107299165Y-106196068D01*
X107053415Y-106343146D01*
X106829900Y-106522215D01*
X106632755Y-106729962D01*
X106465629Y-106962543D01*
X106331614Y-107215653D01*
X106233190Y-107484610D01*
X106172178Y-107764436D01*
X106149707Y-108049953D01*
X100600500Y-108049953D01*
X100600500Y-100182639D01*
X106154500Y-100182639D01*
X106154501Y-103261360D01*
X106169956Y-103378762D01*
X106230464Y-103524841D01*
X106326718Y-103650282D01*
X106452159Y-103746536D01*
X106598238Y-103807044D01*
X106606426Y-103808122D01*
X106711545Y-103821961D01*
X106715639Y-103822500D01*
X108254813Y-103822500D01*
X109794360Y-103822499D01*
X109798444Y-103821961D01*
X109798450Y-103821961D01*
X109903575Y-103808122D01*
X109903577Y-103808122D01*
X109911762Y-103807044D01*
X110057841Y-103746536D01*
X110183282Y-103650282D01*
X110279536Y-103524841D01*
X110340044Y-103378762D01*
X110355500Y-103261361D01*
X110355499Y-100182640D01*
X110340044Y-100065238D01*
X110279536Y-99919159D01*
X110183282Y-99793718D01*
X110057841Y-99697464D01*
X109911762Y-99636956D01*
X109903574Y-99635878D01*
X109798448Y-99622038D01*
X109798447Y-99622038D01*
X109794361Y-99621500D01*
X108255187Y-99621500D01*
X106715640Y-99621501D01*
X106711556Y-99622039D01*
X106711550Y-99622039D01*
X106606425Y-99635878D01*
X106606423Y-99635878D01*
X106598238Y-99636956D01*
X106452159Y-99697464D01*
X106326718Y-99793718D01*
X106230464Y-99919159D01*
X106169956Y-100065238D01*
X106154500Y-100182639D01*
X100600500Y-100182639D01*
X100600500Y-96627963D01*
X127950757Y-96627963D01*
X127967175Y-96823483D01*
X128021258Y-97012091D01*
X128024076Y-97017574D01*
X128108123Y-97181113D01*
X128108126Y-97181117D01*
X128110944Y-97186601D01*
X128232818Y-97340369D01*
X128237511Y-97344363D01*
X128237512Y-97344364D01*
X128298716Y-97396452D01*
X128382238Y-97467535D01*
X128553513Y-97563257D01*
X128740118Y-97623889D01*
X128934946Y-97647121D01*
X128941081Y-97646649D01*
X128941083Y-97646649D01*
X129124434Y-97632541D01*
X129124438Y-97632540D01*
X129130576Y-97632068D01*
X129319556Y-97579303D01*
X129456685Y-97510034D01*
X129513496Y-97496500D01*
X132222619Y-97496500D01*
X132290740Y-97516502D01*
X132337233Y-97570158D01*
X132347541Y-97638946D01*
X132343500Y-97669639D01*
X132343501Y-100948360D01*
X132358956Y-101065762D01*
X132419464Y-101211841D01*
X132515718Y-101337282D01*
X132641159Y-101433536D01*
X132787238Y-101494044D01*
X132795426Y-101495122D01*
X132900545Y-101508961D01*
X132904639Y-101509500D01*
X134543801Y-101509500D01*
X136183360Y-101509499D01*
X136187444Y-101508961D01*
X136187450Y-101508961D01*
X136292575Y-101495122D01*
X136292577Y-101495122D01*
X136300762Y-101494044D01*
X136446841Y-101433536D01*
X136572282Y-101337282D01*
X136668536Y-101211841D01*
X136729044Y-101065762D01*
X136744500Y-100948361D01*
X136744499Y-97669640D01*
X136740458Y-97638945D01*
X136751397Y-97568797D01*
X136798526Y-97515699D01*
X136865380Y-97496500D01*
X146202864Y-97496500D01*
X146270985Y-97516502D01*
X146291960Y-97533405D01*
X147053575Y-98295021D01*
X147053586Y-98295031D01*
X147118616Y-98360061D01*
X147125760Y-98367829D01*
X147159245Y-98407454D01*
X147223504Y-98456583D01*
X147225862Y-98458433D01*
X147288905Y-98509120D01*
X147295014Y-98512153D01*
X147297735Y-98513893D01*
X147298114Y-98514158D01*
X147298145Y-98514177D01*
X147298559Y-98514405D01*
X147301310Y-98516071D01*
X147306736Y-98520219D01*
X147380015Y-98554389D01*
X147382787Y-98555723D01*
X147455202Y-98591671D01*
X147461820Y-98593321D01*
X147464842Y-98594433D01*
X147465265Y-98594609D01*
X147465324Y-98594630D01*
X147465776Y-98594763D01*
X147468813Y-98595797D01*
X147475000Y-98598682D01*
X147532638Y-98611565D01*
X147553900Y-98616318D01*
X147556896Y-98617027D01*
X147628722Y-98634936D01*
X147628730Y-98634937D01*
X147635347Y-98636587D01*
X147642168Y-98636778D01*
X147645375Y-98637217D01*
X147646264Y-98637377D01*
X147651140Y-98638054D01*
X147656188Y-98639182D01*
X147661876Y-98639500D01*
X147737890Y-98639500D01*
X147741405Y-98639549D01*
X147820934Y-98641770D01*
X147827640Y-98640491D01*
X147834437Y-98639944D01*
X147834479Y-98640471D01*
X147844743Y-98639500D01*
X153801245Y-98639500D01*
X153862715Y-98655512D01*
X153953513Y-98706257D01*
X154140118Y-98766889D01*
X154334946Y-98790121D01*
X154341081Y-98789649D01*
X154341083Y-98789649D01*
X154524434Y-98775541D01*
X154524438Y-98775540D01*
X154530576Y-98775068D01*
X154719556Y-98722303D01*
X154894689Y-98633837D01*
X154917113Y-98616318D01*
X154996378Y-98554389D01*
X155049303Y-98513040D01*
X155097252Y-98457491D01*
X155173485Y-98369173D01*
X155173485Y-98369172D01*
X155177509Y-98364511D01*
X155274425Y-98193909D01*
X155336358Y-98007732D01*
X155360949Y-97813071D01*
X155361341Y-97785000D01*
X155342194Y-97589728D01*
X155340413Y-97583829D01*
X155340412Y-97583824D01*
X155287265Y-97407793D01*
X155285484Y-97401894D01*
X155193370Y-97228653D01*
X155069361Y-97076602D01*
X154918180Y-96951535D01*
X154745585Y-96858213D01*
X154622436Y-96820092D01*
X154564039Y-96802015D01*
X154564036Y-96802014D01*
X154558152Y-96800193D01*
X154552027Y-96799549D01*
X154552026Y-96799549D01*
X154369147Y-96780327D01*
X154369146Y-96780327D01*
X154363019Y-96779683D01*
X154240383Y-96790844D01*
X154173759Y-96796907D01*
X154173758Y-96796907D01*
X154167618Y-96797466D01*
X154161704Y-96799207D01*
X154161702Y-96799207D01*
X154090742Y-96820092D01*
X153979393Y-96852864D01*
X153973928Y-96855721D01*
X153858315Y-96916162D01*
X153799940Y-96930500D01*
X148158136Y-96930500D01*
X148090015Y-96910498D01*
X148069040Y-96893595D01*
X147665948Y-96490502D01*
X147242375Y-96066929D01*
X147235233Y-96059162D01*
X147206161Y-96024760D01*
X147201755Y-96019546D01*
X147137496Y-95970417D01*
X147135131Y-95968562D01*
X147077411Y-95922154D01*
X147077410Y-95922153D01*
X147072095Y-95917880D01*
X147065986Y-95914847D01*
X147063265Y-95913107D01*
X147062887Y-95912842D01*
X147062850Y-95912820D01*
X147062442Y-95912595D01*
X147059685Y-95910925D01*
X147054264Y-95906781D01*
X147048082Y-95903898D01*
X147048080Y-95903897D01*
X146980976Y-95872606D01*
X146978202Y-95871271D01*
X146905797Y-95835329D01*
X146899170Y-95833677D01*
X146896163Y-95832570D01*
X146895726Y-95832388D01*
X146895672Y-95832369D01*
X146895237Y-95832241D01*
X146892186Y-95831202D01*
X146886000Y-95828318D01*
X146879340Y-95826829D01*
X146879336Y-95826828D01*
X146807096Y-95810680D01*
X146804100Y-95809972D01*
X146732278Y-95792064D01*
X146732270Y-95792063D01*
X146725653Y-95790413D01*
X146718832Y-95790222D01*
X146715625Y-95789783D01*
X146714736Y-95789623D01*
X146709860Y-95788946D01*
X146704812Y-95787818D01*
X146699124Y-95787500D01*
X146623110Y-95787500D01*
X146619595Y-95787451D01*
X146540066Y-95785230D01*
X146533360Y-95786509D01*
X146526563Y-95787056D01*
X146526521Y-95786529D01*
X146516257Y-95787500D01*
X129511161Y-95787500D01*
X129451232Y-95772336D01*
X129431259Y-95761537D01*
X129345585Y-95715213D01*
X129246848Y-95684649D01*
X129164039Y-95659015D01*
X129164036Y-95659014D01*
X129158152Y-95657193D01*
X129152027Y-95656549D01*
X129152026Y-95656549D01*
X128969147Y-95637327D01*
X128969146Y-95637327D01*
X128963019Y-95636683D01*
X128840383Y-95647844D01*
X128773759Y-95653907D01*
X128773758Y-95653907D01*
X128767618Y-95654466D01*
X128761704Y-95656207D01*
X128761702Y-95656207D01*
X128632734Y-95694165D01*
X128579393Y-95709864D01*
X128573928Y-95712721D01*
X128410972Y-95797912D01*
X128410968Y-95797915D01*
X128405512Y-95800767D01*
X128252600Y-95923711D01*
X128126480Y-96074016D01*
X128123516Y-96079408D01*
X128123513Y-96079412D01*
X128091323Y-96137966D01*
X128031956Y-96245954D01*
X128030095Y-96251821D01*
X128030094Y-96251823D01*
X128018462Y-96288493D01*
X127972628Y-96432978D01*
X127950757Y-96627963D01*
X100600500Y-96627963D01*
X100600500Y-94595963D01*
X156398757Y-94595963D01*
X156415175Y-94791483D01*
X156469258Y-94980091D01*
X156472076Y-94985574D01*
X156556123Y-95149113D01*
X156556126Y-95149117D01*
X156558944Y-95154601D01*
X156680818Y-95308369D01*
X156830238Y-95435535D01*
X157001513Y-95531257D01*
X157188118Y-95591889D01*
X157382946Y-95615121D01*
X157389081Y-95614649D01*
X157389083Y-95614649D01*
X157572434Y-95600541D01*
X157572438Y-95600540D01*
X157578576Y-95600068D01*
X157767556Y-95547303D01*
X157904685Y-95478034D01*
X157961496Y-95464500D01*
X159283865Y-95464500D01*
X159351986Y-95484502D01*
X159372960Y-95501405D01*
X160062619Y-96191064D01*
X160069750Y-96198818D01*
X160103245Y-96238454D01*
X160111586Y-96244831D01*
X160167493Y-96287576D01*
X160169889Y-96289455D01*
X160232905Y-96340121D01*
X160239019Y-96343156D01*
X160241728Y-96344888D01*
X160242096Y-96345146D01*
X160242162Y-96345187D01*
X160242580Y-96345417D01*
X160245311Y-96347071D01*
X160250736Y-96351219D01*
X160256928Y-96354106D01*
X160256929Y-96354107D01*
X160324026Y-96385396D01*
X160326798Y-96386730D01*
X160391134Y-96418665D01*
X160399203Y-96422671D01*
X160405819Y-96424321D01*
X160408839Y-96425432D01*
X160409257Y-96425606D01*
X160409331Y-96425632D01*
X160409763Y-96425759D01*
X160412814Y-96426798D01*
X160419000Y-96429682D01*
X160425660Y-96431171D01*
X160425664Y-96431172D01*
X160497904Y-96447320D01*
X160500900Y-96448028D01*
X160572722Y-96465936D01*
X160572730Y-96465937D01*
X160579347Y-96467587D01*
X160586168Y-96467778D01*
X160589375Y-96468217D01*
X160590264Y-96468377D01*
X160595140Y-96469054D01*
X160600188Y-96470182D01*
X160605876Y-96470500D01*
X160681891Y-96470500D01*
X160685406Y-96470549D01*
X160764935Y-96472770D01*
X160771641Y-96471491D01*
X160778438Y-96470944D01*
X160778480Y-96471471D01*
X160788744Y-96470500D01*
X174141666Y-96470500D01*
X174209787Y-96490502D01*
X174236904Y-96514003D01*
X174328763Y-96620048D01*
X174505953Y-96767154D01*
X174704790Y-96883345D01*
X174919934Y-96965501D01*
X174925000Y-96966532D01*
X174925001Y-96966532D01*
X175025697Y-96987018D01*
X175145607Y-97011414D01*
X175275352Y-97016172D01*
X175370585Y-97019664D01*
X175370589Y-97019664D01*
X175375749Y-97019853D01*
X175380869Y-97019197D01*
X175380871Y-97019197D01*
X175450272Y-97010307D01*
X175604178Y-96990591D01*
X175609126Y-96989106D01*
X175609133Y-96989105D01*
X175819811Y-96925898D01*
X175819810Y-96925898D01*
X175824761Y-96924413D01*
X176031574Y-96823096D01*
X176219062Y-96689363D01*
X176382190Y-96526803D01*
X176422613Y-96470549D01*
X176513559Y-96343983D01*
X176516577Y-96339783D01*
X176618615Y-96133325D01*
X176668387Y-95969509D01*
X176684059Y-95917927D01*
X176684060Y-95917921D01*
X176685563Y-95912975D01*
X176702210Y-95786529D01*
X176715185Y-95687971D01*
X176715185Y-95687965D01*
X176715622Y-95684649D01*
X176716360Y-95654466D01*
X176717218Y-95619364D01*
X176717218Y-95619360D01*
X176717300Y-95616000D01*
X176698430Y-95386478D01*
X176642326Y-95163120D01*
X176582248Y-95024949D01*
X176552556Y-94956661D01*
X176552554Y-94956658D01*
X176550496Y-94951924D01*
X176446702Y-94791483D01*
X176428215Y-94762906D01*
X176428213Y-94762903D01*
X176425405Y-94758563D01*
X176404774Y-94735889D01*
X176273890Y-94592051D01*
X176273889Y-94592050D01*
X176270412Y-94588229D01*
X176266361Y-94585030D01*
X176266357Y-94585026D01*
X176093735Y-94448697D01*
X176093730Y-94448693D01*
X176089681Y-94445496D01*
X176085165Y-94443003D01*
X176085162Y-94443001D01*
X175892589Y-94336695D01*
X175892585Y-94336693D01*
X175888065Y-94334198D01*
X175883196Y-94332474D01*
X175883192Y-94332472D01*
X175675853Y-94259049D01*
X175675849Y-94259048D01*
X175670978Y-94257323D01*
X175665885Y-94256416D01*
X175665882Y-94256415D01*
X175513594Y-94229289D01*
X175444250Y-94216937D01*
X175357802Y-94215881D01*
X175219141Y-94214186D01*
X175219139Y-94214186D01*
X175213971Y-94214123D01*
X174986325Y-94248958D01*
X174767424Y-94320506D01*
X174762832Y-94322896D01*
X174762833Y-94322896D01*
X174572301Y-94422081D01*
X174563149Y-94426845D01*
X174378984Y-94565119D01*
X174375410Y-94568859D01*
X174228540Y-94722551D01*
X174167016Y-94757981D01*
X174137446Y-94761500D01*
X161102136Y-94761500D01*
X161034015Y-94741498D01*
X161013040Y-94724595D01*
X160683555Y-94395109D01*
X160323375Y-94034929D01*
X160316233Y-94027162D01*
X160291911Y-93998381D01*
X160282755Y-93987546D01*
X160218496Y-93938417D01*
X160216131Y-93936562D01*
X160158411Y-93890154D01*
X160158410Y-93890153D01*
X160153095Y-93885880D01*
X160146986Y-93882847D01*
X160144265Y-93881107D01*
X160143887Y-93880842D01*
X160143850Y-93880820D01*
X160143442Y-93880595D01*
X160140685Y-93878925D01*
X160135264Y-93874781D01*
X160129082Y-93871898D01*
X160129080Y-93871897D01*
X160061976Y-93840606D01*
X160059202Y-93839271D01*
X159986797Y-93803329D01*
X159980170Y-93801677D01*
X159977163Y-93800570D01*
X159976726Y-93800388D01*
X159976672Y-93800369D01*
X159976237Y-93800241D01*
X159973186Y-93799202D01*
X159967000Y-93796318D01*
X159960340Y-93794829D01*
X159960336Y-93794828D01*
X159888096Y-93778680D01*
X159885100Y-93777972D01*
X159813278Y-93760064D01*
X159813270Y-93760063D01*
X159806653Y-93758413D01*
X159799832Y-93758222D01*
X159796625Y-93757783D01*
X159795736Y-93757623D01*
X159790860Y-93756946D01*
X159785812Y-93755818D01*
X159780124Y-93755500D01*
X159704110Y-93755500D01*
X159700595Y-93755451D01*
X159621066Y-93753230D01*
X159614360Y-93754509D01*
X159607563Y-93755056D01*
X159607521Y-93754529D01*
X159597257Y-93755500D01*
X157959161Y-93755500D01*
X157899232Y-93740336D01*
X157857162Y-93717589D01*
X157793585Y-93683213D01*
X157699869Y-93654203D01*
X157612039Y-93627015D01*
X157612036Y-93627014D01*
X157606152Y-93625193D01*
X157600027Y-93624549D01*
X157600026Y-93624549D01*
X157417147Y-93605327D01*
X157417146Y-93605327D01*
X157411019Y-93604683D01*
X157288383Y-93615844D01*
X157221759Y-93621907D01*
X157221758Y-93621907D01*
X157215618Y-93622466D01*
X157209704Y-93624207D01*
X157209702Y-93624207D01*
X157080734Y-93662165D01*
X157027393Y-93677864D01*
X157021928Y-93680721D01*
X156858972Y-93765912D01*
X156858968Y-93765915D01*
X156853512Y-93768767D01*
X156700600Y-93891711D01*
X156574480Y-94042016D01*
X156571516Y-94047408D01*
X156571513Y-94047412D01*
X156510111Y-94159103D01*
X156479956Y-94213954D01*
X156478095Y-94219821D01*
X156478094Y-94219823D01*
X156466198Y-94257323D01*
X156420628Y-94400978D01*
X156409863Y-94496952D01*
X156399625Y-94588229D01*
X156398757Y-94595963D01*
X100600500Y-94595963D01*
X100600500Y-92292000D01*
X104510778Y-92292000D01*
X104529644Y-92579839D01*
X104530448Y-92583879D01*
X104530448Y-92583882D01*
X104564335Y-92754241D01*
X104585919Y-92862753D01*
X104678641Y-93135902D01*
X104806222Y-93394611D01*
X104808516Y-93398044D01*
X104959862Y-93624549D01*
X104966480Y-93634454D01*
X104969194Y-93637548D01*
X104969198Y-93637554D01*
X105128306Y-93818981D01*
X105156673Y-93851327D01*
X105159762Y-93854036D01*
X105370446Y-94038802D01*
X105370452Y-94038806D01*
X105373546Y-94041520D01*
X105376972Y-94043809D01*
X105376977Y-94043813D01*
X105505792Y-94129884D01*
X105613389Y-94201778D01*
X105617088Y-94203602D01*
X105617093Y-94203605D01*
X105868403Y-94327537D01*
X105872098Y-94329359D01*
X105875996Y-94330682D01*
X105875998Y-94330683D01*
X106141337Y-94420754D01*
X106141341Y-94420755D01*
X106145247Y-94422081D01*
X106149291Y-94422885D01*
X106149297Y-94422887D01*
X106424118Y-94477552D01*
X106424121Y-94477552D01*
X106428161Y-94478356D01*
X106432272Y-94478625D01*
X106432276Y-94478626D01*
X106711881Y-94496952D01*
X106716000Y-94497222D01*
X106720119Y-94496952D01*
X106999724Y-94478626D01*
X106999728Y-94478625D01*
X107003839Y-94478356D01*
X107007879Y-94477552D01*
X107007882Y-94477552D01*
X107282703Y-94422887D01*
X107282709Y-94422885D01*
X107286753Y-94422081D01*
X107290659Y-94420755D01*
X107290663Y-94420754D01*
X107556002Y-94330683D01*
X107556004Y-94330682D01*
X107559902Y-94329359D01*
X107563597Y-94327537D01*
X107814907Y-94203605D01*
X107814912Y-94203602D01*
X107818611Y-94201778D01*
X107926208Y-94129884D01*
X108055023Y-94043813D01*
X108055028Y-94043809D01*
X108058454Y-94041520D01*
X108061548Y-94038806D01*
X108061554Y-94038802D01*
X108272238Y-93854036D01*
X108275327Y-93851327D01*
X108303694Y-93818981D01*
X108462802Y-93637554D01*
X108462806Y-93637548D01*
X108465520Y-93634454D01*
X108472139Y-93624549D01*
X108623484Y-93398044D01*
X108625778Y-93394611D01*
X108753359Y-93135902D01*
X108846081Y-92862753D01*
X108867666Y-92754241D01*
X108901552Y-92583882D01*
X108901552Y-92583879D01*
X108902356Y-92579839D01*
X108921222Y-92292000D01*
X118510778Y-92292000D01*
X118529644Y-92579839D01*
X118530448Y-92583879D01*
X118530448Y-92583882D01*
X118564335Y-92754241D01*
X118585919Y-92862753D01*
X118678641Y-93135902D01*
X118806222Y-93394611D01*
X118808516Y-93398044D01*
X118959862Y-93624549D01*
X118966480Y-93634454D01*
X118969194Y-93637548D01*
X118969198Y-93637554D01*
X119128306Y-93818981D01*
X119156673Y-93851327D01*
X119159762Y-93854036D01*
X119370446Y-94038802D01*
X119370452Y-94038806D01*
X119373546Y-94041520D01*
X119376972Y-94043809D01*
X119376977Y-94043813D01*
X119505792Y-94129884D01*
X119613389Y-94201778D01*
X119617088Y-94203602D01*
X119617093Y-94203605D01*
X119868403Y-94327537D01*
X119872098Y-94329359D01*
X119875996Y-94330682D01*
X119875998Y-94330683D01*
X120141337Y-94420754D01*
X120141341Y-94420755D01*
X120145247Y-94422081D01*
X120149291Y-94422885D01*
X120149297Y-94422887D01*
X120424118Y-94477552D01*
X120424121Y-94477552D01*
X120428161Y-94478356D01*
X120432272Y-94478625D01*
X120432276Y-94478626D01*
X120711881Y-94496952D01*
X120716000Y-94497222D01*
X120720119Y-94496952D01*
X120999724Y-94478626D01*
X120999728Y-94478625D01*
X121003839Y-94478356D01*
X121007879Y-94477552D01*
X121007882Y-94477552D01*
X121282703Y-94422887D01*
X121282709Y-94422885D01*
X121286753Y-94422081D01*
X121290659Y-94420755D01*
X121290663Y-94420754D01*
X121556002Y-94330683D01*
X121556004Y-94330682D01*
X121559902Y-94329359D01*
X121563597Y-94327537D01*
X121814907Y-94203605D01*
X121814912Y-94203602D01*
X121818611Y-94201778D01*
X121926208Y-94129884D01*
X122055023Y-94043813D01*
X122055028Y-94043809D01*
X122058454Y-94041520D01*
X122061548Y-94038806D01*
X122061554Y-94038802D01*
X122272238Y-93854036D01*
X122275327Y-93851327D01*
X122303694Y-93818981D01*
X122462802Y-93637554D01*
X122462806Y-93637548D01*
X122465520Y-93634454D01*
X122472139Y-93624549D01*
X122623484Y-93398044D01*
X122625778Y-93394611D01*
X122753359Y-93135902D01*
X122846081Y-92862753D01*
X122867666Y-92754241D01*
X122901552Y-92583882D01*
X122901552Y-92583879D01*
X122902356Y-92579839D01*
X122921222Y-92292000D01*
X122902356Y-92004161D01*
X122846081Y-91721247D01*
X122753359Y-91448098D01*
X122723118Y-91386775D01*
X122627605Y-91193093D01*
X122627602Y-91193088D01*
X122625778Y-91189389D01*
X122573934Y-91111799D01*
X122467813Y-90952977D01*
X122467809Y-90952972D01*
X122465520Y-90949546D01*
X122462806Y-90946452D01*
X122462802Y-90946446D01*
X122278036Y-90735762D01*
X122275327Y-90732673D01*
X122239225Y-90701012D01*
X122061554Y-90545198D01*
X122061548Y-90545194D01*
X122058454Y-90542480D01*
X122055028Y-90540191D01*
X122055023Y-90540187D01*
X121840376Y-90396765D01*
X121794848Y-90342288D01*
X121786000Y-90271845D01*
X121816641Y-90207801D01*
X121840376Y-90187235D01*
X122055023Y-90043813D01*
X122055028Y-90043809D01*
X122058454Y-90041520D01*
X122061548Y-90038806D01*
X122061554Y-90038802D01*
X122272238Y-89854036D01*
X122275327Y-89851327D01*
X122278036Y-89848238D01*
X122462802Y-89637554D01*
X122462806Y-89637548D01*
X122465520Y-89634454D01*
X122625778Y-89394611D01*
X122753359Y-89135902D01*
X122846081Y-88862753D01*
X122902356Y-88579839D01*
X122921222Y-88292000D01*
X122902356Y-88004161D01*
X122895821Y-87971305D01*
X122846887Y-87725297D01*
X122846885Y-87725291D01*
X122846081Y-87721247D01*
X122834312Y-87686575D01*
X122754683Y-87451998D01*
X122754682Y-87451996D01*
X122753359Y-87448098D01*
X122680603Y-87300563D01*
X122627605Y-87193093D01*
X122627602Y-87193088D01*
X122625778Y-87189389D01*
X122465520Y-86949546D01*
X122462806Y-86946452D01*
X122462802Y-86946446D01*
X122278036Y-86735762D01*
X122275327Y-86732673D01*
X122246258Y-86707180D01*
X122061554Y-86545198D01*
X122061548Y-86545194D01*
X122058454Y-86542480D01*
X122055028Y-86540191D01*
X122055023Y-86540187D01*
X121858793Y-86409071D01*
X121818611Y-86382222D01*
X121814912Y-86380398D01*
X121814907Y-86380395D01*
X121563597Y-86256463D01*
X121563595Y-86256462D01*
X121559902Y-86254641D01*
X121530090Y-86244521D01*
X121290663Y-86163246D01*
X121290659Y-86163245D01*
X121286753Y-86161919D01*
X121282709Y-86161115D01*
X121282703Y-86161113D01*
X121007882Y-86106448D01*
X121007879Y-86106448D01*
X121003839Y-86105644D01*
X120999728Y-86105375D01*
X120999724Y-86105374D01*
X120720119Y-86087048D01*
X120716000Y-86086778D01*
X120711881Y-86087048D01*
X120432276Y-86105374D01*
X120432272Y-86105375D01*
X120428161Y-86105644D01*
X120424121Y-86106448D01*
X120424118Y-86106448D01*
X120149297Y-86161113D01*
X120149291Y-86161115D01*
X120145247Y-86161919D01*
X120141341Y-86163245D01*
X120141337Y-86163246D01*
X119901910Y-86244521D01*
X119872098Y-86254641D01*
X119868405Y-86256462D01*
X119868403Y-86256463D01*
X119617093Y-86380395D01*
X119617088Y-86380398D01*
X119613389Y-86382222D01*
X119573207Y-86409071D01*
X119376977Y-86540187D01*
X119376972Y-86540191D01*
X119373546Y-86542480D01*
X119370452Y-86545194D01*
X119370446Y-86545198D01*
X119185742Y-86707180D01*
X119156673Y-86732673D01*
X119153964Y-86735762D01*
X118969198Y-86946446D01*
X118969194Y-86946452D01*
X118966480Y-86949546D01*
X118806222Y-87189389D01*
X118804398Y-87193088D01*
X118804395Y-87193093D01*
X118751397Y-87300563D01*
X118678641Y-87448098D01*
X118677318Y-87451996D01*
X118677317Y-87451998D01*
X118597689Y-87686575D01*
X118585919Y-87721247D01*
X118585115Y-87725291D01*
X118585113Y-87725297D01*
X118536179Y-87971305D01*
X118529644Y-88004161D01*
X118510778Y-88292000D01*
X118529644Y-88579839D01*
X118585919Y-88862753D01*
X118678641Y-89135902D01*
X118806222Y-89394611D01*
X118966480Y-89634454D01*
X118969194Y-89637548D01*
X118969198Y-89637554D01*
X119153964Y-89848238D01*
X119156673Y-89851327D01*
X119159762Y-89854036D01*
X119370446Y-90038802D01*
X119370452Y-90038806D01*
X119373546Y-90041520D01*
X119376972Y-90043809D01*
X119376977Y-90043813D01*
X119591624Y-90187235D01*
X119637152Y-90241712D01*
X119646000Y-90312155D01*
X119615359Y-90376199D01*
X119591624Y-90396765D01*
X119376977Y-90540187D01*
X119376972Y-90540191D01*
X119373546Y-90542480D01*
X119370452Y-90545194D01*
X119370446Y-90545198D01*
X119192775Y-90701012D01*
X119156673Y-90732673D01*
X119153964Y-90735762D01*
X118969198Y-90946446D01*
X118969194Y-90946452D01*
X118966480Y-90949546D01*
X118964191Y-90952972D01*
X118964187Y-90952977D01*
X118858066Y-91111799D01*
X118806222Y-91189389D01*
X118804398Y-91193088D01*
X118804395Y-91193093D01*
X118708882Y-91386775D01*
X118678641Y-91448098D01*
X118585919Y-91721247D01*
X118529644Y-92004161D01*
X118510778Y-92292000D01*
X108921222Y-92292000D01*
X108902356Y-92004161D01*
X108846081Y-91721247D01*
X108753359Y-91448098D01*
X108723118Y-91386775D01*
X108627605Y-91193093D01*
X108627602Y-91193088D01*
X108625778Y-91189389D01*
X108573934Y-91111799D01*
X108467813Y-90952977D01*
X108467809Y-90952972D01*
X108465520Y-90949546D01*
X108462806Y-90946452D01*
X108462802Y-90946446D01*
X108278036Y-90735762D01*
X108275327Y-90732673D01*
X108272238Y-90729964D01*
X108272230Y-90729956D01*
X108253158Y-90713230D01*
X108215131Y-90653276D01*
X108215554Y-90582281D01*
X108254292Y-90522785D01*
X108319048Y-90493677D01*
X108336236Y-90492499D01*
X108355360Y-90492499D01*
X108359444Y-90491961D01*
X108359450Y-90491961D01*
X108464575Y-90478122D01*
X108464577Y-90478122D01*
X108472762Y-90477044D01*
X108618841Y-90416536D01*
X108744282Y-90320282D01*
X108765984Y-90292000D01*
X108835509Y-90201392D01*
X108840536Y-90194841D01*
X108901044Y-90048762D01*
X108916500Y-89931361D01*
X108916499Y-86652640D01*
X108901044Y-86535238D01*
X108840536Y-86389159D01*
X108744282Y-86263718D01*
X108618841Y-86167464D01*
X108472762Y-86106956D01*
X108464574Y-86105878D01*
X108359448Y-86092038D01*
X108359447Y-86092038D01*
X108355361Y-86091500D01*
X106716199Y-86091500D01*
X105076640Y-86091501D01*
X105072556Y-86092039D01*
X105072550Y-86092039D01*
X104967425Y-86105878D01*
X104967423Y-86105878D01*
X104959238Y-86106956D01*
X104813159Y-86167464D01*
X104687718Y-86263718D01*
X104591464Y-86389159D01*
X104530956Y-86535238D01*
X104515500Y-86652639D01*
X104515501Y-89931360D01*
X104530956Y-90048762D01*
X104591464Y-90194841D01*
X104596491Y-90201392D01*
X104666017Y-90292000D01*
X104687718Y-90320282D01*
X104813159Y-90416536D01*
X104959238Y-90477044D01*
X104967426Y-90478122D01*
X105072545Y-90491961D01*
X105076639Y-90492500D01*
X105095763Y-90492500D01*
X105163884Y-90512502D01*
X105210377Y-90566158D01*
X105220481Y-90636432D01*
X105190987Y-90701012D01*
X105178841Y-90713231D01*
X105159770Y-90729956D01*
X105159762Y-90729964D01*
X105156673Y-90732673D01*
X105153964Y-90735762D01*
X104969198Y-90946446D01*
X104969194Y-90946452D01*
X104966480Y-90949546D01*
X104964191Y-90952972D01*
X104964187Y-90952977D01*
X104858066Y-91111799D01*
X104806222Y-91189389D01*
X104804398Y-91193088D01*
X104804395Y-91193093D01*
X104708882Y-91386775D01*
X104678641Y-91448098D01*
X104585919Y-91721247D01*
X104529644Y-92004161D01*
X104510778Y-92292000D01*
X100600500Y-92292000D01*
X100600500Y-79580642D01*
X103450418Y-79580642D01*
X103464936Y-79927032D01*
X103484930Y-80056186D01*
X103515635Y-80254529D01*
X103517975Y-80269646D01*
X103608875Y-80604212D01*
X103736501Y-80926560D01*
X103899265Y-81232673D01*
X103901250Y-81235572D01*
X104093145Y-81515829D01*
X104093150Y-81515835D01*
X104095136Y-81518736D01*
X104321673Y-81781182D01*
X104324243Y-81783562D01*
X104324247Y-81783566D01*
X104417883Y-81870273D01*
X104576053Y-82016740D01*
X104855105Y-82222475D01*
X104858142Y-82224229D01*
X104858146Y-82224231D01*
X104904004Y-82250707D01*
X105155352Y-82395823D01*
X105473050Y-82534621D01*
X105476406Y-82535660D01*
X105476409Y-82535661D01*
X105800879Y-82636102D01*
X105804239Y-82637142D01*
X105807691Y-82637800D01*
X105807697Y-82637802D01*
X106141342Y-82701448D01*
X106141347Y-82701449D01*
X106144793Y-82702106D01*
X106373280Y-82719687D01*
X106486969Y-82728435D01*
X106486970Y-82728435D01*
X106490466Y-82728704D01*
X106719659Y-82720700D01*
X106833433Y-82716727D01*
X106833437Y-82716727D01*
X106836949Y-82716604D01*
X106840428Y-82716090D01*
X106840431Y-82716090D01*
X107176432Y-82666474D01*
X107176438Y-82666473D01*
X107179924Y-82665958D01*
X107183328Y-82665059D01*
X107183331Y-82665058D01*
X107511726Y-82578293D01*
X107511727Y-82578293D01*
X107515117Y-82577397D01*
X107838348Y-82452023D01*
X108145590Y-82291401D01*
X108433013Y-82097532D01*
X108697034Y-81872832D01*
X108748669Y-81817846D01*
X108931952Y-81622671D01*
X108931956Y-81622666D01*
X108934363Y-81620103D01*
X108936468Y-81617289D01*
X108936474Y-81617282D01*
X109139932Y-81345313D01*
X109142041Y-81342494D01*
X109170176Y-81294540D01*
X109220595Y-81208601D01*
X109317480Y-81043465D01*
X109330594Y-81014011D01*
X109457062Y-80729961D01*
X109457064Y-80729956D01*
X109458494Y-80726744D01*
X109563324Y-80396278D01*
X109630664Y-80056186D01*
X109652614Y-79794790D01*
X109659491Y-79712891D01*
X109659492Y-79712880D01*
X109659674Y-79710707D01*
X109659706Y-79708452D01*
X109660855Y-79626178D01*
X109660855Y-79626166D01*
X109660885Y-79624000D01*
X109660693Y-79620552D01*
X109658462Y-79580642D01*
X113610418Y-79580642D01*
X113624936Y-79927032D01*
X113644930Y-80056186D01*
X113675635Y-80254529D01*
X113677975Y-80269646D01*
X113768875Y-80604212D01*
X113896501Y-80926560D01*
X114059265Y-81232673D01*
X114061250Y-81235572D01*
X114253145Y-81515829D01*
X114253150Y-81515835D01*
X114255136Y-81518736D01*
X114481673Y-81781182D01*
X114484243Y-81783562D01*
X114484247Y-81783566D01*
X114577883Y-81870273D01*
X114736053Y-82016740D01*
X115015105Y-82222475D01*
X115018142Y-82224229D01*
X115018146Y-82224231D01*
X115064004Y-82250707D01*
X115315352Y-82395823D01*
X115633050Y-82534621D01*
X115636406Y-82535660D01*
X115636409Y-82535661D01*
X115960879Y-82636102D01*
X115964239Y-82637142D01*
X115967691Y-82637800D01*
X115967697Y-82637802D01*
X116301342Y-82701448D01*
X116301347Y-82701449D01*
X116304793Y-82702106D01*
X116533280Y-82719687D01*
X116646969Y-82728435D01*
X116646970Y-82728435D01*
X116650466Y-82728704D01*
X116879659Y-82720700D01*
X116993433Y-82716727D01*
X116993437Y-82716727D01*
X116996949Y-82716604D01*
X117000428Y-82716090D01*
X117000431Y-82716090D01*
X117336432Y-82666474D01*
X117336438Y-82666473D01*
X117339924Y-82665958D01*
X117343328Y-82665059D01*
X117343331Y-82665058D01*
X117671726Y-82578293D01*
X117671727Y-82578293D01*
X117675117Y-82577397D01*
X117998348Y-82452023D01*
X118305590Y-82291401D01*
X118593013Y-82097532D01*
X118857034Y-81872832D01*
X118908669Y-81817846D01*
X119091952Y-81622671D01*
X119091956Y-81622666D01*
X119094363Y-81620103D01*
X119096468Y-81617289D01*
X119096474Y-81617282D01*
X119143850Y-81553953D01*
X158400707Y-81553953D01*
X158417194Y-81839878D01*
X158418019Y-81844083D01*
X158418020Y-81844091D01*
X158449853Y-82006342D01*
X158472332Y-82120920D01*
X158473719Y-82124970D01*
X158473720Y-82124975D01*
X158563713Y-82387822D01*
X158565102Y-82391878D01*
X158604647Y-82470505D01*
X158676484Y-82613336D01*
X158693787Y-82647740D01*
X158696213Y-82651269D01*
X158696216Y-82651275D01*
X158809091Y-82815508D01*
X158856006Y-82883770D01*
X158858893Y-82886943D01*
X158858894Y-82886944D01*
X158899436Y-82931499D01*
X159048756Y-83095600D01*
X159268472Y-83279311D01*
X159511088Y-83431503D01*
X159514990Y-83433265D01*
X159514994Y-83433267D01*
X159768202Y-83547595D01*
X159768206Y-83547597D01*
X159772114Y-83549361D01*
X159776233Y-83550581D01*
X160042606Y-83629485D01*
X160042611Y-83629486D01*
X160046719Y-83630703D01*
X160050953Y-83631351D01*
X160050958Y-83631352D01*
X160298214Y-83669187D01*
X160329824Y-83674024D01*
X160475589Y-83676314D01*
X160611898Y-83678456D01*
X160611904Y-83678456D01*
X160616189Y-83678523D01*
X160620441Y-83678008D01*
X160620449Y-83678008D01*
X160840221Y-83651411D01*
X160900514Y-83644115D01*
X160904662Y-83643027D01*
X160904666Y-83643026D01*
X161173388Y-83572528D01*
X161177539Y-83571439D01*
X161181500Y-83569799D01*
X161181504Y-83569797D01*
X161430740Y-83466560D01*
X161442138Y-83461839D01*
X161491034Y-83433267D01*
X161685717Y-83319503D01*
X161685718Y-83319503D01*
X161689415Y-83317342D01*
X161914793Y-83140623D01*
X161961491Y-83092435D01*
X162021037Y-83030988D01*
X162114102Y-82934952D01*
X162116635Y-82931504D01*
X162116639Y-82931499D01*
X162267792Y-82725729D01*
X162283655Y-82704134D01*
X162312355Y-82651275D01*
X162418263Y-82456217D01*
X162418264Y-82456215D01*
X162420313Y-82452441D01*
X162521548Y-82184530D01*
X162585487Y-81905358D01*
X162610946Y-81620092D01*
X162610976Y-81617282D01*
X162611382Y-81578484D01*
X162611382Y-81578483D01*
X162611408Y-81576000D01*
X162610572Y-81563741D01*
X162592220Y-81294540D01*
X162592219Y-81294534D01*
X162591928Y-81290263D01*
X162582746Y-81245922D01*
X162534719Y-81014011D01*
X162533850Y-81009814D01*
X162438248Y-80739842D01*
X162306891Y-80485342D01*
X162304428Y-80481837D01*
X162144673Y-80254529D01*
X162144668Y-80254523D01*
X162142209Y-80251024D01*
X162068943Y-80172181D01*
X161950172Y-80044367D01*
X161950169Y-80044364D01*
X161947251Y-80041224D01*
X161943935Y-80038510D01*
X161943932Y-80038507D01*
X161728941Y-79862539D01*
X161725623Y-79859823D01*
X161515035Y-79730775D01*
X161485089Y-79712424D01*
X161485088Y-79712424D01*
X161481427Y-79710180D01*
X161463419Y-79702275D01*
X161286560Y-79624639D01*
X166814000Y-79624639D01*
X166814001Y-84703360D01*
X166814539Y-84707444D01*
X166814539Y-84707450D01*
X166818997Y-84741311D01*
X166829456Y-84820762D01*
X166889964Y-84966841D01*
X166986218Y-85092282D01*
X167111659Y-85188536D01*
X167257738Y-85249044D01*
X167265926Y-85250122D01*
X167371045Y-85263961D01*
X167375139Y-85264500D01*
X169914192Y-85264500D01*
X172453860Y-85264499D01*
X172457944Y-85263961D01*
X172457950Y-85263961D01*
X172563075Y-85250122D01*
X172563077Y-85250122D01*
X172571262Y-85249044D01*
X172717341Y-85188536D01*
X172842782Y-85092282D01*
X172939036Y-84966841D01*
X172999544Y-84820762D01*
X173015000Y-84703361D01*
X173014999Y-82120642D01*
X192209418Y-82120642D01*
X192223936Y-82467032D01*
X192243930Y-82596186D01*
X192264445Y-82728704D01*
X192276975Y-82809646D01*
X192277897Y-82813038D01*
X192277897Y-82813040D01*
X192299003Y-82890721D01*
X192367875Y-83144212D01*
X192495501Y-83466560D01*
X192658265Y-83772673D01*
X192660250Y-83775572D01*
X192852145Y-84055829D01*
X192852150Y-84055835D01*
X192854136Y-84058736D01*
X193080673Y-84321182D01*
X193083243Y-84323562D01*
X193083247Y-84323566D01*
X193162580Y-84397029D01*
X193335053Y-84556740D01*
X193337875Y-84558821D01*
X193337878Y-84558823D01*
X193345582Y-84564503D01*
X193614105Y-84762475D01*
X193617142Y-84764229D01*
X193617146Y-84764231D01*
X193715061Y-84820762D01*
X193914352Y-84935823D01*
X194232050Y-85074621D01*
X194235406Y-85075660D01*
X194235409Y-85075661D01*
X194373130Y-85118293D01*
X194563239Y-85177142D01*
X194566691Y-85177800D01*
X194566697Y-85177802D01*
X194900342Y-85241448D01*
X194900347Y-85241449D01*
X194903793Y-85242106D01*
X195132280Y-85259687D01*
X195245969Y-85268435D01*
X195245970Y-85268435D01*
X195249466Y-85268704D01*
X195478659Y-85260700D01*
X195592433Y-85256727D01*
X195592437Y-85256727D01*
X195595949Y-85256604D01*
X195599428Y-85256090D01*
X195599431Y-85256090D01*
X195935432Y-85206474D01*
X195935438Y-85206473D01*
X195938924Y-85205958D01*
X195942328Y-85205059D01*
X195942331Y-85205058D01*
X196270726Y-85118293D01*
X196270727Y-85118293D01*
X196274117Y-85117397D01*
X196597348Y-84992023D01*
X196904590Y-84831401D01*
X197094419Y-84703360D01*
X197189097Y-84639499D01*
X197189099Y-84639498D01*
X197192013Y-84637532D01*
X197437942Y-84428230D01*
X197453361Y-84415107D01*
X197453362Y-84415106D01*
X197456034Y-84412832D01*
X197544597Y-84318522D01*
X197690952Y-84162671D01*
X197690956Y-84162666D01*
X197693363Y-84160103D01*
X197695468Y-84157289D01*
X197695474Y-84157282D01*
X197898932Y-83885313D01*
X197901041Y-83882494D01*
X197965473Y-83772673D01*
X198040594Y-83644631D01*
X198076480Y-83583465D01*
X198077912Y-83580249D01*
X198216062Y-83269961D01*
X198216064Y-83269956D01*
X198217494Y-83266744D01*
X198322324Y-82936278D01*
X198389664Y-82596186D01*
X198406820Y-82391878D01*
X198418491Y-82252891D01*
X198418492Y-82252880D01*
X198418674Y-82250707D01*
X198419069Y-82222475D01*
X198419855Y-82166178D01*
X198419855Y-82166166D01*
X198419885Y-82164000D01*
X198417704Y-82124975D01*
X198405658Y-81909538D01*
X198400532Y-81817846D01*
X198383128Y-81714943D01*
X198343303Y-81479488D01*
X198343302Y-81479484D01*
X198342714Y-81476007D01*
X198331604Y-81437260D01*
X198281994Y-81264250D01*
X198247152Y-81142742D01*
X198156704Y-80923299D01*
X198116375Y-80825452D01*
X198116371Y-80825444D01*
X198115037Y-80822207D01*
X197948016Y-80518397D01*
X197748170Y-80235097D01*
X197517990Y-79975839D01*
X197260346Y-79743856D01*
X196978448Y-79542037D01*
X196975385Y-79540325D01*
X196975380Y-79540322D01*
X196764250Y-79422325D01*
X196675811Y-79372898D01*
X196672566Y-79371534D01*
X196672562Y-79371532D01*
X196441414Y-79274367D01*
X196356206Y-79238549D01*
X196352843Y-79237559D01*
X196352834Y-79237556D01*
X196147722Y-79177189D01*
X196023617Y-79140663D01*
X195691582Y-79082116D01*
X195685650Y-79081070D01*
X195685648Y-79081070D01*
X195682190Y-79080460D01*
X195678681Y-79080239D01*
X195678679Y-79080239D01*
X195339698Y-79058912D01*
X195339692Y-79058912D01*
X195336180Y-79058691D01*
X195237999Y-79063493D01*
X194993406Y-79075455D01*
X194993397Y-79075456D01*
X194989899Y-79075627D01*
X194986431Y-79076189D01*
X194986428Y-79076189D01*
X194651139Y-79130494D01*
X194651136Y-79130495D01*
X194647664Y-79131057D01*
X194644277Y-79132003D01*
X194644271Y-79132004D01*
X194433807Y-79190767D01*
X194313741Y-79224290D01*
X194269254Y-79242264D01*
X193995555Y-79352845D01*
X193995551Y-79352847D01*
X193992291Y-79354164D01*
X193989204Y-79355833D01*
X193989200Y-79355835D01*
X193957643Y-79372898D01*
X193687322Y-79519060D01*
X193402634Y-79716923D01*
X193399992Y-79719236D01*
X193399988Y-79719239D01*
X193250813Y-79849832D01*
X193141776Y-79945287D01*
X192907999Y-80201306D01*
X192704217Y-80481787D01*
X192702475Y-80484853D01*
X192702474Y-80484855D01*
X192646324Y-80583698D01*
X192532970Y-80783237D01*
X192396393Y-81101896D01*
X192363237Y-81211714D01*
X192297730Y-81428684D01*
X192296187Y-81433793D01*
X192273370Y-81558111D01*
X192245094Y-81712179D01*
X192233602Y-81774792D01*
X192209418Y-82120642D01*
X173014999Y-82120642D01*
X173014999Y-79624640D01*
X173011333Y-79596786D01*
X173000622Y-79515425D01*
X173000622Y-79515423D01*
X172999544Y-79507238D01*
X172939036Y-79361159D01*
X172842782Y-79235718D01*
X172717341Y-79139464D01*
X172571262Y-79078956D01*
X172563074Y-79077878D01*
X172457948Y-79064038D01*
X172457947Y-79064038D01*
X172453861Y-79063500D01*
X169914809Y-79063500D01*
X167375140Y-79063501D01*
X167371056Y-79064039D01*
X167371050Y-79064039D01*
X167265925Y-79077878D01*
X167265923Y-79077878D01*
X167257738Y-79078956D01*
X167111659Y-79139464D01*
X166986218Y-79235718D01*
X166889964Y-79361159D01*
X166829456Y-79507238D01*
X166828378Y-79515425D01*
X166828378Y-79515426D01*
X166818049Y-79593887D01*
X166814000Y-79624639D01*
X161286560Y-79624639D01*
X161223110Y-79596786D01*
X161223106Y-79596785D01*
X161219182Y-79595062D01*
X160943739Y-79516600D01*
X160733881Y-79486733D01*
X160664448Y-79476851D01*
X160664446Y-79476851D01*
X160660196Y-79476246D01*
X160508333Y-79475451D01*
X160378086Y-79474769D01*
X160378080Y-79474769D01*
X160373800Y-79474747D01*
X160369556Y-79475306D01*
X160369552Y-79475306D01*
X160245031Y-79491699D01*
X160089851Y-79512129D01*
X160085711Y-79513262D01*
X160085709Y-79513262D01*
X160064515Y-79519060D01*
X159813602Y-79587702D01*
X159809654Y-79589386D01*
X159554117Y-79698382D01*
X159554113Y-79698384D01*
X159550165Y-79700068D01*
X159304415Y-79847146D01*
X159080900Y-80026215D01*
X158883755Y-80233962D01*
X158716629Y-80466543D01*
X158582614Y-80719653D01*
X158581139Y-80723684D01*
X158505763Y-80929660D01*
X158484190Y-80988610D01*
X158423178Y-81268436D01*
X158421460Y-81290263D01*
X158408537Y-81454471D01*
X158400707Y-81553953D01*
X119143850Y-81553953D01*
X119299932Y-81345313D01*
X119302041Y-81342494D01*
X119330176Y-81294540D01*
X119380595Y-81208601D01*
X119477480Y-81043465D01*
X119490594Y-81014011D01*
X119617062Y-80729961D01*
X119617064Y-80729956D01*
X119618494Y-80726744D01*
X119723324Y-80396278D01*
X119790664Y-80056186D01*
X119812614Y-79794790D01*
X119819491Y-79712891D01*
X119819492Y-79712880D01*
X119819674Y-79710707D01*
X119819706Y-79708452D01*
X119820855Y-79626178D01*
X119820855Y-79626166D01*
X119820885Y-79624000D01*
X119820693Y-79620552D01*
X119811011Y-79447385D01*
X119801532Y-79277846D01*
X119794886Y-79238549D01*
X119744303Y-78939488D01*
X119744302Y-78939484D01*
X119743714Y-78936007D01*
X119732604Y-78897260D01*
X119649121Y-78606122D01*
X119648152Y-78602742D01*
X119601759Y-78490183D01*
X119517375Y-78285452D01*
X119517371Y-78285444D01*
X119516037Y-78282207D01*
X119349016Y-77978397D01*
X119149170Y-77695097D01*
X118918990Y-77435839D01*
X118661346Y-77203856D01*
X118379448Y-77002037D01*
X118376385Y-77000325D01*
X118376380Y-77000322D01*
X118221378Y-76913694D01*
X118076811Y-76832898D01*
X118073566Y-76831534D01*
X118073562Y-76831532D01*
X117760448Y-76699912D01*
X117757206Y-76698549D01*
X117753843Y-76697559D01*
X117753834Y-76697556D01*
X117583345Y-76647379D01*
X134573773Y-76647379D01*
X134577071Y-76713624D01*
X134579948Y-76741043D01*
X134580307Y-76743116D01*
X134580307Y-76743119D01*
X134592368Y-76812845D01*
X134593712Y-76820616D01*
X134650711Y-76968048D01*
X134684737Y-77030360D01*
X134687432Y-77033960D01*
X134785318Y-77164719D01*
X134785322Y-77164724D01*
X134788015Y-77168321D01*
X137889718Y-80270024D01*
X137934413Y-80310475D01*
X137935638Y-80311477D01*
X137935641Y-80311480D01*
X137952313Y-80325123D01*
X137952322Y-80325130D01*
X137953813Y-80326350D01*
X138014451Y-80370013D01*
X138019964Y-80372551D01*
X138019966Y-80372552D01*
X138082710Y-80401435D01*
X138158035Y-80436110D01*
X138161977Y-80437332D01*
X138161978Y-80437332D01*
X138221551Y-80455794D01*
X138221555Y-80455795D01*
X138225850Y-80457126D01*
X138230291Y-80457832D01*
X138230294Y-80457833D01*
X138391604Y-80483488D01*
X138391605Y-80483488D01*
X138396050Y-80484195D01*
X146827429Y-80610037D01*
X146830684Y-80609747D01*
X146949137Y-80599193D01*
X146949145Y-80599192D01*
X146952398Y-80598902D01*
X147003373Y-80588958D01*
X147025505Y-80582198D01*
X147120232Y-80553264D01*
X147120239Y-80553261D01*
X147123367Y-80552306D01*
X148783760Y-79849832D01*
X150323558Y-79198379D01*
X150323582Y-79198369D01*
X150324023Y-79198182D01*
X150324481Y-79197978D01*
X150340664Y-79190767D01*
X150340668Y-79190765D01*
X150344972Y-79188847D01*
X150478132Y-79103680D01*
X150535034Y-79055760D01*
X150562842Y-79030836D01*
X150566033Y-79026876D01*
X150566037Y-79026872D01*
X150656843Y-78914188D01*
X150656845Y-78914185D01*
X150662024Y-78907758D01*
X150725971Y-78763204D01*
X150745973Y-78695083D01*
X150770500Y-78524495D01*
X150770500Y-75122408D01*
X150755377Y-74987926D01*
X150742946Y-74933354D01*
X150691934Y-74792672D01*
X150602338Y-74662450D01*
X150554805Y-74609713D01*
X150551354Y-74606839D01*
X150551350Y-74606835D01*
X150425830Y-74502296D01*
X150422377Y-74499420D01*
X147525706Y-72716853D01*
X147478174Y-72664117D01*
X147465746Y-72610396D01*
X147462410Y-72116713D01*
X147458608Y-71553953D01*
X148200707Y-71553953D01*
X148217194Y-71839878D01*
X148218019Y-71844083D01*
X148218020Y-71844091D01*
X148249853Y-72006342D01*
X148272332Y-72120920D01*
X148273719Y-72124970D01*
X148273720Y-72124975D01*
X148295484Y-72188542D01*
X148365102Y-72391878D01*
X148493787Y-72647740D01*
X148496213Y-72651269D01*
X148496216Y-72651275D01*
X148653575Y-72880233D01*
X148656006Y-72883770D01*
X148848756Y-73095600D01*
X149068472Y-73279311D01*
X149311088Y-73431503D01*
X149314990Y-73433265D01*
X149314994Y-73433267D01*
X149568202Y-73547595D01*
X149568206Y-73547597D01*
X149572114Y-73549361D01*
X149576233Y-73550581D01*
X149842606Y-73629485D01*
X149842611Y-73629486D01*
X149846719Y-73630703D01*
X149850953Y-73631351D01*
X149850958Y-73631352D01*
X150098214Y-73669187D01*
X150129824Y-73674024D01*
X150275589Y-73676314D01*
X150411898Y-73678456D01*
X150411904Y-73678456D01*
X150416189Y-73678523D01*
X150420441Y-73678008D01*
X150420449Y-73678008D01*
X150640221Y-73651411D01*
X150700514Y-73644115D01*
X150704662Y-73643027D01*
X150704666Y-73643026D01*
X150973388Y-73572528D01*
X150977539Y-73571439D01*
X150981500Y-73569799D01*
X150981504Y-73569797D01*
X151124370Y-73510620D01*
X151242138Y-73461839D01*
X151291034Y-73433267D01*
X151485717Y-73319503D01*
X151485718Y-73319503D01*
X151489415Y-73317342D01*
X151714793Y-73140623D01*
X151761491Y-73092435D01*
X151911119Y-72938030D01*
X151914102Y-72934952D01*
X151916635Y-72931504D01*
X151916639Y-72931499D01*
X152081117Y-72707589D01*
X152083655Y-72704134D01*
X152096626Y-72680245D01*
X152218263Y-72456217D01*
X152218264Y-72456215D01*
X152220313Y-72452441D01*
X152321548Y-72184530D01*
X152385487Y-71905358D01*
X152410946Y-71620092D01*
X152411408Y-71576000D01*
X152391928Y-71290263D01*
X152333850Y-71009814D01*
X152238248Y-70739842D01*
X152106891Y-70485342D01*
X152104428Y-70481837D01*
X151944673Y-70254529D01*
X151944668Y-70254523D01*
X151942209Y-70251024D01*
X151747251Y-70041224D01*
X151743935Y-70038510D01*
X151743932Y-70038507D01*
X151528941Y-69862539D01*
X151525623Y-69859823D01*
X151281427Y-69710180D01*
X151263419Y-69702275D01*
X151023110Y-69596786D01*
X151023106Y-69596785D01*
X151019182Y-69595062D01*
X150743739Y-69516600D01*
X150533881Y-69486733D01*
X150464448Y-69476851D01*
X150464446Y-69476851D01*
X150460196Y-69476246D01*
X150308333Y-69475451D01*
X150178086Y-69474769D01*
X150178080Y-69474769D01*
X150173800Y-69474747D01*
X150169556Y-69475306D01*
X150169552Y-69475306D01*
X150045031Y-69491699D01*
X149889851Y-69512129D01*
X149885711Y-69513262D01*
X149885709Y-69513262D01*
X149869209Y-69517776D01*
X149613602Y-69587702D01*
X149609654Y-69589386D01*
X149354117Y-69698382D01*
X149354113Y-69698384D01*
X149350165Y-69700068D01*
X149104415Y-69847146D01*
X148880900Y-70026215D01*
X148683755Y-70233962D01*
X148516629Y-70466543D01*
X148382614Y-70719653D01*
X148284190Y-70988610D01*
X148223178Y-71268436D01*
X148200707Y-71553953D01*
X147458608Y-71553953D01*
X147354554Y-56153953D01*
X158019707Y-56153953D01*
X158036194Y-56439878D01*
X158037019Y-56444083D01*
X158037020Y-56444091D01*
X158054362Y-56532483D01*
X158091332Y-56720920D01*
X158092719Y-56724970D01*
X158092720Y-56724975D01*
X158156154Y-56910249D01*
X158184102Y-56991878D01*
X158312787Y-57247740D01*
X158315213Y-57251269D01*
X158315216Y-57251275D01*
X158447579Y-57443863D01*
X158475006Y-57483770D01*
X158477893Y-57486943D01*
X158477894Y-57486944D01*
X158656420Y-57683142D01*
X158667756Y-57695600D01*
X158887472Y-57879311D01*
X158891098Y-57881586D01*
X158891100Y-57881587D01*
X158911030Y-57894089D01*
X159130088Y-58031503D01*
X159133990Y-58033265D01*
X159133994Y-58033267D01*
X159387202Y-58147595D01*
X159387206Y-58147597D01*
X159391114Y-58149361D01*
X159421599Y-58158391D01*
X159661606Y-58229485D01*
X159661611Y-58229486D01*
X159665719Y-58230703D01*
X159669953Y-58231351D01*
X159669958Y-58231352D01*
X159883728Y-58264063D01*
X159948824Y-58274024D01*
X160094589Y-58276314D01*
X160230898Y-58278456D01*
X160230904Y-58278456D01*
X160235189Y-58278523D01*
X160239441Y-58278008D01*
X160239449Y-58278008D01*
X160459221Y-58251411D01*
X160519514Y-58244115D01*
X160523662Y-58243027D01*
X160523666Y-58243026D01*
X160792388Y-58172528D01*
X160796539Y-58171439D01*
X160800500Y-58169799D01*
X160800504Y-58169797D01*
X160992200Y-58090394D01*
X161061138Y-58061839D01*
X161102879Y-58037448D01*
X161304717Y-57919503D01*
X161304718Y-57919503D01*
X161308415Y-57917342D01*
X161469576Y-57790976D01*
X161530421Y-57743267D01*
X161533793Y-57740623D01*
X161546967Y-57727029D01*
X161730119Y-57538030D01*
X161733102Y-57534952D01*
X161735635Y-57531504D01*
X161735639Y-57531499D01*
X161900117Y-57307589D01*
X161902655Y-57304134D01*
X161905799Y-57298343D01*
X162037263Y-57056217D01*
X162037264Y-57056215D01*
X162039313Y-57052441D01*
X162140548Y-56784530D01*
X162204487Y-56505358D01*
X162229946Y-56220092D01*
X162230408Y-56176000D01*
X162227618Y-56135072D01*
X162211220Y-55894540D01*
X162211219Y-55894534D01*
X162210928Y-55890263D01*
X162152850Y-55609814D01*
X162057248Y-55339842D01*
X161925891Y-55085342D01*
X161923428Y-55081837D01*
X161763673Y-54854529D01*
X161763668Y-54854523D01*
X161761209Y-54851024D01*
X161677012Y-54760417D01*
X161569172Y-54644367D01*
X161569169Y-54644364D01*
X161566251Y-54641224D01*
X161562935Y-54638510D01*
X161562932Y-54638507D01*
X161360407Y-54472742D01*
X161344623Y-54459823D01*
X161100427Y-54310180D01*
X161082419Y-54302275D01*
X160842110Y-54196786D01*
X160842106Y-54196785D01*
X160838182Y-54195062D01*
X160562739Y-54116600D01*
X160352881Y-54086733D01*
X160283448Y-54076851D01*
X160283446Y-54076851D01*
X160279196Y-54076246D01*
X160127333Y-54075451D01*
X159997086Y-54074769D01*
X159997080Y-54074769D01*
X159992800Y-54074747D01*
X159988556Y-54075306D01*
X159988552Y-54075306D01*
X159864031Y-54091699D01*
X159708851Y-54112129D01*
X159704711Y-54113262D01*
X159704709Y-54113262D01*
X159688209Y-54117776D01*
X159432602Y-54187702D01*
X159428654Y-54189386D01*
X159173117Y-54298382D01*
X159173113Y-54298384D01*
X159169165Y-54300068D01*
X158923415Y-54447146D01*
X158699900Y-54626215D01*
X158597822Y-54733783D01*
X158515014Y-54821044D01*
X158502755Y-54833962D01*
X158335629Y-55066543D01*
X158201614Y-55319653D01*
X158103190Y-55588610D01*
X158042178Y-55868436D01*
X158040460Y-55890263D01*
X158020758Y-56140605D01*
X158019707Y-56153953D01*
X147354554Y-56153953D01*
X147344692Y-54694423D01*
X147364233Y-54626170D01*
X147418549Y-54578868D01*
X149025584Y-53848397D01*
X149702584Y-53540670D01*
X149702589Y-53540667D01*
X149706697Y-53538800D01*
X149852249Y-53445533D01*
X149906108Y-53398948D01*
X149927842Y-53379208D01*
X149988860Y-53303489D01*
X150021843Y-53262560D01*
X150021845Y-53262557D01*
X150027024Y-53256130D01*
X150090971Y-53111576D01*
X150110973Y-53043455D01*
X150116657Y-53003927D01*
X150123743Y-52954639D01*
X166560000Y-52954639D01*
X166560001Y-58033360D01*
X166560539Y-58037444D01*
X166560539Y-58037450D01*
X166574378Y-58142574D01*
X166575456Y-58150762D01*
X166635964Y-58296841D01*
X166732218Y-58422282D01*
X166857659Y-58518536D01*
X167003738Y-58579044D01*
X167011926Y-58580122D01*
X167117045Y-58593961D01*
X167121139Y-58594500D01*
X169660192Y-58594500D01*
X172199860Y-58594499D01*
X172203944Y-58593961D01*
X172203950Y-58593961D01*
X172309075Y-58580122D01*
X172309077Y-58580122D01*
X172317262Y-58579044D01*
X172463341Y-58518536D01*
X172588782Y-58422282D01*
X172685036Y-58296841D01*
X172745544Y-58150762D01*
X172761000Y-58033361D01*
X172760999Y-55450642D01*
X191955418Y-55450642D01*
X191969936Y-55797032D01*
X191989930Y-55926186D01*
X192014571Y-56085356D01*
X192022975Y-56139646D01*
X192023897Y-56143038D01*
X192023897Y-56143040D01*
X192035613Y-56186162D01*
X192113875Y-56474212D01*
X192241501Y-56796560D01*
X192404265Y-57102673D01*
X192406250Y-57105572D01*
X192598145Y-57385829D01*
X192598150Y-57385835D01*
X192600136Y-57388736D01*
X192826673Y-57651182D01*
X192829243Y-57653562D01*
X192829247Y-57653566D01*
X192919511Y-57737151D01*
X193081053Y-57886740D01*
X193083875Y-57888821D01*
X193083878Y-57888823D01*
X193128499Y-57921720D01*
X193360105Y-58092475D01*
X193363142Y-58094229D01*
X193363146Y-58094231D01*
X193447700Y-58143048D01*
X193660352Y-58265823D01*
X193978050Y-58404621D01*
X193981406Y-58405660D01*
X193981409Y-58405661D01*
X194119130Y-58448293D01*
X194309239Y-58507142D01*
X194312691Y-58507800D01*
X194312697Y-58507802D01*
X194646342Y-58571448D01*
X194646347Y-58571449D01*
X194649793Y-58572106D01*
X194878280Y-58589687D01*
X194991969Y-58598435D01*
X194991970Y-58598435D01*
X194995466Y-58598704D01*
X195224659Y-58590700D01*
X195338433Y-58586727D01*
X195338437Y-58586727D01*
X195341949Y-58586604D01*
X195345428Y-58586090D01*
X195345431Y-58586090D01*
X195681432Y-58536474D01*
X195681438Y-58536473D01*
X195684924Y-58535958D01*
X195688328Y-58535059D01*
X195688331Y-58535058D01*
X196016726Y-58448293D01*
X196016727Y-58448293D01*
X196020117Y-58447397D01*
X196343348Y-58322023D01*
X196650590Y-58161401D01*
X196843172Y-58031503D01*
X196935097Y-57969499D01*
X196935099Y-57969498D01*
X196938013Y-57967532D01*
X197091745Y-57836696D01*
X197199361Y-57745107D01*
X197199362Y-57745106D01*
X197202034Y-57742832D01*
X197312635Y-57625054D01*
X197436952Y-57492671D01*
X197436956Y-57492666D01*
X197439363Y-57490103D01*
X197441468Y-57487289D01*
X197441474Y-57487282D01*
X197644932Y-57215313D01*
X197647041Y-57212494D01*
X197711473Y-57102673D01*
X197743301Y-57048423D01*
X197822480Y-56913465D01*
X197879886Y-56784530D01*
X197962062Y-56599961D01*
X197962064Y-56599956D01*
X197963494Y-56596744D01*
X198068324Y-56266278D01*
X198135664Y-55926186D01*
X198148878Y-55768815D01*
X198164491Y-55582891D01*
X198164492Y-55582880D01*
X198164674Y-55580707D01*
X198165112Y-55549394D01*
X198165855Y-55496178D01*
X198165855Y-55496166D01*
X198165885Y-55494000D01*
X198164284Y-55465355D01*
X198154742Y-55294696D01*
X198146532Y-55147846D01*
X198135961Y-55085342D01*
X198089303Y-54809488D01*
X198089302Y-54809484D01*
X198088714Y-54806007D01*
X198077604Y-54767260D01*
X197994121Y-54476122D01*
X197993152Y-54472742D01*
X197921286Y-54298382D01*
X197862375Y-54155452D01*
X197862371Y-54155444D01*
X197861037Y-54152207D01*
X197694016Y-53848397D01*
X197494170Y-53565097D01*
X197263990Y-53305839D01*
X197160080Y-53212278D01*
X197008964Y-53076213D01*
X197008961Y-53076211D01*
X197006346Y-53073856D01*
X196724448Y-52872037D01*
X196721385Y-52870325D01*
X196721380Y-52870322D01*
X196507632Y-52750862D01*
X196421811Y-52702898D01*
X196418566Y-52701534D01*
X196418562Y-52701532D01*
X196114298Y-52573632D01*
X196102206Y-52568549D01*
X196098843Y-52567559D01*
X196098834Y-52567556D01*
X195893722Y-52507189D01*
X195769617Y-52470663D01*
X195437582Y-52412116D01*
X195431650Y-52411070D01*
X195431648Y-52411070D01*
X195428190Y-52410460D01*
X195424681Y-52410239D01*
X195424679Y-52410239D01*
X195085698Y-52388912D01*
X195085692Y-52388912D01*
X195082180Y-52388691D01*
X194983999Y-52393493D01*
X194739406Y-52405455D01*
X194739397Y-52405456D01*
X194735899Y-52405627D01*
X194732431Y-52406189D01*
X194732428Y-52406189D01*
X194397139Y-52460494D01*
X194397136Y-52460495D01*
X194393664Y-52461057D01*
X194390277Y-52462003D01*
X194390271Y-52462004D01*
X194114357Y-52539041D01*
X194059741Y-52554290D01*
X194015254Y-52572264D01*
X193741555Y-52682845D01*
X193741551Y-52682847D01*
X193738291Y-52684164D01*
X193735204Y-52685833D01*
X193735200Y-52685835D01*
X193703643Y-52702898D01*
X193433322Y-52849060D01*
X193148634Y-53046923D01*
X193145992Y-53049236D01*
X193145988Y-53049239D01*
X192954811Y-53216602D01*
X192887776Y-53275287D01*
X192653999Y-53531306D01*
X192450217Y-53811787D01*
X192278970Y-54113237D01*
X192142393Y-54431896D01*
X192130061Y-54472742D01*
X192045006Y-54754457D01*
X192042187Y-54763793D01*
X192029879Y-54830853D01*
X191981457Y-55094687D01*
X191979602Y-55104792D01*
X191955418Y-55450642D01*
X172760999Y-55450642D01*
X172760999Y-52954640D01*
X172758957Y-52939122D01*
X172746622Y-52845425D01*
X172746622Y-52845423D01*
X172745544Y-52837238D01*
X172685036Y-52691159D01*
X172588782Y-52565718D01*
X172463341Y-52469464D01*
X172317262Y-52408956D01*
X172309074Y-52407878D01*
X172203948Y-52394038D01*
X172203947Y-52394038D01*
X172199861Y-52393500D01*
X169660808Y-52393500D01*
X167121140Y-52393501D01*
X167117056Y-52394039D01*
X167117050Y-52394039D01*
X167011925Y-52407878D01*
X167011923Y-52407878D01*
X167003738Y-52408956D01*
X166857659Y-52469464D01*
X166732218Y-52565718D01*
X166635964Y-52691159D01*
X166575456Y-52837238D01*
X166560000Y-52954639D01*
X150123743Y-52954639D01*
X150128801Y-52919458D01*
X150135500Y-52872867D01*
X150135500Y-49479133D01*
X150110821Y-49308028D01*
X150090698Y-49239720D01*
X150081724Y-49211773D01*
X150079527Y-49207403D01*
X150014432Y-49077933D01*
X150014430Y-49077930D01*
X150010720Y-49070551D01*
X149905585Y-48952518D01*
X149851847Y-48906120D01*
X149706697Y-48813200D01*
X149702601Y-48811338D01*
X149702597Y-48811336D01*
X147014472Y-47589461D01*
X147014471Y-47589460D01*
X147011405Y-47588067D01*
X146889033Y-47547518D01*
X146885749Y-47546807D01*
X146885743Y-47546805D01*
X146856920Y-47540562D01*
X146836894Y-47536224D01*
X146833553Y-47535866D01*
X146833551Y-47535866D01*
X146712052Y-47522858D01*
X146708708Y-47522500D01*
X137909469Y-47522500D01*
X137906630Y-47522758D01*
X137906623Y-47522758D01*
X137837732Y-47529011D01*
X137800459Y-47532394D01*
X137797663Y-47532906D01*
X137797661Y-47532906D01*
X137789562Y-47534388D01*
X137755831Y-47540562D01*
X137752739Y-47541463D01*
X137752729Y-47541465D01*
X137644032Y-47573126D01*
X137644030Y-47573127D01*
X137636964Y-47575185D01*
X137499535Y-47653279D01*
X137496240Y-47655772D01*
X137496238Y-47655773D01*
X137446503Y-47693397D01*
X137446497Y-47693402D01*
X137442915Y-47696112D01*
X137321667Y-47818591D01*
X134843988Y-51163459D01*
X134833182Y-51178524D01*
X134828777Y-51184868D01*
X134810706Y-51212469D01*
X134746031Y-51356699D01*
X134725686Y-51424718D01*
X134700300Y-51595174D01*
X134700277Y-51599678D01*
X134700277Y-51599681D01*
X134629444Y-65624500D01*
X134573773Y-76647379D01*
X117583345Y-76647379D01*
X117548722Y-76637189D01*
X117424617Y-76600663D01*
X117151565Y-76552516D01*
X117086650Y-76541070D01*
X117086648Y-76541070D01*
X117083190Y-76540460D01*
X117079681Y-76540239D01*
X117079679Y-76540239D01*
X116740698Y-76518912D01*
X116740692Y-76518912D01*
X116737180Y-76518691D01*
X116638999Y-76523493D01*
X116394406Y-76535455D01*
X116394397Y-76535456D01*
X116390899Y-76535627D01*
X116387431Y-76536189D01*
X116387428Y-76536189D01*
X116052139Y-76590494D01*
X116052136Y-76590495D01*
X116048664Y-76591057D01*
X116045277Y-76592003D01*
X116045271Y-76592004D01*
X115769357Y-76669041D01*
X115714741Y-76684290D01*
X115646374Y-76711912D01*
X115396555Y-76812845D01*
X115396551Y-76812847D01*
X115393291Y-76814164D01*
X115390204Y-76815833D01*
X115390200Y-76815835D01*
X115358643Y-76832898D01*
X115088322Y-76979060D01*
X114803634Y-77176923D01*
X114800992Y-77179236D01*
X114800988Y-77179239D01*
X114770176Y-77206213D01*
X114542776Y-77405287D01*
X114308999Y-77661306D01*
X114105217Y-77941787D01*
X113933970Y-78243237D01*
X113797393Y-78561896D01*
X113697187Y-78893793D01*
X113672762Y-79026872D01*
X113641359Y-79197978D01*
X113634602Y-79234792D01*
X113610418Y-79580642D01*
X109658462Y-79580642D01*
X109651011Y-79447385D01*
X109641532Y-79277846D01*
X109634886Y-79238549D01*
X109584303Y-78939488D01*
X109584302Y-78939484D01*
X109583714Y-78936007D01*
X109572604Y-78897260D01*
X109489121Y-78606122D01*
X109488152Y-78602742D01*
X109441759Y-78490183D01*
X109357375Y-78285452D01*
X109357371Y-78285444D01*
X109356037Y-78282207D01*
X109189016Y-77978397D01*
X108989170Y-77695097D01*
X108758990Y-77435839D01*
X108501346Y-77203856D01*
X108219448Y-77002037D01*
X108216385Y-77000325D01*
X108216380Y-77000322D01*
X108061378Y-76913694D01*
X107916811Y-76832898D01*
X107913566Y-76831534D01*
X107913562Y-76831532D01*
X107600448Y-76699912D01*
X107597206Y-76698549D01*
X107593843Y-76697559D01*
X107593834Y-76697556D01*
X107388722Y-76637189D01*
X107264617Y-76600663D01*
X106991565Y-76552516D01*
X106926650Y-76541070D01*
X106926648Y-76541070D01*
X106923190Y-76540460D01*
X106919681Y-76540239D01*
X106919679Y-76540239D01*
X106580698Y-76518912D01*
X106580692Y-76518912D01*
X106577180Y-76518691D01*
X106478999Y-76523493D01*
X106234406Y-76535455D01*
X106234397Y-76535456D01*
X106230899Y-76535627D01*
X106227431Y-76536189D01*
X106227428Y-76536189D01*
X105892139Y-76590494D01*
X105892136Y-76590495D01*
X105888664Y-76591057D01*
X105885277Y-76592003D01*
X105885271Y-76592004D01*
X105609357Y-76669041D01*
X105554741Y-76684290D01*
X105486374Y-76711912D01*
X105236555Y-76812845D01*
X105236551Y-76812847D01*
X105233291Y-76814164D01*
X105230204Y-76815833D01*
X105230200Y-76815835D01*
X105198643Y-76832898D01*
X104928322Y-76979060D01*
X104643634Y-77176923D01*
X104640992Y-77179236D01*
X104640988Y-77179239D01*
X104610176Y-77206213D01*
X104382776Y-77405287D01*
X104148999Y-77661306D01*
X103945217Y-77941787D01*
X103773970Y-78243237D01*
X103637393Y-78561896D01*
X103537187Y-78893793D01*
X103512762Y-79026872D01*
X103481359Y-79197978D01*
X103474602Y-79234792D01*
X103450418Y-79580642D01*
X100600500Y-79580642D01*
X100600500Y-63433201D01*
X101172500Y-63433201D01*
X101181269Y-63535875D01*
X101188515Y-63577988D01*
X101219546Y-63691215D01*
X101294701Y-63830272D01*
X101336321Y-63887790D01*
X101456195Y-64011615D01*
X103341769Y-65471414D01*
X103342315Y-65471818D01*
X103342327Y-65471827D01*
X103362506Y-65486755D01*
X103362543Y-65486782D01*
X103363080Y-65487179D01*
X103363633Y-65487570D01*
X103363657Y-65487587D01*
X103371232Y-65492938D01*
X103372093Y-65493546D01*
X103406311Y-65516024D01*
X103550865Y-65579971D01*
X103554820Y-65581132D01*
X103554822Y-65581133D01*
X103570244Y-65585661D01*
X103618986Y-65599973D01*
X103623442Y-65600614D01*
X103623448Y-65600615D01*
X103719354Y-65614404D01*
X103789574Y-65624500D01*
X128023258Y-65624500D01*
X128052621Y-65623788D01*
X128064835Y-65623195D01*
X128083025Y-65621650D01*
X128103250Y-65619933D01*
X128103254Y-65619932D01*
X128108498Y-65619487D01*
X128181856Y-65600615D01*
X128257583Y-65581134D01*
X128257590Y-65581132D01*
X128261581Y-65580105D01*
X128327442Y-65553593D01*
X128476528Y-65467142D01*
X130807272Y-63627081D01*
X130809168Y-63625311D01*
X130809177Y-63625303D01*
X130878595Y-63560488D01*
X130878598Y-63560485D01*
X130880499Y-63558710D01*
X130908420Y-63527938D01*
X130935980Y-63491086D01*
X130972767Y-63441897D01*
X130972769Y-63441894D01*
X130977024Y-63436204D01*
X131040971Y-63291650D01*
X131060973Y-63223529D01*
X131085500Y-63052941D01*
X131085500Y-53141559D01*
X131077531Y-53043645D01*
X131070941Y-53003429D01*
X131048661Y-52918148D01*
X131044264Y-52901316D01*
X131044263Y-52901313D01*
X131042478Y-52894481D01*
X130969547Y-52754244D01*
X130928849Y-52696071D01*
X130810965Y-52570354D01*
X129597624Y-51599681D01*
X128353755Y-50604585D01*
X128353720Y-50604558D01*
X128353059Y-50604029D01*
X128326792Y-50584162D01*
X128315639Y-50576194D01*
X128276053Y-50550190D01*
X128131162Y-50487009D01*
X128127197Y-50485868D01*
X128127190Y-50485865D01*
X128090424Y-50475281D01*
X128062936Y-50467368D01*
X127977580Y-50455556D01*
X127896676Y-50444360D01*
X127896673Y-50444360D01*
X127892223Y-50443744D01*
X119017027Y-50490703D01*
X103987235Y-50570225D01*
X103987223Y-50570225D01*
X103985595Y-50570234D01*
X103931759Y-50573334D01*
X103924146Y-50573772D01*
X103924144Y-50573772D01*
X103922497Y-50573867D01*
X103920854Y-50574048D01*
X103920842Y-50574049D01*
X103907328Y-50575538D01*
X103896381Y-50576744D01*
X103894363Y-50577098D01*
X103894366Y-50577098D01*
X103825979Y-50589109D01*
X103825976Y-50589110D01*
X103819923Y-50590173D01*
X103814194Y-50592388D01*
X103814190Y-50592389D01*
X103676329Y-50645688D01*
X103672491Y-50647172D01*
X103610179Y-50681198D01*
X103606579Y-50683893D01*
X103475820Y-50781779D01*
X103475815Y-50781783D01*
X103472218Y-50784476D01*
X101386752Y-52869942D01*
X101343449Y-52918148D01*
X101326546Y-52939122D01*
X101280976Y-53003927D01*
X101217029Y-53148481D01*
X101197027Y-53216602D01*
X101196386Y-53221058D01*
X101196385Y-53221064D01*
X101190419Y-53262560D01*
X101172500Y-53387190D01*
X101172500Y-63433201D01*
X100600500Y-63433201D01*
X100600500Y-45783715D01*
X100620502Y-45715594D01*
X100674158Y-45669101D01*
X100744432Y-45658997D01*
X100809012Y-45688491D01*
X100838767Y-45726512D01*
X100877597Y-45802720D01*
X101083137Y-46119225D01*
X101320635Y-46412511D01*
X101587489Y-46679365D01*
X101880775Y-46916863D01*
X102197279Y-47122403D01*
X102200213Y-47123898D01*
X102200220Y-47123902D01*
X102530595Y-47292236D01*
X102533535Y-47293734D01*
X102885857Y-47428978D01*
X103250387Y-47526653D01*
X103448353Y-47558008D01*
X103619881Y-47585176D01*
X103619889Y-47585177D01*
X103623129Y-47585690D01*
X104000000Y-47605441D01*
X104376871Y-47585690D01*
X104380111Y-47585177D01*
X104380119Y-47585176D01*
X104551647Y-47558008D01*
X104749613Y-47526653D01*
X105114143Y-47428978D01*
X105466465Y-47293734D01*
X105469405Y-47292236D01*
X105799780Y-47123902D01*
X105799787Y-47123898D01*
X105802721Y-47122403D01*
X106119225Y-46916863D01*
X106412511Y-46679365D01*
X106679365Y-46412511D01*
X106888741Y-46153953D01*
X147819707Y-46153953D01*
X147836194Y-46439878D01*
X147837019Y-46444083D01*
X147837020Y-46444091D01*
X147868853Y-46606342D01*
X147891332Y-46720920D01*
X147892719Y-46724970D01*
X147892720Y-46724975D01*
X147959035Y-46918665D01*
X147984102Y-46991878D01*
X148014562Y-47052441D01*
X148092052Y-47206512D01*
X148112787Y-47247740D01*
X148115213Y-47251269D01*
X148115216Y-47251275D01*
X148153920Y-47307589D01*
X148275006Y-47483770D01*
X148277893Y-47486943D01*
X148277894Y-47486944D01*
X148423462Y-47646921D01*
X148467756Y-47695600D01*
X148687472Y-47879311D01*
X148930088Y-48031503D01*
X148933990Y-48033265D01*
X148933994Y-48033267D01*
X149187202Y-48147595D01*
X149187206Y-48147597D01*
X149191114Y-48149361D01*
X149195233Y-48150581D01*
X149461606Y-48229485D01*
X149461611Y-48229486D01*
X149465719Y-48230703D01*
X149469953Y-48231351D01*
X149469958Y-48231352D01*
X149717214Y-48269187D01*
X149748824Y-48274024D01*
X149894589Y-48276314D01*
X150030898Y-48278456D01*
X150030904Y-48278456D01*
X150035189Y-48278523D01*
X150039441Y-48278008D01*
X150039449Y-48278008D01*
X150259221Y-48251411D01*
X150319514Y-48244115D01*
X150323662Y-48243027D01*
X150323666Y-48243026D01*
X150592388Y-48172528D01*
X150596539Y-48171439D01*
X150600500Y-48169799D01*
X150600504Y-48169797D01*
X150743370Y-48110620D01*
X150861138Y-48061839D01*
X150910034Y-48033267D01*
X151104717Y-47919503D01*
X151104718Y-47919503D01*
X151108415Y-47917342D01*
X151333793Y-47740623D01*
X151380491Y-47692435D01*
X151483933Y-47585690D01*
X151533102Y-47534952D01*
X151535635Y-47531504D01*
X151535639Y-47531499D01*
X151700117Y-47307589D01*
X151702655Y-47304134D01*
X151731355Y-47251275D01*
X151837263Y-47056217D01*
X151837264Y-47056215D01*
X151839313Y-47052441D01*
X151940548Y-46784530D01*
X151957368Y-46711088D01*
X152003530Y-46509538D01*
X152003531Y-46509533D01*
X152004487Y-46505358D01*
X152029946Y-46220092D01*
X152030408Y-46176000D01*
X152026713Y-46121801D01*
X152011220Y-45894540D01*
X152011219Y-45894534D01*
X152010928Y-45890263D01*
X151952850Y-45609814D01*
X151857248Y-45339842D01*
X151725891Y-45085342D01*
X151723428Y-45081837D01*
X151563673Y-44854529D01*
X151563668Y-44854523D01*
X151561209Y-44851024D01*
X151366251Y-44641224D01*
X151362935Y-44638510D01*
X151362932Y-44638507D01*
X151147941Y-44462539D01*
X151144623Y-44459823D01*
X150900427Y-44310180D01*
X150882419Y-44302275D01*
X150642110Y-44196786D01*
X150642106Y-44196785D01*
X150638182Y-44195062D01*
X150362739Y-44116600D01*
X150152881Y-44086733D01*
X150083448Y-44076851D01*
X150083446Y-44076851D01*
X150079196Y-44076246D01*
X149927333Y-44075451D01*
X149797086Y-44074769D01*
X149797080Y-44074769D01*
X149792800Y-44074747D01*
X149788556Y-44075306D01*
X149788552Y-44075306D01*
X149664031Y-44091699D01*
X149508851Y-44112129D01*
X149504711Y-44113262D01*
X149504709Y-44113262D01*
X149488209Y-44117776D01*
X149232602Y-44187702D01*
X149228654Y-44189386D01*
X148973117Y-44298382D01*
X148973113Y-44298384D01*
X148969165Y-44300068D01*
X148723415Y-44447146D01*
X148499900Y-44626215D01*
X148302755Y-44833962D01*
X148135629Y-45066543D01*
X148001614Y-45319653D01*
X147903190Y-45588610D01*
X147842178Y-45868436D01*
X147819707Y-46153953D01*
X106888741Y-46153953D01*
X106916863Y-46119225D01*
X107122403Y-45802720D01*
X107187533Y-45674897D01*
X107292236Y-45469405D01*
X107293734Y-45466465D01*
X107428978Y-45114143D01*
X107526653Y-44749613D01*
X107558008Y-44551647D01*
X107585176Y-44380119D01*
X107585177Y-44380111D01*
X107585690Y-44376871D01*
X107605441Y-44000000D01*
X107585690Y-43623129D01*
X107526653Y-43250387D01*
X107428978Y-42885857D01*
X107293734Y-42533535D01*
X107220332Y-42389475D01*
X107123902Y-42200221D01*
X107123898Y-42200214D01*
X107122403Y-42197280D01*
X106916863Y-41880775D01*
X106679365Y-41587489D01*
X106412511Y-41320635D01*
X106119225Y-41083137D01*
X105802721Y-40877597D01*
X105799787Y-40876102D01*
X105799780Y-40876098D01*
X105726513Y-40838767D01*
X105674898Y-40790019D01*
X105657832Y-40721104D01*
X105680733Y-40653902D01*
X105736330Y-40609750D01*
X105783716Y-40600500D01*
X158563004Y-40600500D01*
X158631125Y-40620502D01*
G37*
%TD.AperFunction*%
%TD*%
M02*
