%TF.GenerationSoftware,KiCad,Pcbnew,(6.0.6)*%
%TF.CreationDate,2022-11-23T05:32:29-08:00*%
%TF.ProjectId,FanSpeed_Controller,46616e53-7065-4656-945f-436f6e74726f,rev?*%
%TF.SameCoordinates,Original*%
%TF.FileFunction,Soldermask,Bot*%
%TF.FilePolarity,Negative*%
%FSLAX46Y46*%
G04 Gerber Fmt 4.6, Leading zero omitted, Abs format (unit mm)*
G04 Created by KiCad (PCBNEW (6.0.6)) date 2022-11-23 05:32:29*
%MOMM*%
%LPD*%
G01*
G04 APERTURE LIST*
%ADD10R,3.200000X3.200000*%
%ADD11O,3.200000X3.200000*%
%ADD12C,1.500000*%
%ADD13C,5.000000*%
%ADD14R,5.000000X5.000000*%
%ADD15R,1.600000X1.600000*%
%ADD16O,1.600000X1.600000*%
%ADD17R,3.000000X3.000000*%
%ADD18C,3.000000*%
%ADD19C,3.200000*%
%ADD20R,1.905000X2.000000*%
%ADD21O,1.905000X2.000000*%
%ADD22C,6.000000*%
G04 APERTURE END LIST*
D10*
%TO.C,D2*%
X207061000Y-44351000D03*
D11*
X207061000Y-64351000D03*
%TD*%
D10*
%TO.C,D3*%
X207061000Y-70894000D03*
D11*
X207061000Y-90894000D03*
%TD*%
D12*
%TO.C,X1*%
X140132000Y-115856000D03*
X140132000Y-110976000D03*
%TD*%
D13*
%TO.C,HeatSink1*%
X195314500Y-82164000D03*
D14*
X169914500Y-82164000D03*
%TD*%
D15*
%TO.C,A1*%
X175312000Y-110856000D03*
D16*
X177852000Y-110856000D03*
X180392000Y-110856000D03*
X182932000Y-110856000D03*
X185472000Y-110856000D03*
X188012000Y-110856000D03*
X190552000Y-110856000D03*
X193092000Y-110856000D03*
X195632000Y-110856000D03*
X198172000Y-110856000D03*
X200712000Y-110856000D03*
X203252000Y-110856000D03*
X205792000Y-110856000D03*
X208332000Y-110856000D03*
X210872000Y-110856000D03*
X210872000Y-95616000D03*
X208332000Y-95616000D03*
X205792000Y-95616000D03*
X203252000Y-95616000D03*
X200712000Y-95616000D03*
X198172000Y-95616000D03*
X195632000Y-95616000D03*
X193092000Y-95616000D03*
X190552000Y-95616000D03*
X188012000Y-95616000D03*
X185472000Y-95616000D03*
X182932000Y-95616000D03*
X180392000Y-95616000D03*
X177852000Y-95616000D03*
X175312000Y-95616000D03*
%TD*%
D17*
%TO.C,J2*%
X108255000Y-101722000D03*
D18*
X108255000Y-108072000D03*
%TD*%
%TO.C,K1*%
X160125000Y-46176000D03*
X160125000Y-56176000D03*
X149925000Y-56176000D03*
X149925000Y-46176000D03*
X147425000Y-51176000D03*
%TD*%
D10*
%TO.C,FH1*%
X126020000Y-56669000D03*
D19*
X126020000Y-60669000D03*
X140020000Y-60669000D03*
X140020000Y-56669000D03*
%TD*%
D18*
%TO.C,K2*%
X160506000Y-71576000D03*
X160506000Y-81576000D03*
X150306000Y-81576000D03*
X150306000Y-71576000D03*
X147806000Y-76576000D03*
%TD*%
D17*
%TO.C,J4*%
X219507000Y-84704000D03*
D18*
X219507000Y-78354000D03*
%TD*%
D10*
%TO.C,FH2*%
X106716000Y-88292000D03*
D19*
X106716000Y-92292000D03*
X120716000Y-92292000D03*
X120716000Y-88292000D03*
%TD*%
D10*
%TO.C,D1*%
X134544000Y-99309000D03*
D11*
X119304000Y-99309000D03*
%TD*%
D13*
%TO.C,HeatSink2*%
X195060500Y-55494000D03*
D14*
X169660500Y-55494000D03*
%TD*%
D17*
%TO.C,J3*%
X219127000Y-59050000D03*
D18*
X219127000Y-52700000D03*
%TD*%
D14*
%TO.C,J1*%
X116715500Y-59304000D03*
X106555500Y-59304000D03*
D13*
X116715500Y-69464000D03*
X106555500Y-69464000D03*
X106555500Y-79624000D03*
X116715500Y-79624000D03*
%TD*%
D20*
%TO.C,Q2*%
X179947500Y-86538000D03*
D21*
X182487500Y-86538000D03*
X185027500Y-86538000D03*
%TD*%
D20*
%TO.C,Q1*%
X179820500Y-59868000D03*
D21*
X182360500Y-59868000D03*
X184900500Y-59868000D03*
%TD*%
D22*
%TO.C,H3*%
X226000000Y-116000000D03*
%TD*%
%TO.C,H2*%
X104000000Y-116000000D03*
%TD*%
%TO.C,H4*%
X226000000Y-44000000D03*
%TD*%
%TO.C,H1*%
X104000000Y-44000000D03*
%TD*%
M02*
